<svg xmlns="http://www.w3.org/2000/svg" xmlns:xlink="http://www.w3.org/1999/xlink" width="1000" zoomAndPan="magnify" viewBox="0 0 750 599.999999" height="800" preserveAspectRatio="xMidYMid meet" version="1.0"><defs><clipPath id="e087c91672"><path d="M 38.601562 400 L 302 400 L 302 597.429688 L 38.601562 597.429688 Z M 38.601562 400 " clip-rule="nonzero"/></clipPath></defs><path fill="#0339e8" d="M 395.152344 422.460938 C 390.195312 422.460938 385.242188 421.398438 380.640625 419.394531 C 374.621094 416.796875 371.910156 409.835938 374.503906 403.820312 C 377.101562 397.921875 384.0625 395.089844 390.078125 397.683594 C 392.203125 398.628906 396.449219 399.808594 401.285156 397.214844 L 490.128906 350.375 C 500.863281 344.710938 513.605469 344.710938 524.34375 350.375 L 613.183594 397.214844 C 617.667969 399.574219 622.859375 399.21875 626.988281 396.269531 C 631.117188 393.203125 633.121094 388.363281 632.296875 383.289062 L 615.308594 284.183594 C 613.300781 272.269531 617.195312 260.117188 625.808594 251.621094 L 697.660156 181.421875 C 701.316406 177.882812 702.613281 172.808594 700.960938 167.855469 C 699.429688 163.015625 695.417969 159.597656 690.34375 158.886719 L 591.003906 144.375 C 579.085938 142.605469 568.703125 135.054688 563.394531 124.199219 L 519.035156 33.945312 C 514.550781 24.742188 500.039062 24.742188 495.554688 33.945312 L 451.191406 124.199219 C 445.882812 135.054688 435.5 142.605469 423.585938 144.375 L 324.242188 158.886719 C 319.171875 159.597656 315.277344 163.015625 313.625 167.855469 C 312.089844 172.808594 313.269531 177.765625 316.929688 181.421875 L 369.785156 233.097656 C 374.386719 237.699219 374.503906 245.132812 370.019531 249.734375 C 365.539062 254.453125 357.988281 254.453125 353.386719 249.96875 L 300.527344 198.292969 C 290.5 188.382812 286.84375 173.988281 291.207031 160.539062 C 295.574219 147.089844 306.898438 137.53125 320.824219 135.527344 L 420.046875 121.015625 C 424.292969 120.425781 427.949219 117.710938 429.957031 113.820312 L 474.316406 23.5625 C 480.570312 10.9375 493.195312 3.03125 507.234375 3.03125 C 521.273438 3.03125 533.898438 10.9375 540.152344 23.5625 L 584.511719 113.820312 C 586.402344 117.710938 590.058594 120.425781 594.425781 121.015625 L 693.765625 135.527344 C 707.6875 137.53125 719.015625 147.089844 723.378906 160.539062 C 727.746094 173.988281 724.203125 188.382812 714.058594 198.292969 L 642.207031 268.492188 C 639.140625 271.5625 637.722656 275.925781 638.433594 280.175781 L 655.421875 379.398438 C 657.78125 393.320312 652.234375 407.125 640.792969 415.382812 C 629.464844 423.640625 614.597656 424.703125 602.210938 418.097656 L 513.371094 371.257812 C 509.59375 369.25 504.992188 369.25 501.21875 371.257812 L 412.375 418.097656 C 406.949219 420.925781 401.050781 422.34375 395.269531 422.34375 Z M 395.152344 422.460938 " fill-opacity="1" fill-rule="nonzero"/><path fill="#0339e8" d="M 258.644531 520.859375 C 256.640625 520.859375 254.632812 520.386719 252.863281 519.324219 L 111.167969 440.160156 C 105.503906 436.972656 103.378906 429.777344 106.566406 424.113281 L 214.875 230.265625 C 216.289062 227.671875 218.765625 225.667969 221.597656 224.839844 L 319.761719 193.339844 C 325.894531 191.332031 332.621094 194.753906 334.625 201.007812 C 336.632812 207.261719 333.210938 213.867188 326.957031 215.875 L 233.160156 245.960938 L 132.875 425.527344 L 254.042969 493.132812 L 260.886719 480.863281 C 262.65625 477.675781 265.84375 475.554688 269.382812 474.964844 C 269.617188 474.964844 301.710938 469.535156 317.402344 441.339844 C 334.035156 411.488281 329.789062 384.351562 329.789062 384.117188 C 329.082031 379.632812 330.96875 375.03125 334.746094 372.4375 L 441.871094 299.289062 C 449.660156 293.976562 452.371094 283.949219 448.480469 275.335938 C 444.113281 265.898438 433.261719 261.652344 423.703125 265.664062 L 271.976562 328.191406 C 265.960938 330.671875 259.117188 327.839844 256.523438 321.820312 C 254.042969 315.804688 256.875 308.84375 262.894531 306.367188 L 414.617188 243.835938 C 435.855469 235.105469 460.160156 244.542969 469.835938 265.542969 C 478.566406 284.539062 472.429688 306.957031 455.085938 318.871094 L 353.738281 388.128906 C 354.210938 400.515625 353.03125 426 337.929688 452.902344 C 321.058594 483.222656 291.445312 493.839844 278.820312 497.027344 L 268.792969 514.960938 C 267.257812 517.671875 264.664062 519.679688 261.714844 520.503906 C 260.652344 520.859375 259.589844 520.976562 258.527344 520.976562 Z M 258.644531 520.859375 " fill-opacity="1" fill-rule="nonzero"/><g clip-path="url(#e087c91672)"><path fill="#0339e8" d="M 263.484375 597.785156 L 242.835938 586.222656 L 273.746094 531.003906 L 90.402344 428.597656 L 59.492188 483.8125 L 38.84375 472.25 L 75.417969 406.769531 C 78.605469 401.105469 85.800781 398.984375 91.464844 402.167969 L 295.457031 516.140625 C 298.167969 517.671875 300.175781 520.269531 301 523.21875 C 301.828125 526.167969 301.472656 529.472656 299.9375 532.183594 L 263.363281 597.664062 Z M 263.484375 597.785156 " fill-opacity="1" fill-rule="nonzero"/></g><path fill="#0339e8" d="M 125.796875 494.667969 C 123.792969 494.667969 121.902344 494.195312 120.015625 493.132812 L 94.886719 479.09375 C 89.222656 475.90625 87.097656 468.710938 90.285156 463.046875 C 93.46875 457.382812 100.667969 455.261719 106.328125 458.445312 L 131.460938 472.484375 C 137.125 475.671875 139.246094 482.867188 136.0625 488.53125 C 133.9375 492.425781 129.925781 494.546875 125.796875 494.546875 Z M 125.796875 494.667969 " fill-opacity="1" fill-rule="nonzero"/></svg>