<svg xmlns="http://www.w3.org/2000/svg" xmlns:xlink="http://www.w3.org/1999/xlink" width="1587" zoomAndPan="magnify" viewBox="0 0 1190.25 1683.749949" height="2245" preserveAspectRatio="xMidYMid meet" version="1.0"><defs><clipPath id="94f7c502c1"><path d="M 0 0.40625 L 1189.5 0.40625 L 1189.5 1650 L 0 1650 Z M 0 0.40625 " clip-rule="nonzero"/></clipPath><clipPath id="0436843e28"><path d="M 0 0.40625 L 290 0.40625 L 290 68 L 0 68 Z M 0 0.40625 " clip-rule="nonzero"/></clipPath><clipPath id="2d239245f6"><path d="M 16 34 L 1173 34 L 1173 1649.367188 L 16 1649.367188 Z M 16 34 " clip-rule="nonzero"/></clipPath><clipPath id="f3c8ae375a"><rect x="0" width="1190" y="0" height="1650"/></clipPath></defs><g clip-path="url(#94f7c502c1)"><g transform="matrix(1, 0, 0, 1, 0, 0.000000000000081102)"><g clip-path="url(#f3c8ae375a)"><g clip-path="url(#0436843e28)"><path fill="#333333" d="M -295.753906 61.480469 C -290.039062 52.070312 -284.332031 43.257812 -278.628906 35.039062 C -278.339844 34.625 -277.984375 34.28125 -277.5625 34.011719 C -277.136719 33.738281 -276.679688 33.554688 -276.183594 33.46875 C -275.6875 33.378906 -275.191406 33.386719 -274.699219 33.492188 C -274.207031 33.601562 -273.753906 33.796875 -273.339844 34.085938 C -272.925781 34.371094 -272.582031 34.726562 -272.3125 35.152344 C -272.039062 35.574219 -271.855469 36.035156 -271.765625 36.53125 C -271.679688 37.027344 -271.6875 37.523438 -271.792969 38.015625 C -271.902344 38.507812 -272.097656 38.960938 -272.386719 39.375 C -278 47.464844 -283.625 56.148438 -289.257812 65.425781 C -289.519531 65.855469 -289.855469 66.21875 -290.261719 66.519531 C -290.667969 66.816406 -291.117188 67.023438 -291.605469 67.144531 C -292.09375 67.265625 -292.589844 67.285156 -293.085938 67.207031 C -293.585938 67.132812 -294.050781 66.960938 -294.480469 66.699219 C -294.910156 66.4375 -295.273438 66.105469 -295.574219 65.699219 C -295.871094 65.292969 -296.078125 64.84375 -296.199219 64.355469 C -296.316406 63.863281 -296.339844 63.371094 -296.261719 62.871094 C -296.1875 62.375 -296.015625 61.910156 -295.753906 61.480469 Z M -249.378906 -1.941406 C -241.6875 -10.304688 -234.003906 -17.574219 -226.332031 -23.753906 C -225.9375 -24.066406 -225.5 -24.296875 -225.015625 -24.4375 C -224.535156 -24.582031 -224.039062 -24.625 -223.539062 -24.570312 C -223.039062 -24.515625 -222.566406 -24.367188 -222.125 -24.125 C -221.683594 -23.882812 -221.304688 -23.566406 -220.988281 -23.175781 C -220.671875 -22.78125 -220.441406 -22.34375 -220.300781 -21.859375 C -220.160156 -21.375 -220.117188 -20.882812 -220.171875 -20.382812 C -220.222656 -19.882812 -220.371094 -19.410156 -220.613281 -18.96875 C -220.855469 -18.527344 -221.171875 -18.148438 -221.566406 -17.832031 C -228.941406 -11.890625 -236.347656 -4.878906 -243.785156 3.203125 C -244.128906 3.574219 -244.527344 3.867188 -244.984375 4.078125 C -245.441406 4.289062 -245.921875 4.40625 -246.425781 4.425781 C -246.929688 4.449219 -247.417969 4.371094 -247.890625 4.199219 C -248.363281 4.027344 -248.785156 3.769531 -249.15625 3.425781 C -249.527344 3.085938 -249.816406 2.6875 -250.03125 2.230469 C -250.242188 1.773438 -250.359375 1.292969 -250.378906 0.789062 C -250.402344 0.285156 -250.324219 -0.203125 -250.152344 -0.675781 C -249.976562 -1.148438 -249.71875 -1.574219 -249.378906 -1.941406 Z M -184.15625 -46.742188 C -176.261719 -48.984375 -168.367188 -50.074219 -160.46875 -50.003906 C -157.597656 -49.976562 -154.761719 -49.796875 -151.960938 -49.464844 C -151.460938 -49.40625 -150.992188 -49.253906 -150.550781 -49.007812 C -150.113281 -48.761719 -149.734375 -48.441406 -149.425781 -48.042969 C -149.113281 -47.648438 -148.886719 -47.207031 -148.75 -46.722656 C -148.613281 -46.238281 -148.574219 -45.746094 -148.636719 -45.242188 C -148.695312 -44.742188 -148.847656 -44.273438 -149.09375 -43.832031 C -149.339844 -43.394531 -149.660156 -43.019531 -150.058594 -42.707031 C -150.453125 -42.394531 -150.894531 -42.171875 -151.378906 -42.035156 C -151.863281 -41.898438 -152.355469 -41.859375 -152.855469 -41.917969 C -155.378906 -42.214844 -157.941406 -42.378906 -160.535156 -42.402344 C -167.703125 -42.464844 -174.882812 -41.476562 -182.078125 -39.429688 C -182.5625 -39.292969 -183.054688 -39.25 -183.554688 -39.308594 C -184.054688 -39.367188 -184.527344 -39.519531 -184.96875 -39.765625 C -185.40625 -40.011719 -185.785156 -40.332031 -186.097656 -40.726562 C -186.410156 -41.121094 -186.632812 -41.5625 -186.773438 -42.046875 C -186.910156 -42.53125 -186.949219 -43.023438 -186.890625 -43.523438 C -186.832031 -44.023438 -186.683594 -44.496094 -186.4375 -44.933594 C -186.191406 -45.375 -185.871094 -45.75 -185.476562 -46.066406 C -185.082031 -46.378906 -184.640625 -46.601562 -184.15625 -46.742188 Z M -107.589844 -31.273438 C -106.265625 -30.433594 -104.285156 -29.160156 -101.648438 -27.453125 C -92.847656 -21.757812 -86.074219 -17.652344 -81.328125 -15.136719 C -80.882812 -14.898438 -80.5 -14.585938 -80.179688 -14.199219 C -79.859375 -13.808594 -79.625 -13.375 -79.476562 -12.894531 C -79.328125 -12.410156 -79.277344 -11.917969 -79.328125 -11.417969 C -79.375 -10.917969 -79.515625 -10.441406 -79.753906 -9.996094 C -79.988281 -9.550781 -80.300781 -9.167969 -80.6875 -8.847656 C -81.078125 -8.527344 -81.511719 -8.292969 -81.996094 -8.144531 C -82.476562 -7.996094 -82.96875 -7.945312 -83.46875 -7.996094 C -83.972656 -8.042969 -84.445312 -8.183594 -84.890625 -8.421875 C -89.828125 -11.042969 -96.792969 -15.257812 -105.773438 -21.070312 C -108.394531 -22.765625 -110.359375 -24.027344 -111.664062 -24.859375 C -112.089844 -25.128906 -112.449219 -25.46875 -112.738281 -25.882812 C -113.027344 -26.296875 -113.226562 -26.746094 -113.335938 -27.238281 C -113.445312 -27.730469 -113.457031 -28.226562 -113.371094 -28.722656 C -113.285156 -29.21875 -113.105469 -29.679688 -112.835938 -30.105469 C -112.566406 -30.53125 -112.222656 -30.886719 -111.8125 -31.175781 C -111.398438 -31.46875 -110.945312 -31.667969 -110.453125 -31.777344 C -109.960938 -31.886719 -109.46875 -31.898438 -108.972656 -31.808594 C -108.476562 -31.722656 -108.015625 -31.542969 -107.589844 -31.273438 Z M -38.363281 -2.984375 C -35.839844 -2.871094 -33.277344 -2.855469 -30.671875 -2.925781 C -23.3125 -3.132812 -15.855469 -4.058594 -8.296875 -5.703125 C -7.804688 -5.8125 -7.3125 -5.820312 -6.816406 -5.730469 C -6.320312 -5.640625 -5.859375 -5.460938 -5.433594 -5.1875 C -5.011719 -4.914062 -4.65625 -4.574219 -4.367188 -4.160156 C -4.082031 -3.746094 -3.882812 -3.292969 -3.777344 -2.800781 C -3.667969 -2.304688 -3.660156 -1.8125 -3.75 -1.316406 C -3.839844 -0.820312 -4.019531 -0.359375 -4.292969 0.0625 C -4.566406 0.488281 -4.910156 0.84375 -5.320312 1.132812 C -5.734375 1.417969 -6.1875 1.617188 -6.683594 1.722656 C -14.699219 3.46875 -22.625 4.453125 -30.460938 4.671875 C -33.246094 4.75 -35.992188 4.730469 -38.695312 4.609375 C -39.199219 4.589844 -39.679688 4.472656 -40.136719 4.257812 C -40.59375 4.046875 -40.992188 3.753906 -41.332031 3.382812 C -41.671875 3.011719 -41.929688 2.585938 -42.101562 2.113281 C -42.273438 1.640625 -42.347656 1.152344 -42.328125 0.648438 C -42.304688 0.144531 -42.1875 -0.335938 -41.972656 -0.792969 C -41.761719 -1.25 -41.46875 -1.648438 -41.097656 -1.988281 C -40.726562 -2.328125 -40.304688 -2.585938 -39.828125 -2.757812 C -39.355469 -2.929688 -38.867188 -3.003906 -38.363281 -2.984375 Z M 33.957031 -22.324219 C 42.746094 -27.40625 51.027344 -33.273438 58.796875 -39.929688 C 59.179688 -40.257812 59.613281 -40.5 60.089844 -40.65625 C 60.570312 -40.8125 61.0625 -40.871094 61.5625 -40.835938 C 62.066406 -40.796875 62.542969 -40.660156 62.992188 -40.433594 C 63.441406 -40.207031 63.828125 -39.898438 64.15625 -39.515625 C 64.484375 -39.132812 64.726562 -38.703125 64.882812 -38.222656 C 65.039062 -37.746094 65.097656 -37.253906 65.058594 -36.753906 C 65.019531 -36.25 64.886719 -35.773438 64.660156 -35.324219 C 64.429688 -34.875 64.125 -34.484375 63.742188 -34.15625 C 55.617188 -27.195312 46.957031 -21.058594 37.761719 -15.742188 C 37.324219 -15.492188 36.855469 -15.332031 36.355469 -15.265625 C 35.855469 -15.199219 35.363281 -15.234375 34.875 -15.363281 C 34.390625 -15.492188 33.945312 -15.710938 33.546875 -16.019531 C 33.144531 -16.324219 32.820312 -16.695312 32.570312 -17.132812 C 32.316406 -17.570312 32.15625 -18.039062 32.089844 -18.539062 C 32.027344 -19.039062 32.058594 -19.53125 32.1875 -20.015625 C 32.316406 -20.503906 32.535156 -20.949219 32.84375 -21.347656 C 33.148438 -21.746094 33.523438 -22.074219 33.957031 -22.324219 Z M 88.769531 -74.136719 C 92.628906 -80.1875 95.914062 -86.347656 98.617188 -92.625 C 99.867188 -95.527344 100.980469 -98.421875 101.953125 -101.300781 C 102.113281 -101.78125 102.359375 -102.207031 102.691406 -102.585938 C 103.023438 -102.96875 103.414062 -103.269531 103.863281 -103.492188 C 104.316406 -103.71875 104.792969 -103.847656 105.296875 -103.878906 C 105.800781 -103.914062 106.289062 -103.851562 106.765625 -103.6875 C 107.246094 -103.527344 107.671875 -103.28125 108.050781 -102.949219 C 108.433594 -102.617188 108.734375 -102.226562 108.957031 -101.777344 C 109.179688 -101.324219 109.308594 -100.847656 109.34375 -100.34375 C 109.378906 -99.839844 109.316406 -99.351562 109.152344 -98.875 C 108.117188 -95.796875 106.929688 -92.710938 105.597656 -89.613281 C 102.730469 -82.964844 99.253906 -76.441406 95.171875 -70.046875 C 94.902344 -69.621094 94.558594 -69.265625 94.148438 -68.976562 C 93.734375 -68.6875 93.28125 -68.488281 92.789062 -68.378906 C 92.296875 -68.273438 91.804688 -68.261719 91.308594 -68.351562 C 90.8125 -68.4375 90.351562 -68.617188 89.925781 -68.886719 C 89.5 -69.160156 89.144531 -69.503906 88.855469 -69.914062 C 88.566406 -70.328125 88.367188 -70.78125 88.261719 -71.273438 C 88.152344 -71.765625 88.140625 -72.257812 88.230469 -72.753906 C 88.316406 -73.253906 88.496094 -73.710938 88.769531 -74.136719 Z M 106.632812 -145.933594 C 106.324219 -149.375 105.71875 -154.421875 104.820312 -161.074219 C 103.871094 -168.105469 103.253906 -173.371094 102.972656 -176.863281 C 102.933594 -177.367188 102.992188 -177.859375 103.144531 -178.335938 C 103.300781 -178.816406 103.542969 -179.25 103.867188 -179.632812 C 104.195312 -180.015625 104.582031 -180.324219 105.03125 -180.550781 C 105.480469 -180.78125 105.957031 -180.917969 106.457031 -180.957031 C 106.960938 -180.996094 107.453125 -180.941406 107.929688 -180.785156 C 108.410156 -180.628906 108.84375 -180.390625 109.226562 -180.0625 C 109.609375 -179.734375 109.917969 -179.347656 110.144531 -178.898438 C 110.375 -178.449219 110.511719 -177.972656 110.550781 -177.472656 C 110.820312 -174.113281 111.421875 -168.988281 112.351562 -162.09375 C 113.265625 -155.328125 113.882812 -150.167969 114.203125 -146.613281 C 114.246094 -146.113281 114.195312 -145.621094 114.042969 -145.140625 C 113.894531 -144.65625 113.65625 -144.222656 113.335938 -143.835938 C 113.011719 -143.449219 112.628906 -143.140625 112.179688 -142.90625 C 111.734375 -142.671875 111.261719 -142.53125 110.757812 -142.488281 C 110.257812 -142.441406 109.765625 -142.496094 109.285156 -142.644531 C 108.804688 -142.796875 108.367188 -143.03125 107.980469 -143.355469 C 107.59375 -143.679688 107.285156 -144.0625 107.050781 -144.511719 C 106.816406 -144.957031 106.679688 -145.429688 106.632812 -145.933594 Z M 113.027344 -223.886719 C 118.421875 -232.714844 125.8125 -240.652344 135.210938 -247.699219 C 135.613281 -248 136.058594 -248.214844 136.546875 -248.339844 C 137.035156 -248.464844 137.527344 -248.492188 138.027344 -248.421875 C 138.527344 -248.351562 138.992188 -248.1875 139.425781 -247.929688 C 139.859375 -247.671875 140.226562 -247.34375 140.53125 -246.9375 C 140.832031 -246.535156 141.046875 -246.089844 141.171875 -245.601562 C 141.296875 -245.113281 141.324219 -244.621094 141.25 -244.121094 C 141.179688 -243.621094 141.015625 -243.15625 140.757812 -242.722656 C 140.503906 -242.289062 140.171875 -241.921875 139.769531 -241.617188 C 131.152344 -235.152344 124.398438 -227.921875 119.515625 -219.925781 C 119.253906 -219.496094 118.917969 -219.132812 118.511719 -218.835938 C 118.101562 -218.539062 117.652344 -218.332031 117.164062 -218.210938 C 116.675781 -218.09375 116.179688 -218.074219 115.683594 -218.152344 C 115.183594 -218.230469 114.722656 -218.402344 114.289062 -218.664062 C 113.859375 -218.925781 113.496094 -219.261719 113.199219 -219.667969 C 112.902344 -220.074219 112.695312 -220.523438 112.578125 -221.015625 C 112.460938 -221.503906 112.441406 -222 112.519531 -222.496094 C 112.597656 -222.996094 112.765625 -223.457031 113.027344 -223.886719 Z M 177.730469 -269.265625 C 186.988281 -272.480469 197.105469 -275.320312 208.082031 -277.796875 C 208.574219 -277.90625 209.066406 -277.917969 209.5625 -277.832031 C 210.058594 -277.746094 210.519531 -277.570312 210.945312 -277.300781 C 211.371094 -277.03125 211.730469 -276.691406 212.023438 -276.277344 C 212.3125 -275.867188 212.511719 -275.414062 212.625 -274.921875 C 212.734375 -274.433594 212.746094 -273.9375 212.660156 -273.441406 C 212.574219 -272.945312 212.398438 -272.484375 212.128906 -272.058594 C 211.859375 -271.628906 211.519531 -271.273438 211.105469 -270.980469 C 210.695312 -270.691406 210.242188 -270.492188 209.75 -270.378906 C 199.054688 -267.96875 189.210938 -265.203125 180.21875 -262.085938 C 179.742188 -261.917969 179.253906 -261.851562 178.75 -261.882812 C 178.246094 -261.910156 177.769531 -262.035156 177.316406 -262.253906 C 176.863281 -262.476562 176.46875 -262.773438 176.132812 -263.152344 C 175.800781 -263.527344 175.550781 -263.953125 175.382812 -264.429688 C 175.21875 -264.90625 175.152344 -265.394531 175.179688 -265.898438 C 175.210938 -266.402344 175.335938 -266.878906 175.554688 -267.332031 C 175.773438 -267.789062 176.074219 -268.179688 176.449219 -268.515625 C 176.828125 -268.851562 177.253906 -269.101562 177.730469 -269.265625 Z M 254.464844 -285.480469 C 264.425781 -286.636719 274.875 -287.582031 285.8125 -288.3125 C 286.316406 -288.347656 286.804688 -288.285156 287.285156 -288.121094 C 287.761719 -287.960938 288.1875 -287.714844 288.570312 -287.382812 C 288.949219 -287.050781 289.25 -286.660156 289.472656 -286.207031 C 289.695312 -285.753906 289.824219 -285.277344 289.859375 -284.777344 C 289.894531 -284.273438 289.828125 -283.78125 289.667969 -283.304688 C 289.507812 -282.828125 289.257812 -282.398438 288.929688 -282.019531 C 288.597656 -281.640625 288.203125 -281.339844 287.753906 -281.113281 C 287.300781 -280.890625 286.824219 -280.761719 286.320312 -280.730469 C 275.503906 -280.003906 265.175781 -279.070312 255.339844 -277.929688 C 254.839844 -277.871094 254.347656 -277.914062 253.863281 -278.050781 C 253.378906 -278.1875 252.9375 -278.414062 252.542969 -278.726562 C 252.148438 -279.039062 251.828125 -279.417969 251.582031 -279.855469 C 251.335938 -280.296875 251.1875 -280.765625 251.128906 -281.269531 C 251.070312 -281.769531 251.109375 -282.261719 251.246094 -282.746094 C 251.386719 -283.230469 251.609375 -283.671875 251.925781 -284.066406 C 252.238281 -284.460938 252.613281 -284.78125 253.054688 -285.027344 C 253.492188 -285.273438 253.964844 -285.421875 254.464844 -285.480469 Z M 254.464844 -285.480469 " fill-opacity="1" fill-rule="nonzero"/></g><g clip-path="url(#2d239245f6)"><path fill="#0339e8" d="M 594.746094 1649.230469 C 591.773438 1649.226562 588.832031 1648.917969 585.925781 1648.300781 C 583.015625 1647.683594 580.203125 1646.769531 577.488281 1645.5625 C 574.769531 1644.351562 572.207031 1642.875 569.800781 1641.128906 C 567.394531 1639.382812 565.195312 1637.40625 563.203125 1635.199219 C 540.84375 1610.460938 16.617188 1025.359375 16.617188 611.996094 C 16.621094 602.535156 16.855469 593.082031 17.324219 583.636719 C 17.789062 574.1875 18.488281 564.757812 19.417969 555.34375 C 20.347656 545.929688 21.507812 536.542969 22.902344 527.1875 C 24.292969 517.832031 25.910156 508.515625 27.757812 499.238281 C 29.605469 489.960938 31.683594 480.734375 33.984375 471.558594 C 36.285156 462.382812 38.808594 453.269531 41.558594 444.21875 C 44.304688 435.167969 47.273438 426.1875 50.464844 417.28125 C 53.652344 408.378906 57.058594 399.554688 60.679688 390.816406 C 64.304688 382.078125 68.136719 373.433594 72.183594 364.882812 C 76.230469 356.332031 80.484375 347.886719 84.945312 339.546875 C 89.40625 331.203125 94.070312 322.976562 98.933594 314.867188 C 103.800781 306.753906 108.859375 298.765625 114.117188 290.898438 C 119.375 283.035156 124.820312 275.304688 130.457031 267.710938 C 136.09375 260.113281 141.914062 252.660156 147.917969 245.347656 C 153.917969 238.035156 160.097656 230.875 166.453125 223.867188 C 172.804688 216.859375 179.328125 210.011719 186.015625 203.324219 C 192.707031 196.636719 199.558594 190.117188 206.566406 183.765625 C 213.578125 177.414062 220.738281 171.238281 228.050781 165.238281 C 235.363281 159.238281 242.820312 153.421875 250.417969 147.789062 C 258.019531 142.15625 265.75 136.710938 273.617188 131.457031 C 281.484375 126.203125 289.472656 121.144531 297.585938 116.28125 C 305.699219 111.421875 313.929688 106.757812 322.273438 102.300781 C 330.617188 97.84375 339.0625 93.59375 347.613281 89.546875 C 356.167969 85.503906 364.8125 81.671875 373.550781 78.054688 C 382.292969 74.433594 391.113281 71.03125 400.019531 67.847656 C 408.929688 64.660156 417.90625 61.695312 426.960938 58.949219 C 436.011719 56.203125 445.125 53.683594 454.300781 51.382812 C 463.476562 49.085938 472.707031 47.015625 481.984375 45.167969 C 491.261719 43.324219 500.578125 41.707031 509.933594 40.320312 C 519.292969 38.933594 528.679688 37.777344 538.09375 36.847656 C 547.503906 35.921875 556.9375 35.226562 566.386719 34.761719 C 575.832031 34.296875 585.285156 34.066406 594.746094 34.066406 C 604.207031 34.066406 613.660156 34.296875 623.105469 34.761719 C 632.554688 35.226562 641.988281 35.921875 651.398438 36.847656 C 660.8125 37.777344 670.199219 38.933594 679.558594 40.320312 C 688.914062 41.707031 698.230469 43.324219 707.507812 45.167969 C 716.785156 47.015625 726.015625 49.085938 735.191406 51.382812 C 744.367188 53.683594 753.480469 56.203125 762.53125 58.949219 C 771.585938 61.695312 780.5625 64.660156 789.472656 67.847656 C 798.378906 71.03125 807.199219 74.433594 815.941406 78.054688 C 824.679688 81.671875 833.324219 85.503906 841.878906 89.546875 C 850.429688 93.59375 858.875 97.84375 867.21875 102.300781 C 875.5625 106.757812 883.792969 111.421875 891.90625 116.28125 C 900.019531 121.144531 908.007812 126.203125 915.875 131.457031 C 923.742188 136.710938 931.472656 142.15625 939.074219 147.789062 C 946.671875 153.421875 954.128906 159.238281 961.441406 165.238281 C 968.753906 171.238281 975.914062 177.414062 982.925781 183.765625 C 989.933594 190.117188 996.785156 196.636719 1003.476562 203.324219 C 1010.164062 210.011719 1016.6875 216.859375 1023.039062 223.867188 C 1029.394531 230.875 1035.574219 238.035156 1041.574219 245.347656 C 1047.578125 252.660156 1053.398438 260.113281 1059.035156 267.710938 C 1064.671875 275.304688 1070.117188 283.035156 1075.375 290.902344 C 1080.632812 298.765625 1085.691406 306.753906 1090.558594 314.867188 C 1095.421875 322.976562 1100.085938 331.203125 1104.546875 339.546875 C 1109.007812 347.886719 1113.261719 356.332031 1117.308594 364.882812 C 1121.355469 373.433594 1125.1875 382.078125 1128.8125 390.816406 C 1132.433594 399.554688 1135.839844 408.378906 1139.027344 417.28125 C 1142.21875 426.1875 1145.1875 435.167969 1147.933594 444.21875 C 1150.683594 453.269531 1153.207031 462.382812 1155.507812 471.558594 C 1157.808594 480.734375 1159.886719 489.960938 1161.734375 499.238281 C 1163.582031 508.515625 1165.199219 517.832031 1166.59375 527.1875 C 1167.984375 536.542969 1169.144531 545.929688 1170.074219 555.34375 C 1171.003906 564.757812 1171.703125 574.1875 1172.171875 583.636719 C 1172.636719 593.082031 1172.871094 602.535156 1172.875 611.996094 C 1172.875 1025.359375 648.648438 1610.460938 626.289062 1635.199219 C 624.296875 1637.40625 622.097656 1639.382812 619.691406 1641.128906 C 617.285156 1642.875 614.722656 1644.351562 612.003906 1645.5625 C 609.289062 1646.769531 606.476562 1647.683594 603.566406 1648.300781 C 600.660156 1648.917969 597.71875 1649.226562 594.746094 1649.230469 Z M 594.746094 118.886719 C 586.679688 118.894531 578.617188 119.101562 570.558594 119.507812 C 562.5 119.914062 554.460938 120.515625 546.429688 121.3125 C 538.402344 122.113281 530.398438 123.109375 522.421875 124.300781 C 514.441406 125.492188 506.496094 126.878906 498.585938 128.457031 C 490.675781 130.039062 482.808594 131.8125 474.984375 133.78125 C 467.160156 135.746094 459.386719 137.90625 451.671875 140.253906 C 443.953125 142.601562 436.296875 145.136719 428.703125 147.859375 C 421.109375 150.582031 413.585938 153.488281 406.132812 156.582031 C 398.683594 159.671875 391.308594 162.945312 384.019531 166.398438 C 376.726562 169.851562 369.527344 173.480469 362.414062 177.285156 C 355.300781 181.09375 348.285156 185.070312 341.367188 189.222656 C 334.449219 193.371094 327.636719 197.6875 320.929688 202.171875 C 314.222656 206.65625 307.628906 211.300781 301.152344 216.109375 C 294.671875 220.917969 288.316406 225.878906 282.078125 231 C 275.84375 236.117188 269.738281 241.386719 263.761719 246.804688 C 257.785156 252.222656 251.941406 257.785156 246.238281 263.488281 C 240.535156 269.191406 234.972656 275.035156 229.554688 281.011719 C 224.136719 286.988281 218.867188 293.09375 213.75 299.328125 C 208.628906 305.566406 203.667969 311.921875 198.859375 318.402344 C 194.050781 324.878906 189.40625 331.472656 184.921875 338.179688 C 180.4375 344.886719 176.121094 351.699219 171.972656 358.617188 C 167.820312 365.535156 163.84375 372.550781 160.035156 379.664062 C 156.230469 386.777344 152.601562 393.976562 149.148438 401.269531 C 145.695312 408.558594 142.421875 415.933594 139.332031 423.382812 C 136.238281 430.835938 133.332031 438.359375 130.609375 445.953125 C 127.886719 453.546875 125.351562 461.203125 123.003906 468.921875 C 120.65625 476.636719 118.496094 484.410156 116.53125 492.234375 C 114.5625 500.058594 112.789062 507.925781 111.207031 515.835938 C 109.628906 523.746094 108.242188 531.691406 107.050781 539.671875 C 105.859375 547.648438 104.863281 555.652344 104.0625 563.679688 C 103.265625 571.710938 102.664062 579.75 102.257812 587.808594 C 101.851562 595.867188 101.644531 603.929688 101.636719 611.996094 C 101.636719 937.449219 481.414062 1408.453125 594.746094 1541.847656 C 708.078125 1408.453125 1087.855469 937.449219 1087.855469 611.996094 C 1087.847656 603.929688 1087.640625 595.867188 1087.234375 587.808594 C 1086.828125 579.75 1086.226562 571.710938 1085.429688 563.679688 C 1084.628906 555.652344 1083.632812 547.648438 1082.441406 539.671875 C 1081.25 531.691406 1079.863281 523.746094 1078.285156 515.835938 C 1076.703125 507.925781 1074.929688 500.058594 1072.960938 492.234375 C 1070.996094 484.410156 1068.835938 476.636719 1066.488281 468.921875 C 1064.140625 461.203125 1061.605469 453.546875 1058.882812 445.953125 C 1056.160156 438.355469 1053.253906 430.835938 1050.160156 423.382812 C 1047.070312 415.929688 1043.796875 408.558594 1040.34375 401.269531 C 1036.890625 393.976562 1033.261719 386.777344 1029.457031 379.664062 C 1025.648438 372.550781 1021.671875 365.535156 1017.519531 358.617188 C 1013.371094 351.699219 1009.054688 344.886719 1004.570312 338.179688 C 1000.085938 331.472656 995.441406 324.878906 990.632812 318.402344 C 985.824219 311.921875 980.863281 305.566406 975.742188 299.328125 C 970.625 293.09375 965.355469 286.988281 959.9375 281.011719 C 954.519531 275.035156 948.957031 269.191406 943.253906 263.488281 C 937.550781 257.785156 931.707031 252.222656 925.730469 246.804688 C 919.753906 241.386719 913.648438 236.117188 907.414062 231 C 901.175781 225.878906 894.820312 220.917969 888.339844 216.109375 C 881.863281 211.300781 875.269531 206.65625 868.5625 202.171875 C 861.855469 197.6875 855.042969 193.371094 848.125 189.222656 C 841.207031 185.070312 834.191406 181.09375 827.078125 177.285156 C 819.964844 173.480469 812.765625 169.851562 805.472656 166.398438 C 798.183594 162.945312 790.808594 159.671875 783.359375 156.582031 C 775.90625 153.488281 768.382812 150.582031 760.789062 147.859375 C 753.195312 145.136719 745.539062 142.601562 737.820312 140.253906 C 730.105469 137.90625 722.332031 135.746094 714.507812 133.78125 C 706.683594 131.8125 698.816406 130.039062 690.90625 128.457031 C 682.996094 126.878906 675.050781 125.492188 667.070312 124.300781 C 659.09375 123.109375 651.089844 122.113281 643.0625 121.3125 C 635.03125 120.515625 626.992188 119.914062 618.933594 119.507812 C 610.875 119.101562 602.8125 118.894531 594.746094 118.886719 Z M 594.746094 845.796875 C 590.917969 845.796875 587.097656 845.703125 583.273438 845.515625 C 579.453125 845.328125 575.636719 845.046875 571.828125 844.671875 C 568.023438 844.296875 564.226562 843.828125 560.441406 843.269531 C 556.65625 842.707031 552.886719 842.050781 549.132812 841.304688 C 545.378906 840.558594 541.648438 839.722656 537.9375 838.792969 C 534.226562 837.863281 530.539062 836.84375 526.875 835.730469 C 523.214844 834.621094 519.582031 833.421875 515.980469 832.132812 C 512.378906 830.84375 508.808594 829.464844 505.273438 828 C 501.738281 826.535156 498.242188 824.988281 494.78125 823.351562 C 491.324219 821.714844 487.90625 819.996094 484.53125 818.191406 C 481.15625 816.386719 477.828125 814.503906 474.546875 812.535156 C 471.265625 810.566406 468.035156 808.519531 464.851562 806.394531 C 461.671875 804.269531 458.542969 802.066406 455.46875 799.789062 C 452.398438 797.507812 449.382812 795.15625 446.421875 792.726562 C 443.464844 790.300781 440.570312 787.800781 437.734375 785.230469 C 434.898438 782.664062 432.128906 780.023438 429.421875 777.320312 C 426.71875 774.613281 424.078125 771.84375 421.511719 769.007812 C 418.941406 766.171875 416.441406 763.277344 414.015625 760.320312 C 411.585938 757.359375 409.234375 754.34375 406.953125 751.273438 C 404.675781 748.199219 402.472656 745.070312 400.347656 741.890625 C 398.21875 738.707031 396.175781 735.476562 394.207031 732.195312 C 392.238281 728.914062 390.355469 725.585938 388.550781 722.210938 C 386.746094 718.835938 385.027344 715.417969 383.390625 711.960938 C 381.753906 708.5 380.207031 705.003906 378.742188 701.46875 C 377.277344 697.933594 375.898438 694.363281 374.609375 690.761719 C 373.320312 687.160156 372.121094 683.527344 371.011719 679.867188 C 369.902344 676.203125 368.878906 672.515625 367.949219 668.804688 C 367.019531 665.09375 366.183594 661.363281 365.4375 657.609375 C 364.691406 653.855469 364.035156 650.085938 363.472656 646.300781 C 362.914062 642.515625 362.445312 638.71875 362.070312 634.914062 C 361.695312 631.105469 361.414062 627.289062 361.226562 623.46875 C 361.039062 619.648438 360.945312 615.824219 360.945312 611.996094 C 360.945312 608.167969 361.039062 604.347656 361.226562 600.523438 C 361.414062 596.703125 361.695312 592.886719 362.070312 589.078125 C 362.445312 585.273438 362.914062 581.476562 363.472656 577.691406 C 364.035156 573.90625 364.691406 570.136719 365.4375 566.382812 C 366.183594 562.628906 367.019531 558.898438 367.949219 555.1875 C 368.878906 551.476562 369.902344 547.789062 371.011719 544.125 C 372.121094 540.464844 373.320312 536.832031 374.609375 533.230469 C 375.898438 529.628906 377.277344 526.058594 378.742188 522.523438 C 380.203125 518.988281 381.753906 515.492188 383.390625 512.03125 C 385.027344 508.574219 386.746094 505.15625 388.550781 501.78125 C 390.355469 498.40625 392.238281 495.078125 394.207031 491.796875 C 396.175781 488.515625 398.21875 485.285156 400.347656 482.101562 C 402.472656 478.921875 404.675781 475.792969 406.953125 472.71875 C 409.234375 469.648438 411.585938 466.632812 414.015625 463.671875 C 416.441406 460.714844 418.941406 457.820312 421.511719 454.984375 C 424.078125 452.148438 426.71875 449.378906 429.421875 446.671875 C 432.128906 443.96875 434.898438 441.328125 437.734375 438.761719 C 440.570312 436.191406 443.464844 433.691406 446.421875 431.265625 C 449.382812 428.835938 452.398438 426.484375 455.46875 424.203125 C 458.542969 421.925781 461.671875 419.722656 464.851562 417.597656 C 468.035156 415.46875 471.265625 413.425781 474.546875 411.457031 C 477.828125 409.488281 481.15625 407.605469 484.53125 405.800781 C 487.90625 403.996094 491.324219 402.277344 494.78125 400.640625 C 498.242188 399.003906 501.738281 397.457031 505.273438 395.992188 C 508.808594 394.527344 512.378906 393.148438 515.980469 391.859375 C 519.582031 390.570312 523.214844 389.371094 526.875 388.261719 C 530.539062 387.152344 534.226562 386.128906 537.9375 385.199219 C 541.648438 384.269531 545.378906 383.433594 549.132812 382.6875 C 552.886719 381.941406 556.65625 381.285156 560.441406 380.722656 C 564.226562 380.164062 568.023438 379.695312 571.828125 379.320312 C 575.636719 378.945312 579.453125 378.664062 583.273438 378.476562 C 587.097656 378.289062 590.917969 378.195312 594.746094 378.195312 C 598.574219 378.195312 602.398438 378.289062 606.21875 378.476562 C 610.039062 378.664062 613.855469 378.945312 617.664062 379.320312 C 621.472656 379.695312 625.265625 380.164062 629.050781 380.722656 C 632.835938 381.285156 636.605469 381.941406 640.359375 382.6875 C 644.113281 383.433594 647.84375 384.269531 651.554688 385.199219 C 655.265625 386.128906 658.953125 387.148438 662.617188 388.261719 C 666.277344 389.371094 669.910156 390.570312 673.511719 391.859375 C 677.113281 393.148438 680.683594 394.527344 684.21875 395.992188 C 687.753906 397.453125 691.25 399.003906 694.710938 400.640625 C 698.167969 402.277344 701.585938 403.996094 704.960938 405.800781 C 708.335938 407.605469 711.664062 409.488281 714.945312 411.457031 C 718.226562 413.425781 721.457031 415.46875 724.640625 417.597656 C 727.820312 419.722656 730.949219 421.925781 734.023438 424.203125 C 737.09375 426.484375 740.109375 428.835938 743.070312 431.265625 C 746.027344 433.691406 748.921875 436.191406 751.757812 438.761719 C 754.59375 441.328125 757.363281 443.96875 760.070312 446.671875 C 762.773438 449.378906 765.414062 452.148438 767.980469 454.984375 C 770.550781 457.820312 773.050781 460.714844 775.476562 463.671875 C 777.90625 466.632812 780.257812 469.648438 782.539062 472.71875 C 784.816406 475.792969 787.019531 478.921875 789.144531 482.101562 C 791.269531 485.285156 793.316406 488.515625 795.285156 491.796875 C 797.253906 495.078125 799.136719 498.40625 800.941406 501.78125 C 802.746094 505.15625 804.464844 508.574219 806.101562 512.03125 C 807.738281 515.492188 809.285156 518.988281 810.75 522.523438 C 812.214844 526.058594 813.59375 529.628906 814.882812 533.230469 C 816.171875 536.832031 817.371094 540.464844 818.480469 544.125 C 819.59375 547.789062 820.613281 551.476562 821.542969 555.1875 C 822.472656 558.898438 823.308594 562.628906 824.054688 566.382812 C 824.800781 570.136719 825.457031 573.90625 826.019531 577.691406 C 826.578125 581.476562 827.046875 585.273438 827.421875 589.078125 C 827.796875 592.886719 828.078125 596.703125 828.265625 600.523438 C 828.453125 604.347656 828.546875 608.167969 828.546875 611.996094 C 828.542969 615.820312 828.445312 619.644531 828.253906 623.464844 C 828.0625 627.285156 827.777344 631.097656 827.398438 634.90625 C 827.019531 638.710938 826.550781 642.507812 825.984375 646.289062 C 825.421875 650.074219 824.761719 653.839844 824.015625 657.589844 C 823.265625 661.34375 822.421875 665.074219 821.492188 668.78125 C 820.558594 672.492188 819.535156 676.175781 818.425781 679.835938 C 817.3125 683.496094 816.109375 687.125 814.816406 690.726562 C 813.527344 694.328125 812.148438 697.894531 810.683594 701.429688 C 809.21875 704.960938 807.664062 708.457031 806.027344 711.914062 C 804.390625 715.371094 802.671875 718.785156 800.867188 722.160156 C 799.0625 725.53125 797.175781 728.859375 795.207031 732.140625 C 793.242188 735.417969 791.195312 738.648438 789.066406 741.828125 C 786.941406 745.007812 784.738281 748.136719 782.460938 751.207031 C 780.179688 754.28125 777.828125 757.292969 775.398438 760.25 C 772.972656 763.207031 770.472656 766.101562 767.90625 768.9375 C 765.335938 771.769531 762.699219 774.539062 759.996094 777.246094 C 757.289062 779.949219 754.519531 782.585938 751.6875 785.15625 C 748.851562 787.722656 745.957031 790.222656 743 792.648438 C 740.042969 795.078125 737.03125 797.429688 733.957031 799.710938 C 730.886719 801.988281 727.757812 804.191406 724.578125 806.316406 C 721.398438 808.445312 718.167969 810.492188 714.890625 812.457031 C 711.609375 814.425781 708.28125 816.3125 704.910156 818.117188 C 701.535156 819.921875 698.121094 821.640625 694.664062 823.277344 C 691.207031 824.914062 687.710938 826.46875 684.179688 827.933594 C 680.644531 829.398438 677.078125 830.777344 673.476562 832.066406 C 669.875 833.359375 666.246094 834.5625 662.585938 835.675781 C 658.925781 836.785156 655.242188 837.808594 651.53125 838.742188 C 647.824219 839.671875 644.09375 840.515625 640.339844 841.265625 C 636.589844 842.011719 632.824219 842.671875 629.039062 843.234375 C 625.257812 843.800781 621.460938 844.269531 617.65625 844.648438 C 613.847656 845.027344 610.035156 845.3125 606.214844 845.503906 C 602.394531 845.695312 598.570312 845.792969 594.746094 845.796875 Z M 594.746094 463.210938 C 592.3125 463.210938 589.878906 463.273438 587.445312 463.390625 C 585.015625 463.511719 582.585938 463.691406 580.164062 463.929688 C 577.738281 464.167969 575.324219 464.464844 572.914062 464.824219 C 570.507812 465.179688 568.109375 465.597656 565.71875 466.070312 C 563.332031 466.546875 560.957031 467.078125 558.59375 467.671875 C 556.234375 468.261719 553.886719 468.914062 551.554688 469.621094 C 549.226562 470.328125 546.914062 471.089844 544.621094 471.910156 C 542.328125 472.730469 540.058594 473.605469 537.808594 474.539062 C 535.558594 475.46875 533.335938 476.457031 531.132812 477.496094 C 528.933594 478.539062 526.757812 479.632812 524.609375 480.78125 C 522.460938 481.929688 520.34375 483.128906 518.257812 484.378906 C 516.167969 485.632812 514.109375 486.933594 512.085938 488.289062 C 510.0625 489.640625 508.070312 491.042969 506.117188 492.492188 C 504.160156 493.941406 502.242188 495.441406 500.359375 496.984375 C 498.476562 498.53125 496.632812 500.121094 494.828125 501.753906 C 493.023438 503.390625 491.261719 505.070312 489.539062 506.789062 C 487.820312 508.511719 486.140625 510.273438 484.503906 512.078125 C 482.871094 513.882812 481.28125 515.726562 479.734375 517.609375 C 478.191406 519.492188 476.691406 521.410156 475.242188 523.367188 C 473.792969 525.320312 472.390625 527.3125 471.039062 529.335938 C 469.683594 531.359375 468.382812 533.417969 467.128906 535.507812 C 465.878906 537.59375 464.679688 539.710938 463.53125 541.859375 C 462.382812 544.007812 461.289062 546.183594 460.246094 548.382812 C 459.207031 550.585938 458.21875 552.808594 457.289062 555.058594 C 456.355469 557.308594 455.480469 559.578125 454.660156 561.871094 C 453.839844 564.164062 453.074219 566.476562 452.371094 568.804688 C 451.664062 571.136719 451.011719 573.484375 450.421875 575.84375 C 449.828125 578.207031 449.296875 580.582031 448.820312 582.96875 C 448.347656 585.359375 447.929688 587.757812 447.574219 590.164062 C 447.214844 592.574219 446.917969 594.988281 446.679688 597.414062 C 446.441406 599.835938 446.261719 602.261719 446.140625 604.695312 C 446.023438 607.128906 445.960938 609.5625 445.960938 611.996094 C 445.960938 614.429688 446.023438 616.863281 446.140625 619.296875 C 446.261719 621.730469 446.441406 624.15625 446.679688 626.578125 C 446.917969 629.003906 447.214844 631.417969 447.574219 633.828125 C 447.929688 636.234375 448.347656 638.632812 448.820312 641.023438 C 449.296875 643.410156 449.828125 645.785156 450.421875 648.148438 C 451.011719 650.507812 451.664062 652.855469 452.371094 655.1875 C 453.074219 657.515625 453.839844 659.828125 454.660156 662.121094 C 455.480469 664.414062 456.355469 666.683594 457.289062 668.933594 C 458.21875 671.183594 459.207031 673.40625 460.246094 675.609375 C 461.289062 677.808594 462.382812 679.984375 463.53125 682.132812 C 464.679688 684.28125 465.878906 686.398438 467.128906 688.484375 C 468.382812 690.574219 469.683594 692.632812 471.039062 694.65625 C 472.390625 696.679688 473.792969 698.671875 475.242188 700.625 C 476.691406 702.582031 478.191406 704.5 479.734375 706.382812 C 481.28125 708.265625 482.871094 710.109375 484.503906 711.914062 C 486.140625 713.71875 487.820312 715.480469 489.539062 717.203125 C 491.261719 718.921875 493.023438 720.601562 494.828125 722.238281 C 496.632812 723.871094 498.476562 725.460938 500.359375 727.007812 C 502.242188 728.550781 504.160156 730.050781 506.117188 731.5 C 508.070312 732.949219 510.0625 734.351562 512.085938 735.703125 C 514.109375 737.058594 516.167969 738.359375 518.257812 739.613281 C 520.34375 740.863281 522.460938 742.0625 524.609375 743.210938 C 526.757812 744.359375 528.933594 745.453125 531.132812 746.496094 C 533.335938 747.535156 535.558594 748.523438 537.808594 749.453125 C 540.058594 750.386719 542.328125 751.261719 544.621094 752.082031 C 546.914062 752.902344 549.226562 753.667969 551.554688 754.371094 C 553.886719 755.078125 556.234375 755.730469 558.59375 756.320312 C 560.957031 756.910156 563.332031 757.445312 565.71875 757.921875 C 568.109375 758.394531 570.507812 758.8125 572.914062 759.167969 C 575.324219 759.527344 577.738281 759.824219 580.164062 760.0625 C 582.585938 760.300781 585.015625 760.480469 587.445312 760.601562 C 589.878906 760.71875 592.3125 760.78125 594.746094 760.78125 C 597.179688 760.78125 599.613281 760.71875 602.046875 760.601562 C 604.480469 760.480469 606.90625 760.300781 609.328125 760.0625 C 611.753906 759.824219 614.167969 759.527344 616.578125 759.167969 C 618.984375 758.8125 621.382812 758.394531 623.773438 757.921875 C 626.160156 757.445312 628.535156 756.910156 630.898438 756.320312 C 633.257812 755.730469 635.605469 755.078125 637.9375 754.371094 C 640.265625 753.667969 642.578125 752.902344 644.871094 752.082031 C 647.164062 751.261719 649.433594 750.386719 651.683594 749.453125 C 653.933594 748.523438 656.15625 747.535156 658.359375 746.496094 C 660.558594 745.453125 662.734375 744.359375 664.882812 743.210938 C 667.03125 742.0625 669.148438 740.863281 671.234375 739.613281 C 673.324219 738.359375 675.382812 737.058594 677.40625 735.703125 C 679.429688 734.351562 681.421875 732.949219 683.375 731.5 C 685.332031 730.050781 687.25 728.550781 689.132812 727.007812 C 691.015625 725.460938 692.859375 723.871094 694.664062 722.238281 C 696.46875 720.601562 698.230469 718.921875 699.953125 717.203125 C 701.671875 715.480469 703.351562 713.71875 704.988281 711.914062 C 706.621094 710.109375 708.210938 708.265625 709.757812 706.382812 C 711.300781 704.5 712.800781 702.582031 714.25 700.625 C 715.699219 698.671875 717.101562 696.679688 718.453125 694.65625 C 719.808594 692.632812 721.109375 690.574219 722.363281 688.484375 C 723.613281 686.398438 724.8125 684.28125 725.960938 682.132812 C 727.109375 679.984375 728.203125 677.808594 729.246094 675.609375 C 730.285156 673.40625 731.273438 671.183594 732.203125 668.933594 C 733.136719 666.683594 734.011719 664.414062 734.832031 662.121094 C 735.652344 659.828125 736.417969 657.515625 737.121094 655.183594 C 737.828125 652.855469 738.480469 650.507812 739.070312 648.148438 C 739.664062 645.785156 740.195312 643.410156 740.671875 641.023438 C 741.144531 638.632812 741.5625 636.234375 741.917969 633.828125 C 742.277344 631.417969 742.574219 629.003906 742.8125 626.578125 C 743.050781 624.15625 743.230469 621.730469 743.351562 619.296875 C 743.46875 616.863281 743.53125 614.429688 743.53125 611.996094 C 743.527344 609.5625 743.464844 607.128906 743.34375 604.699219 C 743.21875 602.265625 743.039062 599.839844 742.796875 597.417969 C 742.554688 594.996094 742.257812 592.582031 741.898438 590.171875 C 741.539062 587.765625 741.121094 585.367188 740.640625 582.980469 C 740.164062 580.59375 739.628906 578.21875 739.039062 575.859375 C 738.445312 573.5 737.792969 571.15625 737.085938 568.824219 C 736.375 566.496094 735.613281 564.1875 734.789062 561.894531 C 733.96875 559.605469 733.089844 557.332031 732.160156 555.085938 C 731.226562 552.835938 730.238281 550.613281 729.195312 548.414062 C 728.15625 546.214844 727.058594 544.039062 725.910156 541.894531 C 724.761719 539.746094 723.5625 537.628906 722.308594 535.542969 C 721.058594 533.457031 719.753906 531.398438 718.402344 529.375 C 717.050781 527.351562 715.648438 525.363281 714.199219 523.410156 C 712.746094 521.453125 711.25 519.535156 709.707031 517.65625 C 708.160156 515.773438 706.570312 513.929688 704.9375 512.128906 C 703.300781 510.324219 701.625 508.5625 699.902344 506.839844 C 698.179688 505.117188 696.417969 503.441406 694.613281 501.804688 C 692.8125 500.171875 690.96875 498.582031 689.085938 497.035156 C 687.207031 495.492188 685.289062 493.996094 683.332031 492.542969 C 681.378906 491.09375 679.390625 489.691406 677.367188 488.339844 C 675.34375 486.988281 673.285156 485.683594 671.199219 484.433594 C 669.113281 483.179688 666.996094 481.980469 664.847656 480.832031 C 662.703125 479.683594 660.527344 478.585938 658.328125 477.546875 C 656.128906 476.503906 653.90625 475.515625 651.65625 474.582031 C 649.410156 473.652344 647.136719 472.773438 644.847656 471.953125 C 642.554688 471.128906 640.246094 470.367188 637.917969 469.65625 C 635.585938 468.949219 633.242188 468.296875 630.882812 467.703125 C 628.519531 467.113281 626.148438 466.578125 623.761719 466.101562 C 621.375 465.621094 618.976562 465.203125 616.570312 464.84375 C 614.160156 464.484375 611.746094 464.1875 609.324219 463.945312 C 606.902344 463.703125 604.476562 463.523438 602.042969 463.398438 C 599.613281 463.277344 597.179688 463.214844 594.746094 463.210938 Z M 594.746094 463.210938 " fill-opacity="1" fill-rule="nonzero"/></g></g></g></g></svg>