<svg xmlns="http://www.w3.org/2000/svg" xmlns:xlink="http://www.w3.org/1999/xlink" width="1587" zoomAndPan="magnify" viewBox="0 0 1190.25 1683.749949" height="2245" preserveAspectRatio="xMidYMid meet" version="1.0"><defs><clipPath id="f52cee2ddd"><path d="M 0 0.40625 L 1189.5 0.40625 L 1189.5 1429 L 0 1429 Z M 0 0.40625 " clip-rule="nonzero"/></clipPath><clipPath id="48ad41930b"><path d="M 0 0.40625 L 290 0.40625 L 290 68 L 0 68 Z M 0 0.40625 " clip-rule="nonzero"/></clipPath><clipPath id="a641e8c525"><path d="M 0 255.476562 L 1189.199219 255.476562 L 1189.199219 1427.441406 L 0 1427.441406 Z M 0 255.476562 " clip-rule="nonzero"/></clipPath><clipPath id="7bc11a2e7f"><rect x="0" width="1190" y="0" height="1429"/></clipPath></defs><g clip-path="url(#f52cee2ddd)"><g transform="matrix(1, 0, 0, 1, 0, 0.000000000000081102)"><g clip-path="url(#7bc11a2e7f)"><g clip-path="url(#48ad41930b)"><path fill="#333333" d="M -295.753906 61.480469 C -290.039062 52.070312 -284.332031 43.257812 -278.628906 35.039062 C -278.339844 34.625 -277.984375 34.28125 -277.5625 34.011719 C -277.136719 33.738281 -276.679688 33.554688 -276.183594 33.46875 C -275.6875 33.378906 -275.191406 33.386719 -274.699219 33.492188 C -274.207031 33.601562 -273.753906 33.796875 -273.339844 34.085938 C -272.925781 34.371094 -272.582031 34.726562 -272.3125 35.152344 C -272.039062 35.574219 -271.855469 36.035156 -271.765625 36.53125 C -271.679688 37.027344 -271.6875 37.523438 -271.792969 38.015625 C -271.902344 38.507812 -272.097656 38.960938 -272.386719 39.375 C -278 47.464844 -283.625 56.148438 -289.257812 65.425781 C -289.519531 65.855469 -289.855469 66.21875 -290.261719 66.519531 C -290.667969 66.816406 -291.117188 67.023438 -291.605469 67.144531 C -292.09375 67.265625 -292.589844 67.285156 -293.085938 67.207031 C -293.585938 67.132812 -294.050781 66.960938 -294.480469 66.699219 C -294.910156 66.4375 -295.273438 66.105469 -295.574219 65.699219 C -295.871094 65.292969 -296.078125 64.84375 -296.199219 64.355469 C -296.316406 63.863281 -296.339844 63.371094 -296.261719 62.871094 C -296.1875 62.375 -296.015625 61.910156 -295.753906 61.480469 Z M -249.378906 -1.941406 C -241.6875 -10.304688 -234.003906 -17.574219 -226.332031 -23.753906 C -225.9375 -24.066406 -225.5 -24.296875 -225.015625 -24.4375 C -224.535156 -24.582031 -224.039062 -24.625 -223.539062 -24.570312 C -223.039062 -24.515625 -222.566406 -24.367188 -222.125 -24.125 C -221.683594 -23.882812 -221.304688 -23.566406 -220.988281 -23.175781 C -220.671875 -22.78125 -220.441406 -22.34375 -220.300781 -21.859375 C -220.160156 -21.375 -220.117188 -20.882812 -220.171875 -20.382812 C -220.222656 -19.882812 -220.371094 -19.410156 -220.613281 -18.96875 C -220.855469 -18.527344 -221.171875 -18.148438 -221.566406 -17.832031 C -228.941406 -11.890625 -236.347656 -4.878906 -243.785156 3.203125 C -244.128906 3.574219 -244.527344 3.867188 -244.984375 4.078125 C -245.441406 4.289062 -245.921875 4.40625 -246.425781 4.425781 C -246.929688 4.449219 -247.417969 4.371094 -247.890625 4.199219 C -248.363281 4.027344 -248.785156 3.769531 -249.15625 3.425781 C -249.527344 3.085938 -249.816406 2.6875 -250.03125 2.230469 C -250.242188 1.773438 -250.359375 1.292969 -250.378906 0.789062 C -250.402344 0.285156 -250.324219 -0.203125 -250.152344 -0.675781 C -249.976562 -1.148438 -249.71875 -1.574219 -249.378906 -1.941406 Z M -184.15625 -46.742188 C -176.261719 -48.984375 -168.367188 -50.074219 -160.46875 -50.003906 C -157.597656 -49.976562 -154.761719 -49.796875 -151.960938 -49.464844 C -151.460938 -49.40625 -150.992188 -49.253906 -150.550781 -49.007812 C -150.113281 -48.761719 -149.734375 -48.441406 -149.425781 -48.042969 C -149.113281 -47.648438 -148.886719 -47.207031 -148.75 -46.722656 C -148.613281 -46.238281 -148.574219 -45.746094 -148.636719 -45.242188 C -148.695312 -44.742188 -148.847656 -44.273438 -149.09375 -43.832031 C -149.339844 -43.394531 -149.660156 -43.019531 -150.058594 -42.707031 C -150.453125 -42.394531 -150.894531 -42.171875 -151.378906 -42.035156 C -151.863281 -41.898438 -152.355469 -41.859375 -152.855469 -41.917969 C -155.378906 -42.214844 -157.941406 -42.378906 -160.535156 -42.402344 C -167.703125 -42.464844 -174.882812 -41.476562 -182.078125 -39.429688 C -182.5625 -39.292969 -183.054688 -39.25 -183.554688 -39.308594 C -184.054688 -39.367188 -184.527344 -39.519531 -184.96875 -39.765625 C -185.40625 -40.011719 -185.785156 -40.332031 -186.097656 -40.726562 C -186.410156 -41.121094 -186.632812 -41.5625 -186.773438 -42.046875 C -186.910156 -42.53125 -186.949219 -43.023438 -186.890625 -43.523438 C -186.832031 -44.023438 -186.683594 -44.496094 -186.4375 -44.933594 C -186.191406 -45.375 -185.871094 -45.75 -185.476562 -46.066406 C -185.082031 -46.378906 -184.640625 -46.601562 -184.15625 -46.742188 Z M -107.589844 -31.273438 C -106.265625 -30.433594 -104.285156 -29.160156 -101.648438 -27.453125 C -92.847656 -21.757812 -86.074219 -17.652344 -81.328125 -15.136719 C -80.882812 -14.898438 -80.5 -14.585938 -80.179688 -14.199219 C -79.859375 -13.808594 -79.625 -13.375 -79.476562 -12.894531 C -79.328125 -12.410156 -79.277344 -11.917969 -79.328125 -11.417969 C -79.375 -10.917969 -79.515625 -10.441406 -79.753906 -9.996094 C -79.988281 -9.550781 -80.300781 -9.167969 -80.6875 -8.847656 C -81.078125 -8.527344 -81.511719 -8.292969 -81.996094 -8.144531 C -82.476562 -7.996094 -82.96875 -7.945312 -83.46875 -7.996094 C -83.972656 -8.042969 -84.445312 -8.183594 -84.890625 -8.421875 C -89.828125 -11.042969 -96.792969 -15.257812 -105.773438 -21.070312 C -108.394531 -22.765625 -110.359375 -24.027344 -111.664062 -24.859375 C -112.089844 -25.128906 -112.449219 -25.46875 -112.738281 -25.882812 C -113.027344 -26.296875 -113.226562 -26.746094 -113.335938 -27.238281 C -113.445312 -27.730469 -113.457031 -28.226562 -113.371094 -28.722656 C -113.285156 -29.21875 -113.105469 -29.679688 -112.835938 -30.105469 C -112.566406 -30.53125 -112.222656 -30.886719 -111.8125 -31.175781 C -111.398438 -31.46875 -110.945312 -31.667969 -110.453125 -31.777344 C -109.960938 -31.886719 -109.46875 -31.898438 -108.972656 -31.808594 C -108.476562 -31.722656 -108.015625 -31.542969 -107.589844 -31.273438 Z M -38.363281 -2.984375 C -35.839844 -2.871094 -33.277344 -2.855469 -30.671875 -2.925781 C -23.3125 -3.132812 -15.855469 -4.058594 -8.296875 -5.703125 C -7.804688 -5.8125 -7.3125 -5.820312 -6.816406 -5.730469 C -6.320312 -5.640625 -5.859375 -5.460938 -5.433594 -5.1875 C -5.011719 -4.914062 -4.65625 -4.574219 -4.367188 -4.160156 C -4.082031 -3.746094 -3.882812 -3.292969 -3.777344 -2.800781 C -3.667969 -2.304688 -3.660156 -1.8125 -3.75 -1.316406 C -3.839844 -0.820312 -4.019531 -0.359375 -4.292969 0.0625 C -4.566406 0.488281 -4.910156 0.84375 -5.320312 1.132812 C -5.734375 1.417969 -6.1875 1.617188 -6.683594 1.722656 C -14.699219 3.46875 -22.625 4.453125 -30.460938 4.671875 C -33.246094 4.75 -35.992188 4.730469 -38.695312 4.609375 C -39.199219 4.589844 -39.679688 4.472656 -40.136719 4.257812 C -40.59375 4.046875 -40.992188 3.753906 -41.332031 3.382812 C -41.671875 3.011719 -41.929688 2.585938 -42.101562 2.113281 C -42.273438 1.640625 -42.347656 1.152344 -42.328125 0.648438 C -42.304688 0.144531 -42.1875 -0.335938 -41.972656 -0.792969 C -41.761719 -1.25 -41.46875 -1.648438 -41.097656 -1.988281 C -40.726562 -2.328125 -40.304688 -2.585938 -39.828125 -2.757812 C -39.355469 -2.929688 -38.867188 -3.003906 -38.363281 -2.984375 Z M 33.957031 -22.324219 C 42.746094 -27.40625 51.027344 -33.273438 58.796875 -39.929688 C 59.179688 -40.257812 59.613281 -40.5 60.089844 -40.65625 C 60.570312 -40.8125 61.0625 -40.871094 61.5625 -40.835938 C 62.066406 -40.796875 62.542969 -40.660156 62.992188 -40.433594 C 63.441406 -40.207031 63.828125 -39.898438 64.15625 -39.515625 C 64.484375 -39.132812 64.726562 -38.703125 64.882812 -38.222656 C 65.039062 -37.746094 65.097656 -37.253906 65.058594 -36.753906 C 65.019531 -36.25 64.886719 -35.773438 64.660156 -35.324219 C 64.429688 -34.875 64.125 -34.484375 63.742188 -34.15625 C 55.617188 -27.195312 46.957031 -21.058594 37.761719 -15.742188 C 37.324219 -15.492188 36.855469 -15.332031 36.355469 -15.265625 C 35.855469 -15.199219 35.363281 -15.234375 34.875 -15.363281 C 34.390625 -15.492188 33.945312 -15.710938 33.546875 -16.019531 C 33.144531 -16.324219 32.820312 -16.695312 32.570312 -17.132812 C 32.316406 -17.570312 32.15625 -18.039062 32.089844 -18.539062 C 32.027344 -19.039062 32.058594 -19.53125 32.1875 -20.015625 C 32.316406 -20.503906 32.535156 -20.949219 32.84375 -21.347656 C 33.148438 -21.746094 33.523438 -22.074219 33.957031 -22.324219 Z M 88.769531 -74.136719 C 92.628906 -80.1875 95.914062 -86.347656 98.617188 -92.625 C 99.867188 -95.527344 100.980469 -98.421875 101.953125 -101.300781 C 102.113281 -101.78125 102.359375 -102.207031 102.691406 -102.585938 C 103.023438 -102.96875 103.414062 -103.269531 103.863281 -103.492188 C 104.316406 -103.71875 104.792969 -103.847656 105.296875 -103.878906 C 105.800781 -103.914062 106.289062 -103.851562 106.765625 -103.6875 C 107.246094 -103.527344 107.671875 -103.28125 108.050781 -102.949219 C 108.433594 -102.617188 108.734375 -102.226562 108.957031 -101.777344 C 109.179688 -101.324219 109.308594 -100.847656 109.34375 -100.34375 C 109.378906 -99.839844 109.316406 -99.351562 109.152344 -98.875 C 108.117188 -95.796875 106.929688 -92.710938 105.597656 -89.613281 C 102.730469 -82.964844 99.253906 -76.441406 95.171875 -70.046875 C 94.902344 -69.621094 94.558594 -69.265625 94.148438 -68.976562 C 93.734375 -68.6875 93.28125 -68.488281 92.789062 -68.378906 C 92.296875 -68.273438 91.804688 -68.261719 91.308594 -68.351562 C 90.8125 -68.4375 90.351562 -68.617188 89.925781 -68.886719 C 89.5 -69.160156 89.144531 -69.503906 88.855469 -69.914062 C 88.566406 -70.328125 88.367188 -70.78125 88.261719 -71.273438 C 88.152344 -71.765625 88.140625 -72.257812 88.230469 -72.753906 C 88.316406 -73.253906 88.496094 -73.710938 88.769531 -74.136719 Z M 106.632812 -145.933594 C 106.324219 -149.375 105.71875 -154.421875 104.820312 -161.074219 C 103.871094 -168.105469 103.253906 -173.371094 102.972656 -176.863281 C 102.933594 -177.367188 102.992188 -177.859375 103.144531 -178.335938 C 103.300781 -178.816406 103.542969 -179.25 103.867188 -179.632812 C 104.195312 -180.015625 104.582031 -180.324219 105.03125 -180.550781 C 105.480469 -180.78125 105.957031 -180.917969 106.457031 -180.957031 C 106.960938 -180.996094 107.453125 -180.941406 107.929688 -180.785156 C 108.410156 -180.628906 108.84375 -180.390625 109.226562 -180.0625 C 109.609375 -179.734375 109.917969 -179.347656 110.144531 -178.898438 C 110.375 -178.449219 110.511719 -177.972656 110.550781 -177.472656 C 110.820312 -174.113281 111.421875 -168.988281 112.351562 -162.09375 C 113.265625 -155.328125 113.882812 -150.167969 114.203125 -146.613281 C 114.246094 -146.113281 114.195312 -145.621094 114.042969 -145.140625 C 113.894531 -144.65625 113.65625 -144.222656 113.335938 -143.835938 C 113.011719 -143.449219 112.628906 -143.140625 112.179688 -142.90625 C 111.734375 -142.671875 111.261719 -142.53125 110.757812 -142.488281 C 110.257812 -142.441406 109.765625 -142.496094 109.285156 -142.644531 C 108.804688 -142.796875 108.367188 -143.03125 107.980469 -143.355469 C 107.59375 -143.679688 107.285156 -144.0625 107.050781 -144.511719 C 106.816406 -144.957031 106.679688 -145.429688 106.632812 -145.933594 Z M 113.027344 -223.886719 C 118.421875 -232.714844 125.8125 -240.652344 135.210938 -247.699219 C 135.613281 -248 136.058594 -248.214844 136.546875 -248.339844 C 137.035156 -248.464844 137.527344 -248.492188 138.027344 -248.421875 C 138.527344 -248.351562 138.992188 -248.1875 139.425781 -247.929688 C 139.859375 -247.671875 140.226562 -247.34375 140.53125 -246.9375 C 140.832031 -246.535156 141.046875 -246.089844 141.171875 -245.601562 C 141.296875 -245.113281 141.324219 -244.621094 141.25 -244.121094 C 141.179688 -243.621094 141.015625 -243.15625 140.757812 -242.722656 C 140.503906 -242.289062 140.171875 -241.921875 139.769531 -241.617188 C 131.152344 -235.152344 124.398438 -227.921875 119.515625 -219.925781 C 119.253906 -219.496094 118.917969 -219.132812 118.511719 -218.835938 C 118.101562 -218.539062 117.652344 -218.332031 117.164062 -218.210938 C 116.675781 -218.09375 116.179688 -218.074219 115.683594 -218.152344 C 115.183594 -218.230469 114.722656 -218.402344 114.289062 -218.664062 C 113.859375 -218.925781 113.496094 -219.261719 113.199219 -219.667969 C 112.902344 -220.074219 112.695312 -220.523438 112.578125 -221.015625 C 112.460938 -221.503906 112.441406 -222 112.519531 -222.496094 C 112.597656 -222.996094 112.765625 -223.457031 113.027344 -223.886719 Z M 177.730469 -269.265625 C 186.988281 -272.480469 197.105469 -275.320312 208.082031 -277.796875 C 208.574219 -277.90625 209.066406 -277.917969 209.5625 -277.832031 C 210.058594 -277.746094 210.519531 -277.570312 210.945312 -277.300781 C 211.371094 -277.03125 211.730469 -276.691406 212.023438 -276.277344 C 212.3125 -275.867188 212.511719 -275.414062 212.625 -274.921875 C 212.734375 -274.433594 212.746094 -273.9375 212.660156 -273.441406 C 212.574219 -272.945312 212.398438 -272.484375 212.128906 -272.058594 C 211.859375 -271.628906 211.519531 -271.273438 211.105469 -270.980469 C 210.695312 -270.691406 210.242188 -270.492188 209.75 -270.378906 C 199.054688 -267.96875 189.210938 -265.203125 180.21875 -262.085938 C 179.742188 -261.917969 179.253906 -261.851562 178.75 -261.882812 C 178.246094 -261.910156 177.769531 -262.035156 177.316406 -262.253906 C 176.863281 -262.476562 176.46875 -262.773438 176.132812 -263.152344 C 175.800781 -263.527344 175.550781 -263.953125 175.382812 -264.429688 C 175.21875 -264.90625 175.152344 -265.394531 175.179688 -265.898438 C 175.210938 -266.402344 175.335938 -266.878906 175.554688 -267.332031 C 175.773438 -267.789062 176.074219 -268.179688 176.449219 -268.515625 C 176.828125 -268.851562 177.253906 -269.101562 177.730469 -269.265625 Z M 254.464844 -285.480469 C 264.425781 -286.636719 274.875 -287.582031 285.8125 -288.3125 C 286.316406 -288.347656 286.804688 -288.285156 287.285156 -288.121094 C 287.761719 -287.960938 288.1875 -287.714844 288.570312 -287.382812 C 288.949219 -287.050781 289.25 -286.660156 289.472656 -286.207031 C 289.695312 -285.753906 289.824219 -285.277344 289.859375 -284.777344 C 289.894531 -284.273438 289.828125 -283.78125 289.667969 -283.304688 C 289.507812 -282.828125 289.257812 -282.398438 288.929688 -282.019531 C 288.597656 -281.640625 288.203125 -281.339844 287.753906 -281.113281 C 287.300781 -280.890625 286.824219 -280.761719 286.320312 -280.730469 C 275.503906 -280.003906 265.175781 -279.070312 255.339844 -277.929688 C 254.839844 -277.871094 254.347656 -277.914062 253.863281 -278.050781 C 253.378906 -278.1875 252.9375 -278.414062 252.542969 -278.726562 C 252.148438 -279.039062 251.828125 -279.417969 251.582031 -279.855469 C 251.335938 -280.296875 251.1875 -280.765625 251.128906 -281.269531 C 251.070312 -281.769531 251.109375 -282.261719 251.246094 -282.746094 C 251.386719 -283.230469 251.609375 -283.671875 251.925781 -284.066406 C 252.238281 -284.460938 252.613281 -284.78125 253.054688 -285.027344 C 253.492188 -285.273438 253.964844 -285.421875 254.464844 -285.480469 Z M 254.464844 -285.480469 " fill-opacity="1" fill-rule="nonzero"/></g><g clip-path="url(#a641e8c525)"><path fill="#0339e8" d="M 1.316406 804.214844 C 21.636719 481.207031 303.800781 236.070312 631.542969 256.691406 C 959.285156 277.3125 1208.5 555.878906 1188.179688 878.886719 C 1167.855469 1201.894531 885.695312 1447.03125 557.953125 1426.410156 C 230.207031 1405.792969 -19.003906 1127.226562 1.316406 804.214844 Z M 74.195312 823.496094 C 64.300781 1106.804688 289.359375 1344.613281 576.875 1354.652344 C 864.394531 1364.691406 1105.492188 1143.164062 1115.386719 859.859375 C 1115.386719 859.855469 1115.386719 859.855469 1115.386719 859.855469 C 1125.277344 576.550781 900.21875 338.742188 612.703125 328.703125 C 325.1875 318.660156 84.085938 540.1875 74.195312 823.496094 Z M 74.195312 823.496094 " fill-opacity="1" fill-rule="nonzero"/></g><path fill="#0339e8" d="M 422.355469 615.804688 C 423.742188 616.058594 425.121094 616.34375 426.496094 616.664062 C 427.867188 616.980469 429.230469 617.335938 430.585938 617.71875 C 431.945312 618.105469 433.289062 618.523438 434.625 618.972656 C 435.960938 619.425781 437.285156 619.90625 438.59375 620.421875 C 439.90625 620.9375 441.203125 621.484375 442.488281 622.0625 C 443.773438 622.640625 445.042969 623.25 446.300781 623.890625 C 447.554688 624.527344 448.792969 625.199219 450.015625 625.898438 C 451.234375 626.597656 452.441406 627.328125 453.625 628.085938 C 454.8125 628.84375 455.976562 629.628906 457.125 630.445312 C 458.273438 631.261719 459.398438 632.101562 460.503906 632.972656 C 461.609375 633.839844 462.691406 634.738281 463.753906 635.660156 C 464.816406 636.582031 465.855469 637.527344 466.867188 638.5 C 467.882812 639.472656 468.875 640.46875 469.839844 641.488281 C 470.804688 642.507812 471.742188 643.550781 472.65625 644.617188 C 473.570312 645.683594 474.457031 646.769531 475.320312 647.878906 C 476.179688 648.988281 477.011719 650.117188 477.816406 651.265625 C 478.621094 652.414062 479.394531 653.582031 480.140625 654.769531 C 480.886719 655.953125 481.605469 657.160156 482.292969 658.378906 C 482.980469 659.601562 483.636719 660.835938 484.261719 662.089844 C 484.886719 663.34375 485.480469 664.609375 486.042969 665.890625 C 486.609375 667.171875 487.140625 668.46875 487.636719 669.773438 C 488.136719 671.082031 488.601562 672.398438 489.039062 673.730469 C 489.472656 675.058594 489.871094 676.398438 490.238281 677.746094 C 490.605469 679.09375 490.941406 680.453125 491.242188 681.816406 C 491.542969 683.183594 491.808594 684.554688 492.039062 685.929688 C 492.273438 687.308594 492.46875 688.691406 492.632812 690.078125 C 492.796875 691.464844 492.925781 692.855469 493.023438 694.246094 C 493.117188 695.640625 493.179688 697.035156 493.203125 698.429688 C 493.230469 699.824219 493.222656 701.21875 493.179688 702.613281 C 493.132812 704.011719 493.058594 705.402344 492.945312 706.792969 C 492.832031 708.183594 492.683594 709.570312 492.503906 710.953125 C 492.324219 712.339844 492.109375 713.71875 491.859375 715.089844 C 491.609375 716.460938 491.324219 717.828125 491.007812 719.1875 C 490.691406 720.546875 490.339844 721.894531 489.957031 723.238281 C 489.570312 724.578125 489.15625 725.910156 488.703125 727.230469 C 488.253906 728.550781 487.769531 729.859375 487.257812 731.160156 C 486.742188 732.457031 486.195312 733.738281 485.613281 735.011719 C 485.035156 736.28125 484.425781 737.535156 483.785156 738.777344 C 483.144531 740.015625 482.472656 741.242188 481.769531 742.449219 C 481.066406 743.65625 480.335938 744.847656 479.574219 746.019531 C 478.8125 747.191406 478.023438 748.34375 477.203125 749.476562 C 476.386719 750.609375 475.539062 751.722656 474.664062 752.8125 C 473.792969 753.90625 472.890625 754.976562 471.964844 756.023438 C 471.039062 757.070312 470.085938 758.09375 469.105469 759.097656 C 468.128906 760.097656 467.125 761.074219 466.101562 762.027344 C 465.074219 762.980469 464.023438 763.90625 462.953125 764.808594 C 461.878906 765.710938 460.785156 766.582031 459.667969 767.433594 C 458.550781 768.28125 457.414062 769.101562 456.257812 769.890625 C 455.101562 770.683594 453.925781 771.449219 452.730469 772.183594 C 451.535156 772.917969 450.320312 773.625 449.089844 774.300781 C 447.859375 774.976562 446.613281 775.621094 445.351562 776.238281 C 444.089844 776.851562 442.8125 777.4375 441.519531 777.992188 C 440.226562 778.542969 438.921875 779.066406 437.605469 779.554688 C 436.285156 780.042969 434.957031 780.5 433.617188 780.925781 C 432.277344 781.351562 430.925781 781.742188 429.566406 782.101562 C 428.203125 782.460938 426.835938 782.785156 425.460938 783.078125 C 424.082031 783.371094 422.699219 783.628906 421.308594 783.855469 C 419.917969 784.082031 418.523438 784.273438 417.125 784.429688 C 415.726562 784.585938 414.320312 784.710938 412.917969 784.800781 C 411.511719 784.886719 410.101562 784.941406 408.695312 784.964844 C 407.285156 784.984375 405.875 784.972656 404.46875 784.921875 C 403.058594 784.875 401.652344 784.792969 400.246094 784.675781 C 398.84375 784.558594 397.441406 784.410156 396.042969 784.226562 C 394.648438 784.042969 393.253906 783.824219 391.867188 783.570312 C 390.480469 783.320312 389.101562 783.035156 387.726562 782.714844 C 386.355469 782.394531 384.988281 782.042969 383.632812 781.65625 C 382.277344 781.273438 380.933594 780.855469 379.597656 780.402344 C 378.261719 779.953125 376.9375 779.46875 375.625 778.953125 C 374.316406 778.441406 373.015625 777.894531 371.730469 777.316406 C 370.449219 776.738281 369.175781 776.128906 367.921875 775.488281 C 366.667969 774.847656 365.429688 774.179688 364.207031 773.480469 C 362.984375 772.78125 361.78125 772.050781 360.597656 771.292969 C 359.410156 770.535156 358.242188 769.746094 357.097656 768.933594 C 355.949219 768.117188 354.824219 767.277344 353.71875 766.40625 C 352.613281 765.535156 351.527344 764.640625 350.46875 763.71875 C 349.40625 762.796875 348.367188 761.851562 347.351562 760.878906 C 346.339844 759.90625 345.347656 758.910156 344.382812 757.890625 C 343.417969 756.871094 342.476562 755.828125 341.5625 754.761719 C 340.648438 753.695312 339.761719 752.609375 338.902344 751.5 C 338.042969 750.390625 337.210938 749.261719 336.40625 748.113281 C 335.601562 746.964844 334.828125 745.796875 334.082031 744.609375 C 333.332031 743.421875 332.617188 742.21875 331.929688 741 C 331.242188 739.777344 330.585938 738.539062 329.960938 737.289062 C 329.335938 736.035156 328.738281 734.765625 328.175781 733.484375 C 327.613281 732.203125 327.082031 730.910156 326.582031 729.601562 C 326.085938 728.296875 325.617188 726.976562 325.183594 725.648438 C 324.75 724.320312 324.351562 722.980469 323.984375 721.632812 C 323.613281 720.28125 323.28125 718.925781 322.980469 717.5625 C 322.679688 716.195312 322.414062 714.824219 322.183594 713.449219 C 321.949219 712.070312 321.75 710.6875 321.585938 709.300781 C 321.421875 707.914062 321.292969 706.523438 321.199219 705.132812 C 321.105469 703.738281 321.042969 702.34375 321.019531 700.949219 C 320.992188 699.554688 321 698.15625 321.042969 696.761719 C 321.085938 695.367188 321.164062 693.976562 321.277344 692.585938 C 321.390625 691.191406 321.535156 689.804688 321.71875 688.421875 C 321.898438 687.039062 322.113281 685.660156 322.363281 684.289062 C 322.613281 682.914062 322.894531 681.550781 323.214844 680.191406 C 323.53125 678.832031 323.882812 677.480469 324.265625 676.140625 C 324.648438 674.796875 325.066406 673.46875 325.515625 672.148438 C 325.96875 670.824219 326.449219 669.515625 326.964844 668.21875 C 327.480469 666.921875 328.027344 665.636719 328.605469 664.367188 C 329.1875 663.097656 329.796875 661.84375 330.4375 660.601562 C 331.078125 659.359375 331.75 658.136719 332.453125 656.929688 C 333.15625 655.722656 333.886719 654.53125 334.648438 653.359375 C 335.410156 652.1875 336.199219 651.035156 337.015625 649.902344 C 337.835938 648.769531 338.683594 647.65625 339.554688 646.566406 C 340.429688 645.472656 341.332031 644.402344 342.257812 643.355469 C 343.183594 642.308594 344.136719 641.28125 345.113281 640.28125 C 346.09375 639.28125 347.09375 638.300781 348.121094 637.351562 C 349.148438 636.398438 350.199219 635.472656 351.269531 634.570312 C 352.34375 633.667969 353.4375 632.792969 354.554688 631.945312 C 355.671875 631.097656 356.808594 630.277344 357.964844 629.484375 C 359.121094 628.691406 360.296875 627.929688 361.492188 627.195312 C 362.6875 626.457031 363.902344 625.753906 365.132812 625.078125 C 366.363281 624.402344 367.609375 623.753906 368.871094 623.140625 C 370.132812 622.523438 371.410156 621.941406 372.703125 621.386719 C 373.992188 620.835938 375.300781 620.3125 376.617188 619.824219 C 377.933594 619.332031 379.265625 618.875 380.605469 618.453125 C 381.945312 618.027344 383.296875 617.632812 384.65625 617.277344 C 386.015625 616.917969 387.386719 616.589844 388.761719 616.296875 C 390.140625 616.003906 391.523438 615.746094 392.914062 615.523438 C 394.300781 615.296875 395.699219 615.105469 397.097656 614.949219 C 398.496094 614.789062 399.898438 614.667969 401.304688 614.578125 C 402.710938 614.488281 404.117188 614.433594 405.527344 614.414062 C 406.9375 614.394531 408.347656 614.40625 409.753906 614.453125 C 411.164062 614.503906 412.570312 614.585938 413.972656 614.699219 C 415.378906 614.816406 416.78125 614.96875 418.175781 615.152344 C 419.574219 615.335938 420.96875 615.554688 422.355469 615.804688 Z M 422.355469 615.804688 " fill-opacity="1" fill-rule="nonzero"/><path fill="#0339e8" d="M 863.207031 699.824219 C 863.207031 701.230469 863.171875 702.632812 863.101562 704.039062 C 863.03125 705.445312 862.929688 706.847656 862.792969 708.246094 C 862.652344 709.644531 862.480469 711.039062 862.277344 712.429688 C 862.070312 713.820312 861.828125 715.207031 861.554688 716.585938 C 861.28125 717.964844 860.972656 719.335938 860.628906 720.703125 C 860.289062 722.066406 859.914062 723.421875 859.503906 724.765625 C 859.097656 726.113281 858.65625 727.445312 858.183594 728.769531 C 857.710938 730.09375 857.203125 731.40625 856.664062 732.707031 C 856.125 734.003906 855.558594 735.289062 854.957031 736.5625 C 854.355469 737.832031 853.722656 739.085938 853.058594 740.328125 C 852.398438 741.566406 851.703125 742.792969 850.980469 743.996094 C 850.257812 745.203125 849.507812 746.390625 848.726562 747.558594 C 847.945312 748.730469 847.132812 749.878906 846.296875 751.007812 C 845.457031 752.136719 844.59375 753.246094 843.703125 754.332031 C 842.808594 755.421875 841.890625 756.484375 840.945312 757.527344 C 840.003906 758.570312 839.03125 759.585938 838.039062 760.582031 C 837.042969 761.574219 836.027344 762.546875 834.984375 763.488281 C 833.941406 764.433594 832.878906 765.351562 831.789062 766.242188 C 830.703125 767.136719 829.59375 768 828.464844 768.839844 C 827.335938 769.675781 826.1875 770.484375 825.019531 771.265625 C 823.847656 772.046875 822.660156 772.800781 821.453125 773.523438 C 820.25 774.246094 819.027344 774.9375 817.785156 775.601562 C 816.546875 776.265625 815.289062 776.898438 814.019531 777.5 C 812.746094 778.101562 811.460938 778.667969 810.164062 779.207031 C 808.863281 779.746094 807.550781 780.25 806.226562 780.726562 C 804.902344 781.199219 803.570312 781.640625 802.222656 782.046875 C 800.878906 782.457031 799.523438 782.832031 798.160156 783.171875 C 796.792969 783.515625 795.421875 783.824219 794.042969 784.097656 C 792.664062 784.371094 791.28125 784.613281 789.886719 784.816406 C 788.496094 785.023438 787.101562 785.195312 785.703125 785.335938 C 784.304688 785.472656 782.902344 785.574219 781.496094 785.644531 C 780.09375 785.714844 778.6875 785.75 777.28125 785.75 C 775.875 785.75 774.46875 785.714844 773.066406 785.644531 C 771.660156 785.574219 770.257812 785.472656 768.859375 785.335938 C 767.460938 785.195312 766.0625 785.023438 764.671875 784.816406 C 763.28125 784.613281 761.898438 784.371094 760.515625 784.097656 C 759.136719 783.824219 757.765625 783.515625 756.402344 783.171875 C 755.039062 782.832031 753.683594 782.457031 752.335938 782.046875 C 750.992188 781.640625 749.65625 781.199219 748.332031 780.726562 C 747.007812 780.25 745.699219 779.746094 744.398438 779.207031 C 743.097656 778.667969 741.8125 778.101562 740.542969 777.5 C 739.273438 776.898438 738.015625 776.265625 736.777344 775.601562 C 735.535156 774.9375 734.3125 774.246094 733.105469 773.523438 C 731.898438 772.800781 730.710938 772.046875 729.542969 771.265625 C 728.375 770.484375 727.226562 769.675781 726.09375 768.839844 C 724.964844 768 723.855469 767.136719 722.769531 766.242188 C 721.683594 765.351562 720.617188 764.433594 719.578125 763.488281 C 718.535156 762.546875 717.515625 761.574219 716.523438 760.582031 C 715.527344 759.585938 714.558594 758.570312 713.613281 757.527344 C 712.671875 756.484375 711.75 755.421875 710.859375 754.332031 C 709.96875 753.246094 709.101562 752.136719 708.265625 751.007812 C 707.425781 749.878906 706.617188 748.730469 705.835938 747.558594 C 705.054688 746.390625 704.304688 745.203125 703.582031 743.996094 C 702.855469 742.792969 702.164062 741.566406 701.5 740.328125 C 700.839844 739.085938 700.207031 737.832031 699.605469 736.5625 C 699.003906 735.289062 698.433594 734.003906 697.894531 732.707031 C 697.359375 731.40625 696.851562 730.09375 696.378906 728.769531 C 695.90625 727.445312 695.464844 726.113281 695.054688 724.765625 C 694.648438 723.421875 694.273438 722.066406 693.929688 720.703125 C 693.589844 719.335938 693.28125 717.964844 693.007812 716.585938 C 692.730469 715.207031 692.492188 713.820312 692.285156 712.429688 C 692.078125 711.039062 691.90625 709.644531 691.769531 708.246094 C 691.632812 706.847656 691.527344 705.445312 691.460938 704.039062 C 691.390625 702.632812 691.355469 701.230469 691.355469 699.824219 C 691.355469 698.417969 691.390625 697.011719 691.460938 695.605469 C 691.527344 694.203125 691.632812 692.800781 691.769531 691.402344 C 691.90625 690 692.078125 688.605469 692.285156 687.214844 C 692.492188 685.824219 692.730469 684.4375 693.007812 683.058594 C 693.28125 681.679688 693.589844 680.308594 693.929688 678.945312 C 694.273438 677.582031 694.648438 676.226562 695.054688 674.878906 C 695.464844 673.535156 695.90625 672.199219 696.378906 670.875 C 696.851562 669.550781 697.359375 668.238281 697.894531 666.941406 C 698.433594 665.640625 699.003906 664.355469 699.605469 663.085938 C 700.207031 661.8125 700.839844 660.558594 701.5 659.316406 C 702.164062 658.078125 702.855469 656.855469 703.582031 655.648438 C 704.304688 654.441406 705.054688 653.253906 705.835938 652.085938 C 706.617188 650.917969 707.425781 649.765625 708.265625 648.636719 C 709.101562 647.507812 709.96875 646.398438 710.859375 645.3125 C 711.75 644.226562 712.671875 643.160156 713.613281 642.121094 C 714.558594 641.078125 715.527344 640.058594 716.523438 639.066406 C 717.515625 638.070312 718.535156 637.101562 719.578125 636.15625 C 720.617188 635.210938 721.683594 634.292969 722.769531 633.402344 C 723.855469 632.511719 724.964844 631.644531 726.09375 630.808594 C 727.226562 629.96875 728.375 629.160156 729.542969 628.378906 C 730.710938 627.597656 731.898438 626.84375 733.105469 626.121094 C 734.3125 625.398438 735.535156 624.707031 736.777344 624.042969 C 738.015625 623.382812 739.273438 622.75 740.542969 622.148438 C 741.8125 621.546875 743.097656 620.976562 744.398438 620.4375 C 745.699219 619.902344 747.007812 619.394531 748.332031 618.921875 C 749.65625 618.445312 750.992188 618.007812 752.335938 617.597656 C 753.683594 617.191406 755.039062 616.816406 756.402344 616.472656 C 757.765625 616.132812 759.136719 615.824219 760.515625 615.550781 C 761.898438 615.273438 763.28125 615.035156 764.671875 614.828125 C 766.0625 614.621094 767.460938 614.449219 768.859375 614.3125 C 770.257812 614.175781 771.660156 614.070312 773.066406 614 C 774.46875 613.933594 775.875 613.898438 777.28125 613.898438 C 778.6875 613.898438 780.09375 613.933594 781.496094 614 C 782.902344 614.070312 784.304688 614.175781 785.703125 614.3125 C 787.101562 614.449219 788.496094 614.621094 789.886719 614.828125 C 791.28125 615.035156 792.664062 615.273438 794.042969 615.550781 C 795.421875 615.824219 796.792969 616.132812 798.160156 616.472656 C 799.523438 616.816406 800.878906 617.191406 802.222656 617.597656 C 803.570312 618.007812 804.902344 618.445312 806.226562 618.921875 C 807.550781 619.394531 808.863281 619.902344 810.164062 620.4375 C 811.460938 620.976562 812.746094 621.546875 814.019531 622.148438 C 815.289062 622.75 816.546875 623.382812 817.785156 624.042969 C 819.027344 624.707031 820.25 625.398438 821.453125 626.121094 C 822.660156 626.84375 823.847656 627.597656 825.019531 628.378906 C 826.1875 629.160156 827.335938 629.96875 828.464844 630.808594 C 829.59375 631.644531 830.703125 632.511719 831.789062 633.402344 C 832.878906 634.292969 833.941406 635.210938 834.984375 636.15625 C 836.027344 637.101562 837.042969 638.070312 838.039062 639.066406 C 839.03125 640.058594 840.003906 641.078125 840.945312 642.121094 C 841.890625 643.160156 842.808594 644.226562 843.703125 645.3125 C 844.59375 646.398438 845.457031 647.507812 846.296875 648.636719 C 847.132812 649.765625 847.941406 650.917969 848.722656 652.085938 C 849.503906 653.253906 850.257812 654.441406 850.980469 655.648438 C 851.703125 656.855469 852.398438 658.078125 853.058594 659.316406 C 853.722656 660.558594 854.355469 661.8125 854.957031 663.085938 C 855.558594 664.355469 856.125 665.640625 856.664062 666.941406 C 857.203125 668.238281 857.710938 669.550781 858.183594 670.875 C 858.65625 672.199219 859.097656 673.535156 859.503906 674.878906 C 859.914062 676.226562 860.289062 677.582031 860.628906 678.945312 C 860.972656 680.308594 861.28125 681.679688 861.554688 683.058594 C 861.828125 684.4375 862.070312 685.824219 862.277344 687.214844 C 862.480469 688.605469 862.652344 690 862.792969 691.402344 C 862.929688 692.800781 863.03125 694.203125 863.101562 695.605469 C 863.171875 697.011719 863.207031 698.417969 863.207031 699.824219 Z M 863.207031 699.824219 " fill-opacity="1" fill-rule="nonzero"/><path fill="#0339e8" d="M 594.285156 1155.339844 C 549.167969 1155.507812 510.371094 1149.597656 467.554688 1134.851562 C 386.660156 1107.078125 318.582031 1046.957031 278.824219 972.300781 C 275.164062 965.402344 272.035156 958.378906 269.4375 951.230469 C 256.953125 916.917969 292.941406 888.136719 323.273438 908.332031 C 327.378906 911.066406 332.683594 919 339.191406 932.125 C 371.589844 997.339844 423.398438 1042.503906 494.621094 1067.613281 C 527.269531 1079.148438 560.40625 1084.84375 594.035156 1084.703125 C 627.660156 1084.59375 660.757812 1078.65625 693.324219 1066.898438 C 764.347656 1041.234375 815.824219 995.679688 847.746094 930.242188 C 854.140625 917.058594 859.378906 909.085938 863.457031 906.320312 C 893.664062 885.917969 929.859375 914.40625 917.625 948.800781 C 915.085938 955.976562 912.011719 963.03125 908.410156 969.957031 C 869.195312 1044.90625 801.578125 1105.527344 720.890625 1133.929688 C 678.160156 1148.96875 639.40625 1155.171875 594.285156 1155.339844 Z M 594.285156 1155.339844 " fill-opacity="1" fill-rule="nonzero"/></g></g></g></svg>