<svg xmlns="http://www.w3.org/2000/svg" xmlns:xlink="http://www.w3.org/1999/xlink" width="1587" zoomAndPan="magnify" viewBox="0 0 1190.25 1683.749949" height="2245" preserveAspectRatio="xMidYMid meet" version="1.0"><defs><clipPath id="1d9ded8e45"><path d="M 0 0.40625 L 1189.5 0.40625 L 1189.5 1363 L 0 1363 Z M 0 0.40625 " clip-rule="nonzero"/></clipPath><clipPath id="b20de11366"><path d="M 0 0.40625 L 290 0.40625 L 290 68 L 0 68 Z M 0 0.40625 " clip-rule="nonzero"/></clipPath><clipPath id="fe2b6733b0"><path d="M 53.261719 229.644531 L 1189 229.644531 L 1189 1360.398438 L 53.261719 1360.398438 Z M 53.261719 229.644531 " clip-rule="nonzero"/></clipPath><clipPath id="36d4d1eb27"><rect x="0" width="1190" y="0" height="1363"/></clipPath></defs><g clip-path="url(#1d9ded8e45)"><g transform="matrix(1, 0, 0, 1, 0, 0.000000000000081102)"><g clip-path="url(#36d4d1eb27)"><g clip-path="url(#b20de11366)"><path fill="#333333" d="M -295.753906 61.480469 C -290.039062 52.070312 -284.332031 43.257812 -278.628906 35.039062 C -278.339844 34.625 -277.984375 34.28125 -277.5625 34.011719 C -277.136719 33.738281 -276.679688 33.554688 -276.183594 33.46875 C -275.6875 33.378906 -275.191406 33.386719 -274.699219 33.492188 C -274.207031 33.601562 -273.753906 33.796875 -273.339844 34.085938 C -272.925781 34.371094 -272.582031 34.726562 -272.3125 35.152344 C -272.039062 35.574219 -271.855469 36.035156 -271.765625 36.53125 C -271.679688 37.027344 -271.6875 37.523438 -271.792969 38.015625 C -271.902344 38.507812 -272.097656 38.960938 -272.386719 39.375 C -278 47.464844 -283.625 56.148438 -289.257812 65.425781 C -289.519531 65.855469 -289.855469 66.21875 -290.261719 66.519531 C -290.667969 66.816406 -291.117188 67.023438 -291.605469 67.144531 C -292.09375 67.265625 -292.589844 67.285156 -293.085938 67.207031 C -293.585938 67.132812 -294.050781 66.960938 -294.480469 66.699219 C -294.910156 66.4375 -295.273438 66.105469 -295.574219 65.699219 C -295.871094 65.292969 -296.078125 64.84375 -296.199219 64.355469 C -296.316406 63.863281 -296.339844 63.371094 -296.261719 62.871094 C -296.1875 62.375 -296.015625 61.910156 -295.753906 61.480469 Z M -249.378906 -1.941406 C -241.6875 -10.304688 -234.003906 -17.574219 -226.332031 -23.753906 C -225.9375 -24.066406 -225.5 -24.296875 -225.015625 -24.4375 C -224.535156 -24.582031 -224.039062 -24.625 -223.539062 -24.570312 C -223.039062 -24.515625 -222.566406 -24.367188 -222.125 -24.125 C -221.683594 -23.882812 -221.304688 -23.566406 -220.988281 -23.175781 C -220.671875 -22.78125 -220.441406 -22.34375 -220.300781 -21.859375 C -220.160156 -21.375 -220.117188 -20.882812 -220.171875 -20.382812 C -220.222656 -19.882812 -220.371094 -19.410156 -220.613281 -18.96875 C -220.855469 -18.527344 -221.171875 -18.148438 -221.566406 -17.832031 C -228.941406 -11.890625 -236.347656 -4.878906 -243.785156 3.203125 C -244.128906 3.574219 -244.527344 3.867188 -244.984375 4.078125 C -245.441406 4.289062 -245.921875 4.40625 -246.425781 4.425781 C -246.929688 4.449219 -247.417969 4.371094 -247.890625 4.199219 C -248.363281 4.027344 -248.785156 3.769531 -249.15625 3.425781 C -249.527344 3.085938 -249.816406 2.6875 -250.03125 2.230469 C -250.242188 1.773438 -250.359375 1.292969 -250.378906 0.789062 C -250.402344 0.285156 -250.324219 -0.203125 -250.152344 -0.675781 C -249.976562 -1.148438 -249.71875 -1.574219 -249.378906 -1.941406 Z M -184.15625 -46.742188 C -176.261719 -48.984375 -168.367188 -50.074219 -160.46875 -50.003906 C -157.597656 -49.976562 -154.761719 -49.796875 -151.960938 -49.464844 C -151.460938 -49.40625 -150.992188 -49.253906 -150.550781 -49.007812 C -150.113281 -48.761719 -149.734375 -48.441406 -149.425781 -48.042969 C -149.113281 -47.648438 -148.886719 -47.207031 -148.75 -46.722656 C -148.613281 -46.238281 -148.574219 -45.746094 -148.636719 -45.242188 C -148.695312 -44.742188 -148.847656 -44.273438 -149.09375 -43.832031 C -149.339844 -43.394531 -149.660156 -43.019531 -150.058594 -42.707031 C -150.453125 -42.394531 -150.894531 -42.171875 -151.378906 -42.035156 C -151.863281 -41.898438 -152.355469 -41.859375 -152.855469 -41.917969 C -155.378906 -42.214844 -157.941406 -42.378906 -160.535156 -42.402344 C -167.703125 -42.464844 -174.882812 -41.476562 -182.078125 -39.429688 C -182.5625 -39.292969 -183.054688 -39.25 -183.554688 -39.308594 C -184.054688 -39.367188 -184.527344 -39.519531 -184.96875 -39.765625 C -185.40625 -40.011719 -185.785156 -40.332031 -186.097656 -40.726562 C -186.410156 -41.121094 -186.632812 -41.5625 -186.773438 -42.046875 C -186.910156 -42.53125 -186.949219 -43.023438 -186.890625 -43.523438 C -186.832031 -44.023438 -186.683594 -44.496094 -186.4375 -44.933594 C -186.191406 -45.375 -185.871094 -45.75 -185.476562 -46.066406 C -185.082031 -46.378906 -184.640625 -46.601562 -184.15625 -46.742188 Z M -107.589844 -31.273438 C -106.265625 -30.433594 -104.285156 -29.160156 -101.648438 -27.453125 C -92.847656 -21.757812 -86.074219 -17.652344 -81.328125 -15.136719 C -80.882812 -14.898438 -80.5 -14.585938 -80.179688 -14.199219 C -79.859375 -13.808594 -79.625 -13.375 -79.476562 -12.894531 C -79.328125 -12.410156 -79.277344 -11.917969 -79.328125 -11.417969 C -79.375 -10.917969 -79.515625 -10.441406 -79.753906 -9.996094 C -79.988281 -9.550781 -80.300781 -9.167969 -80.6875 -8.847656 C -81.078125 -8.527344 -81.511719 -8.292969 -81.996094 -8.144531 C -82.476562 -7.996094 -82.96875 -7.945312 -83.46875 -7.996094 C -83.972656 -8.042969 -84.445312 -8.183594 -84.890625 -8.421875 C -89.828125 -11.042969 -96.792969 -15.257812 -105.773438 -21.070312 C -108.394531 -22.765625 -110.359375 -24.027344 -111.664062 -24.859375 C -112.089844 -25.128906 -112.449219 -25.46875 -112.738281 -25.882812 C -113.027344 -26.296875 -113.226562 -26.746094 -113.335938 -27.238281 C -113.445312 -27.730469 -113.457031 -28.226562 -113.371094 -28.722656 C -113.285156 -29.21875 -113.105469 -29.679688 -112.835938 -30.105469 C -112.566406 -30.53125 -112.222656 -30.886719 -111.8125 -31.175781 C -111.398438 -31.46875 -110.945312 -31.667969 -110.453125 -31.777344 C -109.960938 -31.886719 -109.46875 -31.898438 -108.972656 -31.808594 C -108.476562 -31.722656 -108.015625 -31.542969 -107.589844 -31.273438 Z M -38.363281 -2.984375 C -35.839844 -2.871094 -33.277344 -2.855469 -30.671875 -2.925781 C -23.3125 -3.132812 -15.855469 -4.058594 -8.296875 -5.703125 C -7.804688 -5.8125 -7.3125 -5.820312 -6.816406 -5.730469 C -6.320312 -5.640625 -5.859375 -5.460938 -5.433594 -5.1875 C -5.011719 -4.914062 -4.65625 -4.574219 -4.367188 -4.160156 C -4.082031 -3.746094 -3.882812 -3.292969 -3.777344 -2.800781 C -3.667969 -2.304688 -3.660156 -1.8125 -3.75 -1.316406 C -3.839844 -0.820312 -4.019531 -0.359375 -4.292969 0.0625 C -4.566406 0.488281 -4.910156 0.84375 -5.320312 1.132812 C -5.734375 1.417969 -6.1875 1.617188 -6.683594 1.722656 C -14.699219 3.46875 -22.625 4.453125 -30.460938 4.671875 C -33.246094 4.75 -35.992188 4.730469 -38.695312 4.609375 C -39.199219 4.589844 -39.679688 4.472656 -40.136719 4.257812 C -40.59375 4.046875 -40.992188 3.753906 -41.332031 3.382812 C -41.671875 3.011719 -41.929688 2.585938 -42.101562 2.113281 C -42.273438 1.640625 -42.347656 1.152344 -42.328125 0.648438 C -42.304688 0.144531 -42.1875 -0.335938 -41.972656 -0.792969 C -41.761719 -1.25 -41.46875 -1.648438 -41.097656 -1.988281 C -40.726562 -2.328125 -40.304688 -2.585938 -39.828125 -2.757812 C -39.355469 -2.929688 -38.867188 -3.003906 -38.363281 -2.984375 Z M 33.957031 -22.324219 C 42.746094 -27.40625 51.027344 -33.273438 58.796875 -39.929688 C 59.179688 -40.257812 59.613281 -40.5 60.089844 -40.65625 C 60.570312 -40.8125 61.0625 -40.871094 61.5625 -40.835938 C 62.066406 -40.796875 62.542969 -40.660156 62.992188 -40.433594 C 63.441406 -40.207031 63.828125 -39.898438 64.15625 -39.515625 C 64.484375 -39.132812 64.726562 -38.703125 64.882812 -38.222656 C 65.039062 -37.746094 65.097656 -37.253906 65.058594 -36.753906 C 65.019531 -36.25 64.886719 -35.773438 64.660156 -35.324219 C 64.429688 -34.875 64.125 -34.484375 63.742188 -34.15625 C 55.617188 -27.195312 46.957031 -21.058594 37.761719 -15.742188 C 37.324219 -15.492188 36.855469 -15.332031 36.355469 -15.265625 C 35.855469 -15.199219 35.363281 -15.234375 34.875 -15.363281 C 34.390625 -15.492188 33.945312 -15.710938 33.546875 -16.019531 C 33.144531 -16.324219 32.820312 -16.695312 32.570312 -17.132812 C 32.316406 -17.570312 32.15625 -18.039062 32.089844 -18.539062 C 32.027344 -19.039062 32.058594 -19.53125 32.1875 -20.015625 C 32.316406 -20.503906 32.535156 -20.949219 32.84375 -21.347656 C 33.148438 -21.746094 33.523438 -22.074219 33.957031 -22.324219 Z M 88.769531 -74.136719 C 92.628906 -80.1875 95.914062 -86.347656 98.617188 -92.625 C 99.867188 -95.527344 100.980469 -98.421875 101.953125 -101.300781 C 102.113281 -101.78125 102.359375 -102.207031 102.691406 -102.585938 C 103.023438 -102.96875 103.414062 -103.269531 103.863281 -103.492188 C 104.316406 -103.71875 104.792969 -103.847656 105.296875 -103.878906 C 105.800781 -103.914062 106.289062 -103.851562 106.765625 -103.6875 C 107.246094 -103.527344 107.671875 -103.28125 108.050781 -102.949219 C 108.433594 -102.617188 108.734375 -102.226562 108.957031 -101.777344 C 109.179688 -101.324219 109.308594 -100.847656 109.34375 -100.34375 C 109.378906 -99.839844 109.316406 -99.351562 109.152344 -98.875 C 108.117188 -95.796875 106.929688 -92.710938 105.597656 -89.613281 C 102.730469 -82.964844 99.253906 -76.441406 95.171875 -70.046875 C 94.902344 -69.621094 94.558594 -69.265625 94.148438 -68.976562 C 93.734375 -68.6875 93.28125 -68.488281 92.789062 -68.378906 C 92.296875 -68.273438 91.804688 -68.261719 91.308594 -68.351562 C 90.8125 -68.4375 90.351562 -68.617188 89.925781 -68.886719 C 89.5 -69.160156 89.144531 -69.503906 88.855469 -69.914062 C 88.566406 -70.328125 88.367188 -70.78125 88.261719 -71.273438 C 88.152344 -71.765625 88.140625 -72.257812 88.230469 -72.753906 C 88.316406 -73.253906 88.496094 -73.710938 88.769531 -74.136719 Z M 106.632812 -145.933594 C 106.324219 -149.375 105.71875 -154.421875 104.820312 -161.074219 C 103.871094 -168.105469 103.253906 -173.371094 102.972656 -176.863281 C 102.933594 -177.367188 102.992188 -177.859375 103.144531 -178.335938 C 103.300781 -178.816406 103.542969 -179.25 103.867188 -179.632812 C 104.195312 -180.015625 104.582031 -180.324219 105.03125 -180.550781 C 105.480469 -180.78125 105.957031 -180.917969 106.457031 -180.957031 C 106.960938 -180.996094 107.453125 -180.941406 107.929688 -180.785156 C 108.410156 -180.628906 108.84375 -180.390625 109.226562 -180.0625 C 109.609375 -179.734375 109.917969 -179.347656 110.144531 -178.898438 C 110.375 -178.449219 110.511719 -177.972656 110.550781 -177.472656 C 110.820312 -174.113281 111.421875 -168.988281 112.351562 -162.09375 C 113.265625 -155.328125 113.882812 -150.167969 114.203125 -146.613281 C 114.246094 -146.113281 114.195312 -145.621094 114.042969 -145.140625 C 113.894531 -144.65625 113.65625 -144.222656 113.335938 -143.835938 C 113.011719 -143.449219 112.628906 -143.140625 112.179688 -142.90625 C 111.734375 -142.671875 111.261719 -142.53125 110.757812 -142.488281 C 110.257812 -142.441406 109.765625 -142.496094 109.285156 -142.644531 C 108.804688 -142.796875 108.367188 -143.03125 107.980469 -143.355469 C 107.59375 -143.679688 107.285156 -144.0625 107.050781 -144.511719 C 106.816406 -144.957031 106.679688 -145.429688 106.632812 -145.933594 Z M 113.027344 -223.886719 C 118.421875 -232.714844 125.8125 -240.652344 135.210938 -247.699219 C 135.613281 -248 136.058594 -248.214844 136.546875 -248.339844 C 137.035156 -248.464844 137.527344 -248.492188 138.027344 -248.421875 C 138.527344 -248.351562 138.992188 -248.1875 139.425781 -247.929688 C 139.859375 -247.671875 140.226562 -247.34375 140.53125 -246.9375 C 140.832031 -246.535156 141.046875 -246.089844 141.171875 -245.601562 C 141.296875 -245.113281 141.324219 -244.621094 141.25 -244.121094 C 141.179688 -243.621094 141.015625 -243.15625 140.757812 -242.722656 C 140.503906 -242.289062 140.171875 -241.921875 139.769531 -241.617188 C 131.152344 -235.152344 124.398438 -227.921875 119.515625 -219.925781 C 119.253906 -219.496094 118.917969 -219.132812 118.511719 -218.835938 C 118.101562 -218.539062 117.652344 -218.332031 117.164062 -218.210938 C 116.675781 -218.09375 116.179688 -218.074219 115.683594 -218.152344 C 115.183594 -218.230469 114.722656 -218.402344 114.289062 -218.664062 C 113.859375 -218.925781 113.496094 -219.261719 113.199219 -219.667969 C 112.902344 -220.074219 112.695312 -220.523438 112.578125 -221.015625 C 112.460938 -221.503906 112.441406 -222 112.519531 -222.496094 C 112.597656 -222.996094 112.765625 -223.457031 113.027344 -223.886719 Z M 177.730469 -269.265625 C 186.988281 -272.480469 197.105469 -275.320312 208.082031 -277.796875 C 208.574219 -277.90625 209.066406 -277.917969 209.5625 -277.832031 C 210.058594 -277.746094 210.519531 -277.570312 210.945312 -277.300781 C 211.371094 -277.03125 211.730469 -276.691406 212.023438 -276.277344 C 212.3125 -275.867188 212.511719 -275.414062 212.625 -274.921875 C 212.734375 -274.433594 212.746094 -273.9375 212.660156 -273.441406 C 212.574219 -272.945312 212.398438 -272.484375 212.128906 -272.058594 C 211.859375 -271.628906 211.519531 -271.273438 211.105469 -270.980469 C 210.695312 -270.691406 210.242188 -270.492188 209.75 -270.378906 C 199.054688 -267.96875 189.210938 -265.203125 180.21875 -262.085938 C 179.742188 -261.917969 179.253906 -261.851562 178.75 -261.882812 C 178.246094 -261.910156 177.769531 -262.035156 177.316406 -262.253906 C 176.863281 -262.476562 176.46875 -262.773438 176.132812 -263.152344 C 175.800781 -263.527344 175.550781 -263.953125 175.382812 -264.429688 C 175.21875 -264.90625 175.152344 -265.394531 175.179688 -265.898438 C 175.210938 -266.402344 175.335938 -266.878906 175.554688 -267.332031 C 175.773438 -267.789062 176.074219 -268.179688 176.449219 -268.515625 C 176.828125 -268.851562 177.253906 -269.101562 177.730469 -269.265625 Z M 254.464844 -285.480469 C 264.425781 -286.636719 274.875 -287.582031 285.8125 -288.3125 C 286.316406 -288.347656 286.804688 -288.285156 287.285156 -288.121094 C 287.761719 -287.960938 288.1875 -287.714844 288.570312 -287.382812 C 288.949219 -287.050781 289.25 -286.660156 289.472656 -286.207031 C 289.695312 -285.753906 289.824219 -285.277344 289.859375 -284.777344 C 289.894531 -284.273438 289.828125 -283.78125 289.667969 -283.304688 C 289.507812 -282.828125 289.257812 -282.398438 288.929688 -282.019531 C 288.597656 -281.640625 288.203125 -281.339844 287.753906 -281.113281 C 287.300781 -280.890625 286.824219 -280.761719 286.320312 -280.730469 C 275.503906 -280.003906 265.175781 -279.070312 255.339844 -277.929688 C 254.839844 -277.871094 254.347656 -277.914062 253.863281 -278.050781 C 253.378906 -278.1875 252.9375 -278.414062 252.542969 -278.726562 C 252.148438 -279.039062 251.828125 -279.417969 251.582031 -279.855469 C 251.335938 -280.296875 251.1875 -280.765625 251.128906 -281.269531 C 251.070312 -281.769531 251.109375 -282.261719 251.246094 -282.746094 C 251.386719 -283.230469 251.609375 -283.671875 251.925781 -284.066406 C 252.238281 -284.460938 252.613281 -284.78125 253.054688 -285.027344 C 253.492188 -285.273438 253.964844 -285.421875 254.464844 -285.480469 Z M 254.464844 -285.480469 " fill-opacity="1" fill-rule="nonzero"/></g><g clip-path="url(#fe2b6733b0)"><path fill="#0339e8" d="M 149.238281 1216.546875 C 202.460938 1173.5625 266.359375 1138.832031 337.511719 1115.042969 C 406.863281 1091.855469 483.050781 1079.027344 562.917969 1079.027344 C 567.914062 1079.027344 572.890625 1079.070312 577.855469 1079.171875 C 578.851562 1037.40625 574.246094 994.554688 565.664062 956.050781 C 557.054688 917.445312 544.546875 883.429688 529.804688 859.605469 C 527.265625 860.105469 524.644531 860.371094 521.960938 860.371094 C 511.578125 860.371094 502.09375 856.472656 494.910156 850.0625 C 478.691406 864.5 464.644531 879.875 452.792969 896.1875 C 438.515625 915.816406 427.449219 936.746094 419.613281 958.945312 C 418.003906 963.992188 413.535156 967.863281 407.933594 968.433594 C 400.398438 969.199219 393.660156 963.714844 392.890625 956.179688 C 389.625 925.125 392.566406 893.894531 401.710938 862.492188 C 408.675781 838.585938 419.246094 814.613281 433.421875 790.59375 C 420.960938 792.257812 408.113281 796.375 394.886719 802.953125 L 394.875 802.929688 L 394.832031 802.953125 C 372.132812 814.238281 348.351562 832.699219 323.488281 858.320312 L 323.476562 858.308594 C 321.054688 860.804688 317.679688 862.382812 313.925781 862.457031 C 306.359375 862.605469 300.101562 856.585938 299.953125 849.023438 C 299.195312 812.707031 310.597656 781.394531 334.152344 755.105469 C 353.347656 733.683594 380.539062 715.867188 415.710938 701.675781 C 410.605469 697.113281 404.996094 692.515625 398.882812 687.886719 C 386.097656 678.203125 371.140625 668.457031 354.042969 658.664062 L 354.066406 658.628906 C 350.828125 656.777344 348.355469 653.621094 347.492188 649.691406 C 345.859375 642.308594 350.527344 634.988281 357.914062 633.359375 C 386.757812 626.984375 414.820312 627.5 442.085938 634.910156 C 465.425781 641.25 488.144531 652.652344 510.214844 669.097656 C 528.042969 650.574219 547.652344 636.828125 569.03125 627.878906 C 593.828125 617.503906 620.84375 613.667969 650.046875 616.371094 C 653.808594 616.5 657.5 618.171875 660.105469 621.28125 C 664.972656 627.097656 664.199219 635.761719 658.386719 640.625 C 646.53125 650.535156 637.171875 659.988281 630.328125 668.949219 L 629.515625 670.03125 C 645.539062 668.316406 662.195312 668.882812 679.476562 671.730469 C 706.574219 676.199219 735.226562 686.320312 765.398438 702.089844 C 770.074219 704.332031 773.269531 709.140625 773.183594 714.667969 C 773.070312 722.230469 766.832031 728.273438 759.269531 728.15625 C 728.449219 727.636719 701.847656 730.027344 679.5 735.335938 C 669.128906 737.800781 659.742188 740.890625 651.339844 744.59375 C 667.757812 751.628906 682.21875 760.164062 694.710938 770.210938 C 714.277344 785.949219 728.984375 805.304688 738.820312 828.246094 C 740.382812 831.917969 740.347656 836.238281 738.347656 840.039062 C 734.820312 846.742188 726.515625 849.316406 719.8125 845.785156 C 693.570312 831.945312 669.4375 822.085938 647.453125 816.238281 C 634.308594 812.738281 621.953125 810.671875 610.382812 810.035156 C 610.792969 812.332031 611.003906 814.703125 611.003906 817.113281 C 611.003906 823.839844 609.367188 830.1875 606.472656 835.78125 C 622.582031 887.644531 635.125 935.003906 644.085938 977.8125 C 652.40625 1017.585938 657.636719 1053.457031 659.75 1085.417969 C 666.585938 1086.328125 673.378906 1087.335938 680.132812 1088.433594 C 712.460938 1033.738281 742.882812 933.714844 763.789062 831.488281 C 785.109375 727.234375 796.378906 621.378906 789.570312 559.539062 C 778.382812 559.011719 768.25 554.242188 760.773438 546.777344 L 760.71875 546.722656 C 752.800781 538.789062 747.90625 527.863281 747.90625 515.855469 L 747.925781 514.574219 C 723.816406 516.566406 696.464844 525.738281 670.261719 538.492188 C 631.285156 557.460938 595.503906 584.027344 576.4375 606.828125 C 573.277344 610.59375 568.199219 612.535156 563.058594 611.449219 C 555.640625 609.875 550.898438 602.585938 552.46875 595.167969 C 561.914062 550.898438 578.339844 514.789062 601.722656 486.867188 C 618.824219 466.445312 639.546875 450.492188 663.878906 439.011719 C 648.035156 435.769531 626.683594 435.496094 604.046875 437.332031 C 557.769531 441.089844 508.109375 454.160156 486.894531 469.527344 C 483.007812 472.554688 477.613281 473.378906 472.808594 471.214844 C 465.894531 468.101562 462.8125 459.964844 465.929688 453.054688 C 486.984375 406.753906 519.332031 374.042969 562.9375 354.957031 C 599.699219 338.863281 644.269531 332.707031 696.628906 336.476562 C 691.121094 330.308594 683.660156 324.375 674.246094 318.683594 C 653.335938 306.039062 623.613281 295.027344 585.109375 285.664062 C 580.375 284.785156 576.242188 281.445312 574.589844 276.566406 C 572.15625 269.386719 576.007812 261.589844 583.1875 259.152344 C 629.363281 243.511719 672.464844 240.515625 712.476562 250.171875 C 748.125 258.777344 780.976562 277.347656 811.007812 305.882812 C 836.125 276.984375 866.414062 256.273438 901.875 243.765625 C 941.574219 229.765625 987.566406 226.183594 1039.832031 233.019531 L 1039.832031 233.023438 C 1044.359375 233.617188 1048.492188 236.460938 1050.527344 240.917969 C 1053.667969 247.800781 1050.636719 255.9375 1043.757812 259.078125 C 1019.402344 270.183594 997.914062 282.746094 979.3125 296.757812 C 971.730469 302.472656 964.644531 308.410156 958.0625 314.5625 C 1000.324219 310.703125 1038.757812 316.539062 1073.335938 332.078125 C 1118.035156 352.171875 1155.789062 388.285156 1186.566406 440.394531 C 1189.226562 444.511719 1189.585938 449.929688 1187.039062 454.511719 C 1183.359375 461.128906 1175.007812 463.507812 1168.390625 459.828125 C 1140.207031 444.125 1110.765625 433.1875 1080.085938 427.019531 C 1065.703125 424.132812 1051.003906 422.285156 1036.015625 421.484375 C 1066.785156 440.394531 1090.191406 461.902344 1106.214844 485.992188 C 1130.351562 522.265625 1137.660156 563.863281 1128.140625 610.746094 C 1127.4375 614.277344 1125.347656 617.527344 1122.070312 619.613281 C 1115.691406 623.675781 1107.21875 621.800781 1103.15625 615.421875 C 1077.785156 575.683594 1050.082031 544.558594 1020.0625 522.074219 C 1001.164062 507.921875 981.308594 497.179688 960.492188 489.851562 C 978.300781 516.664062 991.101562 543.875 998.875 571.492188 C 1009.714844 609.972656 1010.804688 649.148438 1002.144531 688.980469 C 1001.492188 693.460938 998.632812 697.527344 994.195312 699.527344 C 987.28125 702.640625 979.148438 699.5625 976.03125 692.648438 C 957.570312 652.046875 939.070312 618.265625 920.5625 591.335938 C 906.445312 570.800781 892.382812 554.289062 878.386719 541.796875 C 877.753906 542.523438 877.09375 543.226562 876.414062 543.90625 L 876.386719 543.878906 C 874.996094 545.269531 873.523438 546.5625 871.960938 547.753906 C 872.230469 643.621094 864.710938 739.132812 849.40625 834.261719 C 834.414062 927.464844 811.921875 1020.375 781.957031 1112.949219 C 784.089844 1113.636719 786.210938 1114.335938 788.328125 1115.042969 C 859.476562 1138.832031 923.375 1173.566406 976.601562 1216.550781 C 987.542969 1221.691406 999.347656 1228.832031 1012.171875 1238.425781 C 1012.457031 1238.640625 1012.734375 1238.859375 1012.996094 1239.089844 C 1019.003906 1243.472656 1025.175781 1246.714844 1031.621094 1248.863281 C 1038.285156 1251.078125 1045.527344 1252.164062 1053.480469 1252.164062 L 1058.085938 1252.164062 C 1065.683594 1252.164062 1071.84375 1258.324219 1071.84375 1265.921875 C 1071.84375 1273.515625 1065.683594 1279.675781 1058.085938 1279.675781 L 1053.480469 1279.675781 C 1042.816406 1279.675781 1032.734375 1278.097656 1023.027344 1274.871094 C 1013.757812 1271.789062 1005.039062 1267.214844 996.699219 1261.117188 C 996.371094 1260.910156 996.046875 1260.695312 995.734375 1260.457031 C 936.078125 1215.84375 904.464844 1238.078125 875.195312 1258.675781 C 855.105469 1272.8125 835.878906 1286.332031 809.925781 1285.105469 C 783.96875 1286.332031 764.742188 1272.8125 744.652344 1258.675781 C 715.386719 1238.078125 683.769531 1215.84375 624.121094 1260.457031 L 624.09375 1260.421875 C 606.675781 1273.441406 584.71875 1279.96875 562.90625 1279.96875 C 541.523438 1279.96875 519.980469 1273.699219 502.695312 1261.128906 C 502.359375 1260.921875 502.03125 1260.699219 501.710938 1260.457031 C 442.0625 1215.84375 410.445312 1238.082031 381.175781 1258.675781 C 361.085938 1272.8125 341.859375 1286.332031 315.90625 1285.105469 C 289.953125 1286.332031 270.722656 1272.8125 250.636719 1258.675781 C 221.367188 1238.078125 189.75 1215.84375 130.097656 1260.457031 C 121.550781 1266.847656 112.523438 1271.636719 102.804688 1274.871094 C 93.097656 1278.097656 83.015625 1279.675781 72.347656 1279.675781 L 67.742188 1279.675781 C 60.148438 1279.675781 53.988281 1273.515625 53.988281 1265.921875 C 53.988281 1258.324219 60.148438 1252.164062 67.742188 1252.164062 L 72.347656 1252.164062 C 80.304688 1252.164062 87.542969 1251.078125 94.207031 1248.863281 C 100.863281 1246.644531 107.304688 1243.179688 113.660156 1238.425781 C 126.488281 1228.832031 138.289062 1221.683594 149.238281 1216.546875 Z M 603.539062 1023.511719 L 624.757812 1023.511719 C 622.636719 1010.65625 620.125 997.289062 617.21875 983.40625 L 615.96875 977.515625 L 597.761719 977.515625 C 600.289062 992.519531 602.238281 1007.9375 603.539062 1023.511719 Z M 628.808594 1051.023438 L 605.144531 1051.023438 C 605.464844 1060.78125 605.519531 1070.539062 605.28125 1080.238281 C 614.246094 1080.753906 623.167969 1081.429688 632.019531 1082.265625 C 631.265625 1072.265625 630.191406 1061.851562 628.808594 1051.023438 Z M 592.386719 950 L 609.710938 950 C 606.589844 936.988281 603.164062 923.570312 599.425781 909.746094 L 581.546875 909.746094 C 585.628906 922.5 589.265625 935.992188 592.386719 950 Z M 571.589844 882.234375 L 591.734375 882.234375 C 589.207031 873.472656 586.5625 864.558594 583.804688 855.492188 C 579.585938 856.984375 575.046875 857.792969 570.324219 857.792969 C 566.585938 857.792969 562.945312 857.273438 559.476562 856.300781 C 563.746094 864.265625 567.796875 872.953125 571.589844 882.234375 Z M 746.757812 1002.878906 L 785.699219 1002.878906 C 795.195312 966.75 803.554688 930.570312 810.753906 894.332031 L 777.847656 894.332031 C 768.566406 932.617188 758.070312 969.558594 746.757812 1002.878906 Z M 778.238281 1030.394531 L 736.914062 1030.394531 C 727.847656 1054.382812 718.371094 1075.824219 708.65625 1093.679688 C 724.617188 1096.953125 740.316406 1100.75 755.71875 1105.050781 C 763.777344 1080.1875 771.28125 1055.300781 778.238281 1030.394531 Z M 784.257812 866.820312 L 816 866.820312 C 818.242188 854.539062 820.351562 842.253906 822.328125 829.960938 C 826.167969 806.09375 829.507812 782.207031 832.355469 758.296875 L 804.78125 758.296875 C 800.785156 784.199219 796.035156 810.65625 790.652344 836.96875 C 788.617188 846.949219 786.476562 856.910156 784.257812 866.820312 Z M 808.769531 730.78125 L 835.410156 730.78125 C 838.5 700.765625 840.808594 670.710938 842.332031 640.621094 L 817.699219 640.621094 C 816.125 668.519531 813.070312 699.027344 808.769531 730.78125 Z M 818.777344 613.109375 L 843.503906 613.109375 C 844.160156 594.320312 844.511719 575.523438 844.554688 556.710938 C 835.5625 556.527344 827.238281 553.613281 820.367188 548.78125 C 819.082031 549.90625 817.730469 550.957031 816.320312 551.925781 C 818.496094 569.234375 819.257812 589.949219 818.777344 613.109375 Z M 243.316406 326.746094 C 214.019531 326.746094 187.492188 338.625 168.292969 357.828125 L 168.320312 357.855469 C 149.101562 377.082031 137.210938 403.613281 137.210938 432.847656 C 137.210938 461.671875 148.773438 487.867188 167.519531 507.027344 C 167.761719 507.316406 168.019531 507.59375 168.292969 507.867188 C 187.492188 527.066406 214.023438 538.949219 243.316406 538.949219 C 272.570312 538.949219 299.082031 527.066406 318.28125 507.871094 L 318.335938 507.816406 C 337.53125 488.617188 349.414062 462.101562 349.414062 432.847656 C 349.414062 403.980469 337.84375 377.792969 319.105469 358.65625 C 318.863281 358.371094 318.605469 358.09375 318.335938 357.824219 C 299.140625 338.625 272.609375 326.746094 243.316406 326.746094 Z M 298.886719 377.273438 C 284.671875 363.058594 265.015625 354.257812 243.316406 354.257812 C 221.613281 354.257812 201.960938 363.058594 187.742188 377.277344 L 187.714844 377.25 L 187.6875 377.277344 C 173.507812 391.457031 164.722656 411.109375 164.722656 432.847656 C 164.722656 454.25 173.242188 473.636719 187.039062 487.761719 L 187.742188 488.417969 C 201.960938 502.632812 221.617188 511.433594 243.316406 511.433594 C 265.035156 511.433594 284.699219 502.648438 298.914062 488.449219 C 313.113281 474.234375 321.898438 454.566406 321.898438 432.847656 C 321.898438 411.460938 313.386719 392.078125 299.574219 377.921875 Z M 229.558594 261.183594 L 229.558594 290.214844 C 229.558594 297.8125 235.71875 303.972656 243.316406 303.972656 C 250.910156 303.972656 257.074219 297.8125 257.074219 290.214844 L 257.074219 261.183594 C 257.074219 253.585938 250.910156 247.425781 243.316406 247.425781 C 235.71875 247.425781 229.558594 253.585938 229.558594 261.183594 Z M 229.558594 575.46875 L 229.558594 604.503906 C 229.558594 612.097656 235.71875 618.261719 243.316406 618.261719 C 250.910156 618.261719 257.074219 612.097656 257.074219 604.503906 L 257.074219 575.46875 C 257.074219 567.875 250.910156 561.710938 243.316406 561.710938 C 235.71875 561.710938 229.558594 567.875 229.558594 575.46875 Z M 414.976562 419.085938 L 385.949219 419.085938 C 378.351562 419.085938 372.191406 425.246094 372.191406 432.84375 C 372.191406 440.4375 378.351562 446.597656 385.949219 446.597656 L 414.976562 446.597656 C 422.570312 446.597656 428.734375 440.4375 428.734375 432.84375 C 428.734375 425.246094 422.570312 419.085938 414.976562 419.085938 Z M 100.679688 419.085938 L 71.65625 419.085938 C 64.058594 419.085938 57.898438 425.246094 57.898438 432.84375 C 57.898438 440.4375 64.058594 446.597656 71.65625 446.597656 L 100.679688 446.597656 C 108.277344 446.597656 114.4375 440.4375 114.4375 432.84375 C 114.4375 425.246094 108.277344 419.085938 100.679688 419.085938 Z M 374.421875 544.5 L 353.894531 523.96875 C 348.523438 518.601562 339.8125 518.601562 334.441406 523.96875 C 329.074219 529.339844 329.074219 538.050781 334.441406 543.421875 L 354.972656 563.949219 C 360.34375 569.320312 369.054688 569.320312 374.421875 563.949219 C 379.792969 558.582031 379.792969 549.871094 374.421875 544.5 Z M 152.1875 322.265625 L 131.660156 301.734375 C 126.289062 296.367188 117.578125 296.367188 112.207031 301.734375 C 106.839844 307.105469 106.839844 315.816406 112.207031 321.183594 L 132.738281 341.714844 C 138.109375 347.085938 146.820312 347.085938 152.1875 341.714844 C 157.558594 336.34375 157.558594 327.632812 152.1875 322.265625 Z M 131.660156 563.949219 L 152.1875 543.421875 C 157.558594 538.050781 157.558594 529.339844 152.1875 523.96875 C 146.820312 518.601562 138.109375 518.601562 132.738281 523.96875 L 112.207031 544.5 C 106.839844 549.871094 106.839844 558.582031 112.207031 563.949219 C 117.578125 569.320312 126.289062 569.320312 131.660156 563.949219 Z M 353.894531 341.714844 L 374.421875 321.183594 C 379.792969 315.816406 379.792969 307.105469 374.421875 301.734375 C 369.054688 296.367188 360.34375 296.367188 354.972656 301.734375 L 334.441406 322.265625 C 329.074219 327.632812 329.074219 336.34375 334.441406 341.714844 C 339.8125 347.085938 348.523438 347.085938 353.894531 341.714844 Z M 916.980469 1207.042969 C 875.855469 1180.117188 829.640625 1157.777344 779.625 1141.050781 C 713.175781 1118.839844 639.933594 1106.539062 562.917969 1106.539062 C 485.902344 1106.539062 412.667969 1118.835938 346.214844 1141.050781 C 296.199219 1157.777344 249.980469 1180.113281 208.847656 1207.042969 C 230.941406 1211.238281 249.015625 1223.960938 266.433594 1236.214844 C 282.730469 1247.679688 298.324219 1258.644531 315.097656 1257.664062 C 315.644531 1257.628906 316.183594 1257.628906 316.714844 1257.664062 C 333.488281 1258.644531 349.082031 1247.679688 365.375 1236.214844 C 402.492188 1210.101562 442.570312 1181.90625 518.148438 1238.425781 C 518.425781 1238.632812 518.6875 1238.84375 518.945312 1239.066406 C 531.289062 1247.996094 547.035156 1252.457031 562.90625 1252.457031 C 579.148438 1252.457031 595.242188 1247.785156 607.679688 1238.480469 L 607.710938 1238.460938 L 607.679688 1238.425781 C 683.253906 1181.902344 723.339844 1210.101562 760.453125 1236.214844 C 776.75 1247.679688 792.34375 1258.644531 809.117188 1257.664062 C 809.664062 1257.628906 810.203125 1257.628906 810.730469 1257.664062 C 827.507812 1258.644531 843.101562 1247.679688 859.394531 1236.214844 C 876.816406 1223.960938 894.886719 1211.242188 916.980469 1207.042969 Z M 67.742188 1354.679688 L 72.347656 1354.679688 C 83.015625 1354.679688 93.097656 1353.101562 102.804688 1349.875 C 112.421875 1346.675781 121.4375 1341.878906 130.070312 1335.425781 L 130.097656 1335.460938 C 189.75 1290.847656 221.367188 1313.082031 250.636719 1333.679688 C 270.734375 1347.824219 289.980469 1361.347656 315.90625 1360.109375 C 341.835938 1361.347656 361.074219 1347.824219 381.171875 1333.679688 C 410.441406 1313.082031 442.058594 1290.847656 501.710938 1335.460938 C 502.03125 1335.703125 502.359375 1335.925781 502.695312 1336.132812 C 519.980469 1348.703125 541.523438 1354.972656 562.90625 1354.972656 C 584.71875 1354.972656 606.675781 1348.445312 624.09375 1335.425781 L 624.121094 1335.460938 C 683.773438 1290.847656 715.386719 1313.085938 744.652344 1333.675781 C 764.757812 1347.820312 784 1361.347656 809.925781 1360.109375 C 835.851562 1361.347656 855.09375 1347.824219 875.195312 1333.679688 C 904.464844 1313.082031 936.078125 1290.847656 995.734375 1335.460938 C 996.046875 1335.699219 996.371094 1335.914062 996.699219 1336.121094 C 1005.039062 1342.21875 1013.753906 1346.789062 1023.027344 1349.875 C 1032.734375 1353.101562 1042.816406 1354.679688 1053.480469 1354.679688 L 1058.085938 1354.679688 C 1065.683594 1354.679688 1071.84375 1348.519531 1071.84375 1340.925781 C 1071.84375 1333.328125 1065.683594 1327.167969 1058.085938 1327.167969 L 1053.480469 1327.167969 C 1045.527344 1327.167969 1038.285156 1326.082031 1031.621094 1323.863281 C 1025.171875 1321.71875 1019.003906 1318.476562 1012.996094 1314.09375 C 1012.734375 1313.863281 1012.457031 1313.644531 1012.171875 1313.429688 C 936.59375 1256.910156 896.511719 1285.105469 859.394531 1311.21875 C 843.097656 1322.683594 827.503906 1333.648438 810.675781 1332.667969 C 810.183594 1332.636719 809.679688 1332.636719 809.171875 1332.667969 C 792.351562 1333.648438 776.757812 1322.683594 760.453125 1311.214844 C 723.339844 1285.105469 683.257812 1256.90625 607.679688 1313.429688 L 607.710938 1313.464844 L 607.679688 1313.484375 C 595.242188 1322.789062 579.148438 1327.460938 562.90625 1327.460938 C 547.035156 1327.460938 531.289062 1323 518.945312 1314.070312 C 518.6875 1313.847656 518.425781 1313.636719 518.148438 1313.429688 C 442.570312 1256.910156 402.488281 1285.105469 365.371094 1311.21875 C 349.074219 1322.6875 333.480469 1333.648438 316.660156 1332.667969 C 316.164062 1332.636719 315.660156 1332.636719 315.152344 1332.667969 C 298.328125 1333.648438 282.734375 1322.683594 266.433594 1311.21875 C 229.320312 1285.105469 189.234375 1256.910156 113.660156 1313.429688 L 113.6875 1313.464844 L 113.660156 1313.484375 C 107.394531 1318.175781 100.953125 1321.625 94.207031 1323.863281 C 87.542969 1326.082031 80.304688 1327.167969 72.347656 1327.167969 L 67.742188 1327.167969 C 60.148438 1327.167969 53.988281 1333.328125 53.988281 1340.925781 C 53.988281 1348.519531 60.148438 1354.679688 67.742188 1354.679688 Z M 889.175781 515.039062 C 907.4375 529.753906 925.421875 549.996094 943.128906 575.753906 C 955.664062 593.984375 968.105469 615.011719 980.457031 638.828125 C 980.683594 618.664062 978.011719 598.6875 972.4375 578.90625 C 962.632812 544.089844 943.828125 509.75 916.046875 475.894531 C 911.242188 470.050781 912.082031 461.410156 917.929688 456.605469 C 921.078125 454.015625 925.042969 453.070312 928.78125 453.660156 L 928.78125 453.652344 C 967.425781 459.808594 1003.34375 475.3125 1036.503906 500.152344 C 1060.742188 518.308594 1083.46875 541.441406 1104.679688 569.558594 C 1104.140625 544.535156 1097.023438 521.726562 1083.328125 501.144531 C 1062.761719 470.238281 1027.273438 443.757812 976.878906 421.714844 C 969.9375 418.691406 966.765625 410.605469 969.785156 403.664062 C 971.839844 398.945312 976.230469 395.96875 981.015625 395.496094 C 1017.15625 391.878906 1051.976562 393.433594 1085.460938 400.15625 C 1102.347656 403.546875 1118.863281 408.246094 1135.007812 414.257812 C 1113.445312 388.3125 1089.164062 369.261719 1062.160156 357.121094 C 1022.742188 339.402344 976.964844 336.199219 924.863281 347.503906 C 917.445312 349.105469 910.125 344.390625 908.527344 336.972656 C 907.554688 332.460938 908.917969 327.984375 911.808594 324.8125 C 925.851562 306.503906 942.851562 289.84375 962.761719 274.835938 C 970.96875 268.660156 979.691406 262.742188 988.933594 257.085938 C 960.332031 257.234375 934.351562 261.429688 911.007812 269.667969 C 875.914062 282.042969 846.550781 303.71875 822.953125 334.667969 C 818.355469 340.6875 809.738281 341.84375 803.714844 337.246094 C 803.027344 336.71875 802.402344 336.144531 801.839844 335.519531 C 772.636719 304.757812 740.683594 285.1875 706.027344 276.816406 C 685.566406 271.882812 664 270.8125 641.320312 273.601562 C 659.839844 280.175781 675.546875 287.355469 688.433594 295.148438 C 713.917969 310.554688 729.140625 328.675781 734.085938 349.484375 C 735.835938 356.867188 731.261719 364.28125 723.878906 366.03125 C 721.839844 366.515625 719.804688 366.515625 717.882812 366.109375 C 659.746094 358.871094 611.742188 363.53125 573.894531 380.101562 C 549.441406 390.804688 529.097656 406.644531 512.878906 427.605469 C 539.175781 418.886719 571.417969 412.402344 601.894531 409.925781 C 647.472656 406.226562 690.507812 411.6875 707.914062 431.976562 C 712.839844 437.734375 712.164062 446.394531 706.410156 451.316406 C 704.886719 452.621094 703.164062 453.527344 701.359375 454.058594 C 669.144531 463.601562 642.949219 480.417969 622.789062 504.492188 C 611.160156 518.378906 601.460938 534.75 593.699219 553.589844 C 612.644531 539.0625 634.976562 525.097656 658.226562 513.777344 C 691.847656 497.414062 727.824219 486.359375 759.054688 486.699219 C 759.597656 486.097656 760.144531 485.511719 760.71875 484.9375 L 760.746094 484.964844 C 764.386719 481.324219 768.660156 478.320312 773.378906 476.136719 C 773.335938 475.398438 773.316406 474.671875 773.316406 473.941406 C 773.316406 461.921875 778.222656 450.988281 786.160156 443.046875 L 786.132812 443.019531 C 794.042969 435.109375 804.980469 430.207031 817.054688 430.207031 C 829.125 430.207031 840.0625 435.109375 847.972656 443.019531 C 855.460938 450.507812 860.253906 460.703125 860.746094 472.011719 C 866.660156 474.226562 871.984375 477.695312 876.386719 482.09375 L 876.414062 482.066406 C 884.324219 489.980469 889.226562 500.914062 889.226562 512.984375 C 889.226562 513.675781 889.207031 514.359375 889.175781 515.039062 Z M 592.027344 782.738281 C 611.121094 781.390625 631.929688 783.703125 654.4375 789.699219 C 665.128906 792.546875 676.222656 796.222656 687.710938 800.730469 C 684.515625 797.535156 681.117188 794.492188 677.515625 791.59375 C 661.113281 778.40625 640.464844 768.171875 615.582031 760.902344 C 608.3125 758.796875 604.125 751.191406 606.230469 743.925781 C 607.054688 741.085938 608.714844 738.714844 610.867188 737.007812 L 610.851562 736.992188 C 627.070312 724.070312 647.84375 714.59375 673.160156 708.582031 C 680.96875 706.722656 689.25 705.195312 697.988281 703.996094 C 690.191406 701.773438 682.554688 700.039062 675.070312 698.808594 C 651.332031 694.894531 629.152344 695.980469 608.550781 702.078125 C 601.285156 704.207031 593.652344 700.046875 591.519531 692.78125 C 590.730469 690.097656 590.800781 687.367188 591.570312 684.878906 C 594.4375 674.207031 600.089844 663.339844 608.515625 652.292969 C 610.628906 649.523438 612.921875 646.742188 615.394531 643.933594 C 602.855469 645.390625 590.90625 648.492188 579.558594 653.242188 C 558.617188 662.007812 539.496094 676.492188 522.222656 696.675781 C 517.300781 702.429688 508.636719 703.105469 502.882812 698.179688 L 502.691406 698.011719 C 480.664062 679.945312 458.054688 667.742188 434.886719 661.449219 C 424.167969 658.535156 413.304688 656.878906 402.308594 656.484375 C 406.882812 659.644531 411.257812 662.800781 415.433594 665.964844 C 429.332031 676.492188 441.128906 687.164062 450.800781 697.972656 C 455.839844 703.609375 455.359375 712.273438 449.722656 717.316406 C 448.289062 718.597656 446.660156 719.527344 444.9375 720.097656 L 444.941406 720.109375 C 404.226562 733.820312 374.09375 751.578125 354.566406 773.371094 C 344.027344 785.132812 336.550781 798.203125 332.125 812.5625 C 349.273438 797.992188 366.113281 786.589844 382.648438 778.371094 L 382.636719 778.347656 C 409.226562 765.121094 435.046875 760.046875 460.058594 763.125 C 467.59375 764.042969 472.960938 770.902344 472.042969 778.4375 C 471.714844 781.125 470.632812 783.535156 469.03125 785.484375 C 449.851562 813.941406 436.183594 842.160156 428.039062 870.117188 C 426.007812 877.09375 424.320312 884.058594 422.976562 891.011719 C 425.40625 887.320312 427.929688 883.667969 430.550781 880.066406 C 444.710938 860.578125 461.757812 842.292969 481.660156 825.234375 C 481.414062 823.417969 481.285156 821.570312 481.285156 819.691406 C 481.285156 808.503906 485.84375 798.347656 493.199219 790.984375 L 493.199219 790.929688 C 496.367188 787.765625 500.054688 785.117188 504.125 783.128906 L 504.109375 782.046875 C 504.109375 770.859375 508.667969 760.703125 516.023438 753.339844 L 516.023438 753.285156 C 523.382812 745.929688 533.554688 741.371094 544.785156 741.371094 C 555.972656 741.371094 566.128906 745.929688 573.492188 753.285156 L 573.546875 753.339844 C 580.304688 760.101562 584.699219 769.222656 585.375 779.332031 C 587.707031 780.265625 589.929688 781.410156 592.027344 782.738281 Z M 738.820312 828.246094 L 738.832031 828.269531 Z M 531.75 780.207031 C 536.324219 781.347656 540.589844 783.261719 544.40625 785.800781 C 545.035156 785.285156 545.675781 784.78125 546.332031 784.300781 C 549.703125 781.835938 553.457031 779.875 557.480469 778.527344 C 556.871094 776.289062 555.695312 774.292969 554.125 772.710938 C 551.746094 770.351562 548.441406 768.882812 544.785156 768.882812 C 541.148438 768.882812 537.851562 770.359375 535.472656 772.734375 L 535.445312 772.710938 C 533.488281 774.683594 532.152344 777.292969 531.75 780.207031 Z M 560.890625 807.898438 C 562.027344 811.632812 562.640625 815.59375 562.640625 819.691406 C 562.640625 822.300781 562.390625 824.855469 561.921875 827.324219 C 562.453125 827.765625 563.019531 828.15625 563.613281 828.507812 C 565.519531 829.632812 567.820312 830.277344 570.324219 830.277344 C 573.984375 830.277344 577.285156 828.8125 579.664062 826.453125 L 579.636719 826.425781 C 582.015625 824.046875 583.492188 820.753906 583.492188 817.113281 C 583.492188 813.457031 582.023438 810.15625 579.664062 807.777344 L 579.324219 807.449219 L 579.207031 807.34375 L 578.972656 807.136719 L 578.949219 807.117188 L 578.855469 807.035156 C 576.5625 805.117188 573.582031 803.949219 570.324219 803.949219 C 567.386719 803.949219 564.699219 804.878906 562.5625 806.441406 C 561.964844 806.878906 561.410156 807.367188 560.890625 807.898438 Z M 531.300781 810.351562 C 528.921875 807.992188 525.621094 806.527344 521.960938 806.527344 C 518.324219 806.527344 515.03125 808.003906 512.652344 810.378906 L 512.625 810.351562 C 510.265625 812.730469 508.796875 816.035156 508.796875 819.691406 C 508.796875 823.332031 510.273438 826.625 512.652344 829.003906 C 515.03125 831.382812 518.324219 832.855469 521.960938 832.855469 C 525.621094 832.855469 528.921875 831.390625 531.300781 829.03125 L 531.273438 829.003906 C 533.652344 826.625 535.125 823.332031 535.125 819.691406 C 535.125 816.035156 533.660156 812.730469 531.300781 810.351562 Z M 800.851562 473.105469 C 806.160156 474.246094 811.125 476.363281 815.546875 479.253906 L 816.726562 480.054688 C 821.390625 475.976562 826.929688 472.875 833.019531 471.0625 C 832.425781 467.734375 830.808594 464.753906 828.523438 462.46875 C 825.597656 459.542969 821.53125 457.71875 817.054688 457.71875 C 812.574219 457.71875 808.507812 459.542969 805.582031 462.46875 L 805.527344 462.46875 C 802.804688 465.1875 801.058594 468.925781 800.851562 473.105469 Z M 802.699219 503.964844 C 802.019531 503.335938 801.285156 502.761719 800.503906 502.25 C 797.980469 500.601562 794.933594 499.636719 791.640625 499.636719 C 787.125 499.636719 783.066406 501.433594 780.167969 504.332031 L 780.167969 504.386719 C 777.242188 507.316406 775.417969 511.375 775.417969 515.855469 C 775.417969 520.371094 777.214844 524.429688 780.113281 527.328125 L 780.167969 527.382812 C 783.066406 530.285156 787.125 532.078125 791.640625 532.078125 C 794.988281 532.078125 798.074219 531.089844 800.609375 529.410156 C 801.835938 528.59375 802.949219 527.625 803.910156 526.523438 C 802.511719 522.257812 801.761719 517.703125 801.761719 512.984375 C 801.761719 509.894531 802.082031 506.875 802.699219 503.964844 Z M 856.960938 501.464844 C 854.066406 498.5625 850.007812 496.769531 845.492188 496.769531 C 841.011719 496.769531 836.949219 498.589844 834.023438 501.519531 L 833.96875 501.519531 C 831.066406 504.414062 829.273438 508.472656 829.273438 512.984375 C 829.273438 517.5 831.066406 521.5625 833.96875 524.457031 L 834.023438 524.457031 C 836.949219 527.386719 841.011719 529.207031 845.492188 529.207031 C 850.007812 529.207031 854.066406 527.414062 856.960938 524.511719 L 856.960938 524.457031 C 859.890625 521.527344 861.710938 517.464844 861.710938 512.984375 C 861.710938 508.503906 859.890625 504.445312 856.960938 501.519531 Z M 856.960938 501.464844 " fill-opacity="1" fill-rule="evenodd"/></g></g></g></g></svg>