<svg xmlns="http://www.w3.org/2000/svg" xmlns:xlink="http://www.w3.org/1999/xlink" width="1587" zoomAndPan="magnify" viewBox="0 0 1190.25 1683.749949" height="2245" preserveAspectRatio="xMidYMid meet" version="1.0"><defs><clipPath id="c18e76dd9f"><path d="M 0 0.40625 L 1189.5 0.40625 L 1189.5 1437 L 0 1437 Z M 0 0.40625 " clip-rule="nonzero"/></clipPath><clipPath id="9d4490a1ef"><path d="M 0 0.40625 L 290 0.40625 L 290 68 L 0 68 Z M 0 0.40625 " clip-rule="nonzero"/></clipPath><clipPath id="0d428e67ed"><path d="M 0 246.800781 L 1189.199219 246.800781 L 1189.199219 1436 L 0 1436 Z M 0 246.800781 " clip-rule="nonzero"/></clipPath><clipPath id="d1d6d52c52"><rect x="0" width="1190" y="0" height="1437"/></clipPath></defs><g clip-path="url(#c18e76dd9f)"><g transform="matrix(1, 0, 0, 1, 0, 0.000000000000081102)"><g clip-path="url(#d1d6d52c52)"><g clip-path="url(#9d4490a1ef)"><path fill="#333333" d="M -295.753906 61.480469 C -290.039062 52.070312 -284.332031 43.257812 -278.628906 35.039062 C -278.339844 34.625 -277.984375 34.28125 -277.5625 34.011719 C -277.136719 33.738281 -276.679688 33.554688 -276.183594 33.46875 C -275.6875 33.378906 -275.191406 33.386719 -274.699219 33.492188 C -274.207031 33.601562 -273.753906 33.796875 -273.339844 34.085938 C -272.925781 34.371094 -272.582031 34.726562 -272.3125 35.152344 C -272.039062 35.574219 -271.855469 36.035156 -271.765625 36.53125 C -271.679688 37.027344 -271.6875 37.523438 -271.792969 38.015625 C -271.902344 38.507812 -272.097656 38.960938 -272.386719 39.375 C -278 47.464844 -283.625 56.148438 -289.257812 65.425781 C -289.519531 65.855469 -289.855469 66.21875 -290.261719 66.519531 C -290.667969 66.816406 -291.117188 67.023438 -291.605469 67.144531 C -292.09375 67.265625 -292.589844 67.285156 -293.085938 67.207031 C -293.585938 67.132812 -294.050781 66.960938 -294.480469 66.699219 C -294.910156 66.4375 -295.273438 66.105469 -295.574219 65.699219 C -295.871094 65.292969 -296.078125 64.84375 -296.199219 64.355469 C -296.316406 63.863281 -296.339844 63.371094 -296.261719 62.871094 C -296.1875 62.375 -296.015625 61.910156 -295.753906 61.480469 Z M -249.378906 -1.941406 C -241.6875 -10.304688 -234.003906 -17.574219 -226.332031 -23.753906 C -225.9375 -24.066406 -225.5 -24.296875 -225.015625 -24.4375 C -224.535156 -24.582031 -224.039062 -24.625 -223.539062 -24.570312 C -223.039062 -24.515625 -222.566406 -24.367188 -222.125 -24.125 C -221.683594 -23.882812 -221.304688 -23.566406 -220.988281 -23.175781 C -220.671875 -22.78125 -220.441406 -22.34375 -220.300781 -21.859375 C -220.160156 -21.375 -220.117188 -20.882812 -220.171875 -20.382812 C -220.222656 -19.882812 -220.371094 -19.410156 -220.613281 -18.96875 C -220.855469 -18.527344 -221.171875 -18.148438 -221.566406 -17.832031 C -228.941406 -11.890625 -236.347656 -4.878906 -243.785156 3.203125 C -244.128906 3.574219 -244.527344 3.867188 -244.984375 4.078125 C -245.441406 4.289062 -245.921875 4.40625 -246.425781 4.425781 C -246.929688 4.449219 -247.417969 4.371094 -247.890625 4.199219 C -248.363281 4.027344 -248.785156 3.769531 -249.15625 3.425781 C -249.527344 3.085938 -249.816406 2.6875 -250.03125 2.230469 C -250.242188 1.773438 -250.359375 1.292969 -250.378906 0.789062 C -250.402344 0.285156 -250.324219 -0.203125 -250.152344 -0.675781 C -249.976562 -1.148438 -249.71875 -1.574219 -249.378906 -1.941406 Z M -184.15625 -46.742188 C -176.261719 -48.984375 -168.367188 -50.074219 -160.46875 -50.003906 C -157.597656 -49.976562 -154.761719 -49.796875 -151.960938 -49.464844 C -151.460938 -49.40625 -150.992188 -49.253906 -150.550781 -49.007812 C -150.113281 -48.761719 -149.734375 -48.441406 -149.425781 -48.042969 C -149.113281 -47.648438 -148.886719 -47.207031 -148.75 -46.722656 C -148.613281 -46.238281 -148.574219 -45.746094 -148.636719 -45.242188 C -148.695312 -44.742188 -148.847656 -44.273438 -149.09375 -43.832031 C -149.339844 -43.394531 -149.660156 -43.019531 -150.058594 -42.707031 C -150.453125 -42.394531 -150.894531 -42.171875 -151.378906 -42.035156 C -151.863281 -41.898438 -152.355469 -41.859375 -152.855469 -41.917969 C -155.378906 -42.214844 -157.941406 -42.378906 -160.535156 -42.402344 C -167.703125 -42.464844 -174.882812 -41.476562 -182.078125 -39.429688 C -182.5625 -39.292969 -183.054688 -39.25 -183.554688 -39.308594 C -184.054688 -39.367188 -184.527344 -39.519531 -184.96875 -39.765625 C -185.40625 -40.011719 -185.785156 -40.332031 -186.097656 -40.726562 C -186.410156 -41.121094 -186.632812 -41.5625 -186.773438 -42.046875 C -186.910156 -42.53125 -186.949219 -43.023438 -186.890625 -43.523438 C -186.832031 -44.023438 -186.683594 -44.496094 -186.4375 -44.933594 C -186.191406 -45.375 -185.871094 -45.75 -185.476562 -46.066406 C -185.082031 -46.378906 -184.640625 -46.601562 -184.15625 -46.742188 Z M -107.589844 -31.273438 C -106.265625 -30.433594 -104.285156 -29.160156 -101.648438 -27.453125 C -92.847656 -21.757812 -86.074219 -17.652344 -81.328125 -15.136719 C -80.882812 -14.898438 -80.5 -14.585938 -80.179688 -14.199219 C -79.859375 -13.808594 -79.625 -13.375 -79.476562 -12.894531 C -79.328125 -12.410156 -79.277344 -11.917969 -79.328125 -11.417969 C -79.375 -10.917969 -79.515625 -10.441406 -79.753906 -9.996094 C -79.988281 -9.550781 -80.300781 -9.167969 -80.6875 -8.847656 C -81.078125 -8.527344 -81.511719 -8.292969 -81.996094 -8.144531 C -82.476562 -7.996094 -82.96875 -7.945312 -83.46875 -7.996094 C -83.972656 -8.042969 -84.445312 -8.183594 -84.890625 -8.421875 C -89.828125 -11.042969 -96.792969 -15.257812 -105.773438 -21.070312 C -108.394531 -22.765625 -110.359375 -24.027344 -111.664062 -24.859375 C -112.089844 -25.128906 -112.449219 -25.46875 -112.738281 -25.882812 C -113.027344 -26.296875 -113.226562 -26.746094 -113.335938 -27.238281 C -113.445312 -27.730469 -113.457031 -28.226562 -113.371094 -28.722656 C -113.285156 -29.21875 -113.105469 -29.679688 -112.835938 -30.105469 C -112.566406 -30.53125 -112.222656 -30.886719 -111.8125 -31.175781 C -111.398438 -31.46875 -110.945312 -31.667969 -110.453125 -31.777344 C -109.960938 -31.886719 -109.46875 -31.898438 -108.972656 -31.808594 C -108.476562 -31.722656 -108.015625 -31.542969 -107.589844 -31.273438 Z M -38.363281 -2.984375 C -35.839844 -2.871094 -33.277344 -2.855469 -30.671875 -2.925781 C -23.3125 -3.132812 -15.855469 -4.058594 -8.296875 -5.703125 C -7.804688 -5.8125 -7.3125 -5.820312 -6.816406 -5.730469 C -6.320312 -5.640625 -5.859375 -5.460938 -5.433594 -5.1875 C -5.011719 -4.914062 -4.65625 -4.574219 -4.367188 -4.160156 C -4.082031 -3.746094 -3.882812 -3.292969 -3.777344 -2.800781 C -3.667969 -2.304688 -3.660156 -1.8125 -3.75 -1.316406 C -3.839844 -0.820312 -4.019531 -0.359375 -4.292969 0.0625 C -4.566406 0.488281 -4.910156 0.84375 -5.320312 1.132812 C -5.734375 1.417969 -6.1875 1.617188 -6.683594 1.722656 C -14.699219 3.46875 -22.625 4.453125 -30.460938 4.671875 C -33.246094 4.75 -35.992188 4.730469 -38.695312 4.609375 C -39.199219 4.589844 -39.679688 4.472656 -40.136719 4.257812 C -40.59375 4.046875 -40.992188 3.753906 -41.332031 3.382812 C -41.671875 3.011719 -41.929688 2.585938 -42.101562 2.113281 C -42.273438 1.640625 -42.347656 1.152344 -42.328125 0.648438 C -42.304688 0.144531 -42.1875 -0.335938 -41.972656 -0.792969 C -41.761719 -1.25 -41.46875 -1.648438 -41.097656 -1.988281 C -40.726562 -2.328125 -40.304688 -2.585938 -39.828125 -2.757812 C -39.355469 -2.929688 -38.867188 -3.003906 -38.363281 -2.984375 Z M 33.957031 -22.324219 C 42.746094 -27.40625 51.027344 -33.273438 58.796875 -39.929688 C 59.179688 -40.257812 59.613281 -40.5 60.089844 -40.65625 C 60.570312 -40.8125 61.0625 -40.871094 61.5625 -40.835938 C 62.066406 -40.796875 62.542969 -40.660156 62.992188 -40.433594 C 63.441406 -40.207031 63.828125 -39.898438 64.15625 -39.515625 C 64.484375 -39.132812 64.726562 -38.703125 64.882812 -38.222656 C 65.039062 -37.746094 65.097656 -37.253906 65.058594 -36.753906 C 65.019531 -36.25 64.886719 -35.773438 64.660156 -35.324219 C 64.429688 -34.875 64.125 -34.484375 63.742188 -34.15625 C 55.617188 -27.195312 46.957031 -21.058594 37.761719 -15.742188 C 37.324219 -15.492188 36.855469 -15.332031 36.355469 -15.265625 C 35.855469 -15.199219 35.363281 -15.234375 34.875 -15.363281 C 34.390625 -15.492188 33.945312 -15.710938 33.546875 -16.019531 C 33.144531 -16.324219 32.820312 -16.695312 32.570312 -17.132812 C 32.316406 -17.570312 32.15625 -18.039062 32.089844 -18.539062 C 32.027344 -19.039062 32.058594 -19.53125 32.1875 -20.015625 C 32.316406 -20.503906 32.535156 -20.949219 32.84375 -21.347656 C 33.148438 -21.746094 33.523438 -22.074219 33.957031 -22.324219 Z M 88.769531 -74.136719 C 92.628906 -80.1875 95.914062 -86.347656 98.617188 -92.625 C 99.867188 -95.527344 100.980469 -98.421875 101.953125 -101.300781 C 102.113281 -101.78125 102.359375 -102.207031 102.691406 -102.585938 C 103.023438 -102.96875 103.414062 -103.269531 103.863281 -103.492188 C 104.316406 -103.71875 104.792969 -103.847656 105.296875 -103.878906 C 105.800781 -103.914062 106.289062 -103.851562 106.765625 -103.6875 C 107.246094 -103.527344 107.671875 -103.28125 108.050781 -102.949219 C 108.433594 -102.617188 108.734375 -102.226562 108.957031 -101.777344 C 109.179688 -101.324219 109.308594 -100.847656 109.34375 -100.34375 C 109.378906 -99.839844 109.316406 -99.351562 109.152344 -98.875 C 108.117188 -95.796875 106.929688 -92.710938 105.597656 -89.613281 C 102.730469 -82.964844 99.253906 -76.441406 95.171875 -70.046875 C 94.902344 -69.621094 94.558594 -69.265625 94.148438 -68.976562 C 93.734375 -68.6875 93.28125 -68.488281 92.789062 -68.378906 C 92.296875 -68.273438 91.804688 -68.261719 91.308594 -68.351562 C 90.8125 -68.4375 90.351562 -68.617188 89.925781 -68.886719 C 89.5 -69.160156 89.144531 -69.503906 88.855469 -69.914062 C 88.566406 -70.328125 88.367188 -70.78125 88.261719 -71.273438 C 88.152344 -71.765625 88.140625 -72.257812 88.230469 -72.753906 C 88.316406 -73.253906 88.496094 -73.710938 88.769531 -74.136719 Z M 106.632812 -145.933594 C 106.324219 -149.375 105.71875 -154.421875 104.820312 -161.074219 C 103.871094 -168.105469 103.253906 -173.371094 102.972656 -176.863281 C 102.933594 -177.367188 102.992188 -177.859375 103.144531 -178.335938 C 103.300781 -178.816406 103.542969 -179.25 103.867188 -179.632812 C 104.195312 -180.015625 104.582031 -180.324219 105.03125 -180.550781 C 105.480469 -180.78125 105.957031 -180.917969 106.457031 -180.957031 C 106.960938 -180.996094 107.453125 -180.941406 107.929688 -180.785156 C 108.410156 -180.628906 108.84375 -180.390625 109.226562 -180.0625 C 109.609375 -179.734375 109.917969 -179.347656 110.144531 -178.898438 C 110.375 -178.449219 110.511719 -177.972656 110.550781 -177.472656 C 110.820312 -174.113281 111.421875 -168.988281 112.351562 -162.09375 C 113.265625 -155.328125 113.882812 -150.167969 114.203125 -146.613281 C 114.246094 -146.113281 114.195312 -145.621094 114.042969 -145.140625 C 113.894531 -144.65625 113.65625 -144.222656 113.335938 -143.835938 C 113.011719 -143.449219 112.628906 -143.140625 112.179688 -142.90625 C 111.734375 -142.671875 111.261719 -142.53125 110.757812 -142.488281 C 110.257812 -142.441406 109.765625 -142.496094 109.285156 -142.644531 C 108.804688 -142.796875 108.367188 -143.03125 107.980469 -143.355469 C 107.59375 -143.679688 107.285156 -144.0625 107.050781 -144.511719 C 106.816406 -144.957031 106.679688 -145.429688 106.632812 -145.933594 Z M 113.027344 -223.886719 C 118.421875 -232.714844 125.8125 -240.652344 135.210938 -247.699219 C 135.613281 -248 136.058594 -248.214844 136.546875 -248.339844 C 137.035156 -248.464844 137.527344 -248.492188 138.027344 -248.421875 C 138.527344 -248.351562 138.992188 -248.1875 139.425781 -247.929688 C 139.859375 -247.671875 140.226562 -247.34375 140.53125 -246.9375 C 140.832031 -246.535156 141.046875 -246.089844 141.171875 -245.601562 C 141.296875 -245.113281 141.324219 -244.621094 141.25 -244.121094 C 141.179688 -243.621094 141.015625 -243.15625 140.757812 -242.722656 C 140.503906 -242.289062 140.171875 -241.921875 139.769531 -241.617188 C 131.152344 -235.152344 124.398438 -227.921875 119.515625 -219.925781 C 119.253906 -219.496094 118.917969 -219.132812 118.511719 -218.835938 C 118.101562 -218.539062 117.652344 -218.332031 117.164062 -218.210938 C 116.675781 -218.09375 116.179688 -218.074219 115.683594 -218.152344 C 115.183594 -218.230469 114.722656 -218.402344 114.289062 -218.664062 C 113.859375 -218.925781 113.496094 -219.261719 113.199219 -219.667969 C 112.902344 -220.074219 112.695312 -220.523438 112.578125 -221.015625 C 112.460938 -221.503906 112.441406 -222 112.519531 -222.496094 C 112.597656 -222.996094 112.765625 -223.457031 113.027344 -223.886719 Z M 177.730469 -269.265625 C 186.988281 -272.480469 197.105469 -275.320312 208.082031 -277.796875 C 208.574219 -277.90625 209.066406 -277.917969 209.5625 -277.832031 C 210.058594 -277.746094 210.519531 -277.570312 210.945312 -277.300781 C 211.371094 -277.03125 211.730469 -276.691406 212.023438 -276.277344 C 212.3125 -275.867188 212.511719 -275.414062 212.625 -274.921875 C 212.734375 -274.433594 212.746094 -273.9375 212.660156 -273.441406 C 212.574219 -272.945312 212.398438 -272.484375 212.128906 -272.058594 C 211.859375 -271.628906 211.519531 -271.273438 211.105469 -270.980469 C 210.695312 -270.691406 210.242188 -270.492188 209.75 -270.378906 C 199.054688 -267.96875 189.210938 -265.203125 180.21875 -262.085938 C 179.742188 -261.917969 179.253906 -261.851562 178.75 -261.882812 C 178.246094 -261.910156 177.769531 -262.035156 177.316406 -262.253906 C 176.863281 -262.476562 176.46875 -262.773438 176.132812 -263.152344 C 175.800781 -263.527344 175.550781 -263.953125 175.382812 -264.429688 C 175.21875 -264.90625 175.152344 -265.394531 175.179688 -265.898438 C 175.210938 -266.402344 175.335938 -266.878906 175.554688 -267.332031 C 175.773438 -267.789062 176.074219 -268.179688 176.449219 -268.515625 C 176.828125 -268.851562 177.253906 -269.101562 177.730469 -269.265625 Z M 254.464844 -285.480469 C 264.425781 -286.636719 274.875 -287.582031 285.8125 -288.3125 C 286.316406 -288.347656 286.804688 -288.285156 287.285156 -288.121094 C 287.761719 -287.960938 288.1875 -287.714844 288.570312 -287.382812 C 288.949219 -287.050781 289.25 -286.660156 289.472656 -286.207031 C 289.695312 -285.753906 289.824219 -285.277344 289.859375 -284.777344 C 289.894531 -284.273438 289.828125 -283.78125 289.667969 -283.304688 C 289.507812 -282.828125 289.257812 -282.398438 288.929688 -282.019531 C 288.597656 -281.640625 288.203125 -281.339844 287.753906 -281.113281 C 287.300781 -280.890625 286.824219 -280.761719 286.320312 -280.730469 C 275.503906 -280.003906 265.175781 -279.070312 255.339844 -277.929688 C 254.839844 -277.871094 254.347656 -277.914062 253.863281 -278.050781 C 253.378906 -278.1875 252.9375 -278.414062 252.542969 -278.726562 C 252.148438 -279.039062 251.828125 -279.417969 251.582031 -279.855469 C 251.335938 -280.296875 251.1875 -280.765625 251.128906 -281.269531 C 251.070312 -281.769531 251.109375 -282.261719 251.246094 -282.746094 C 251.386719 -283.230469 251.609375 -283.671875 251.925781 -284.066406 C 252.238281 -284.460938 252.613281 -284.78125 253.054688 -285.027344 C 253.492188 -285.273438 253.964844 -285.421875 254.464844 -285.480469 Z M 254.464844 -285.480469 " fill-opacity="1" fill-rule="nonzero"/></g><g clip-path="url(#0d428e67ed)"><path fill="#0339e8" d="M 594.746094 246.800781 C 585.011719 246.800781 575.285156 247.039062 565.5625 247.519531 C 555.839844 247.996094 546.136719 248.710938 536.449219 249.664062 C 526.765625 250.621094 517.105469 251.8125 507.480469 253.238281 C 497.851562 254.667969 488.261719 256.332031 478.71875 258.230469 C 469.171875 260.128906 459.675781 262.261719 450.234375 264.625 C 440.792969 266.992188 431.414062 269.585938 422.101562 272.410156 C 412.785156 275.238281 403.546875 278.289062 394.382812 281.566406 C 385.21875 284.847656 376.140625 288.347656 367.148438 292.074219 C 358.152344 295.800781 349.257812 299.742188 340.460938 303.902344 C 331.660156 308.066406 322.96875 312.441406 314.382812 317.027344 C 305.800781 321.617188 297.335938 326.414062 288.984375 331.417969 C 280.636719 336.421875 272.414062 341.625 264.324219 347.035156 C 256.230469 352.441406 248.273438 358.046875 240.457031 363.84375 C 232.636719 369.640625 224.96875 375.628906 217.441406 381.804688 C 209.917969 387.976562 202.550781 394.332031 195.339844 400.871094 C 188.128906 407.40625 181.078125 414.117188 174.195312 421 C 167.316406 427.882812 160.605469 434.929688 154.066406 442.140625 C 147.53125 449.351562 141.175781 456.722656 135 464.246094 C 128.828125 471.769531 122.839844 479.441406 117.042969 487.257812 C 111.242188 495.074219 105.640625 503.03125 100.234375 511.125 C 94.824219 519.21875 89.621094 527.4375 84.617188 535.789062 C 79.613281 544.136719 74.816406 552.601562 70.226562 561.1875 C 65.636719 569.769531 61.261719 578.460938 57.101562 587.261719 C 52.941406 596.058594 48.996094 604.957031 45.273438 613.949219 C 41.546875 622.941406 38.046875 632.019531 34.765625 641.183594 C 31.488281 650.347656 28.433594 659.585938 25.609375 668.902344 C 22.785156 678.214844 20.1875 687.59375 17.824219 697.035156 C 15.457031 706.476562 13.328125 715.972656 11.429688 725.519531 C 9.527344 735.066406 7.867188 744.652344 6.4375 754.28125 C 5.007812 763.910156 3.816406 773.566406 2.863281 783.253906 C 1.910156 792.9375 1.195312 802.644531 0.714844 812.363281 C 0.238281 822.085938 0 831.8125 0 841.546875 C 0 851.28125 0.238281 861.007812 0.714844 870.730469 C 1.195312 880.453125 1.910156 890.15625 2.863281 899.84375 C 3.816406 909.53125 5.007812 919.1875 6.4375 928.816406 C 7.867188 938.441406 9.527344 948.03125 11.429688 957.578125 C 13.328125 967.125 15.457031 976.617188 17.824219 986.058594 C 20.1875 995.5 22.785156 1004.878906 25.609375 1014.195312 C 28.433594 1023.507812 31.488281 1032.746094 34.765625 1041.910156 C 38.046875 1051.078125 41.546875 1060.15625 45.273438 1069.148438 C 48.996094 1078.140625 52.941406 1087.035156 57.101562 1095.835938 C 61.261719 1104.632812 65.636719 1113.324219 70.226562 1121.910156 C 74.816406 1130.492188 79.613281 1138.960938 84.617188 1147.308594 C 89.621094 1155.65625 94.824219 1163.878906 100.234375 1171.972656 C 105.640625 1180.0625 111.242188 1188.019531 117.042969 1195.835938 C 122.839844 1203.65625 128.828125 1211.328125 135 1218.851562 C 141.175781 1226.375 147.53125 1233.742188 154.066406 1240.953125 C 160.605469 1248.167969 167.316406 1255.214844 174.195312 1262.097656 C 181.078125 1268.980469 188.128906 1275.6875 195.339844 1282.226562 C 202.550781 1288.761719 209.917969 1295.117188 217.441406 1301.292969 C 224.96875 1307.46875 232.636719 1313.453125 240.457031 1319.253906 C 248.273438 1325.050781 256.230469 1330.652344 264.324219 1336.0625 C 272.414062 1341.46875 280.636719 1346.675781 288.984375 1351.679688 C 297.335938 1356.683594 305.800781 1361.480469 314.382812 1366.066406 C 322.96875 1370.65625 331.660156 1375.03125 340.460938 1379.191406 C 349.257812 1383.355469 358.152344 1387.296875 367.148438 1391.023438 C 376.140625 1394.746094 385.21875 1398.25 394.382812 1401.527344 C 403.546875 1404.804688 412.785156 1407.859375 422.101562 1410.683594 C 431.414062 1413.511719 440.792969 1416.105469 450.234375 1418.46875 C 459.675781 1420.835938 469.171875 1422.96875 478.71875 1424.867188 C 488.261719 1426.765625 497.851562 1428.429688 507.480469 1429.855469 C 517.105469 1431.285156 526.765625 1432.476562 536.449219 1433.429688 C 546.136719 1434.382812 555.839844 1435.101562 565.5625 1435.578125 C 575.285156 1436.054688 585.011719 1436.292969 594.746094 1436.292969 C 604.480469 1436.292969 614.207031 1436.054688 623.929688 1435.578125 C 633.652344 1435.101562 643.355469 1434.382812 653.042969 1433.429688 C 662.726562 1432.476562 672.386719 1431.285156 682.011719 1429.855469 C 691.640625 1428.429688 701.230469 1426.765625 710.773438 1424.867188 C 720.320312 1422.96875 729.816406 1420.835938 739.257812 1418.46875 C 748.699219 1416.105469 758.078125 1413.511719 767.390625 1410.683594 C 776.707031 1407.859375 785.945312 1404.808594 795.109375 1401.527344 C 804.273438 1398.25 813.351562 1394.746094 822.34375 1391.023438 C 831.339844 1387.296875 840.234375 1383.355469 849.03125 1379.191406 C 857.832031 1375.03125 866.523438 1370.65625 875.109375 1366.066406 C 883.691406 1361.480469 892.15625 1356.683594 900.507812 1351.679688 C 908.855469 1346.675781 917.078125 1341.46875 925.167969 1336.0625 C 933.261719 1330.652344 941.21875 1325.050781 949.035156 1319.253906 C 956.855469 1313.453125 964.523438 1307.46875 972.050781 1301.292969 C 979.574219 1295.117188 986.941406 1288.761719 994.152344 1282.226562 C 1001.367188 1275.6875 1008.414062 1268.980469 1015.296875 1262.097656 C 1022.179688 1255.214844 1028.886719 1248.167969 1035.425781 1240.953125 C 1041.960938 1233.742188 1048.316406 1226.375 1054.492188 1218.851562 C 1060.664062 1211.328125 1066.652344 1203.65625 1072.449219 1195.835938 C 1078.25 1188.019531 1083.851562 1180.0625 1089.257812 1171.972656 C 1094.667969 1163.878906 1099.871094 1155.65625 1104.875 1147.308594 C 1109.878906 1138.960938 1114.675781 1130.492188 1119.265625 1121.910156 C 1123.855469 1113.324219 1128.230469 1104.632812 1132.390625 1095.835938 C 1136.550781 1087.035156 1140.496094 1078.140625 1144.21875 1069.148438 C 1147.945312 1060.15625 1151.445312 1051.078125 1154.726562 1041.910156 C 1158.003906 1032.746094 1161.058594 1023.507812 1163.882812 1014.195312 C 1166.707031 1004.878906 1169.304688 995.5 1171.667969 986.058594 C 1174.035156 976.617188 1176.164062 967.125 1178.0625 957.578125 C 1179.964844 948.03125 1181.625 938.441406 1183.054688 928.816406 C 1184.484375 919.1875 1185.675781 909.53125 1186.628906 899.84375 C 1187.582031 890.15625 1188.296875 880.453125 1188.777344 870.730469 C 1189.253906 861.007812 1189.492188 851.28125 1189.492188 841.546875 C 1189.492188 831.8125 1189.253906 822.085938 1188.777344 812.363281 C 1188.296875 802.644531 1187.582031 792.9375 1186.628906 783.253906 C 1185.675781 773.566406 1184.484375 763.910156 1183.054688 754.28125 C 1181.625 744.652344 1179.964844 735.066406 1178.0625 725.519531 C 1176.164062 715.972656 1174.035156 706.476562 1171.667969 697.035156 C 1169.304688 687.59375 1166.707031 678.214844 1163.882812 668.902344 C 1161.058594 659.585938 1158.003906 650.347656 1154.726562 641.183594 C 1151.445312 632.019531 1147.945312 622.941406 1144.21875 613.949219 C 1140.496094 604.957031 1136.550781 596.058594 1132.390625 587.261719 C 1128.230469 578.460938 1123.855469 569.769531 1119.265625 561.1875 C 1114.675781 552.601562 1109.882812 544.136719 1104.878906 535.789062 C 1099.871094 527.4375 1094.667969 519.21875 1089.257812 511.125 C 1083.851562 503.03125 1078.25 495.074219 1072.449219 487.257812 C 1066.652344 479.441406 1060.664062 471.769531 1054.492188 464.246094 C 1048.316406 456.722656 1041.960938 449.351562 1035.425781 442.140625 C 1028.886719 434.929688 1022.179688 427.882812 1015.296875 421 C 1008.414062 414.117188 1001.367188 407.40625 994.152344 400.871094 C 986.941406 394.332031 979.574219 387.976562 972.050781 381.804688 C 964.523438 375.628906 956.855469 369.640625 949.035156 363.84375 C 941.21875 358.046875 933.261719 352.441406 925.167969 347.035156 C 917.078125 341.625 908.855469 336.421875 900.507812 331.417969 C 892.15625 326.414062 883.691406 321.617188 875.109375 317.027344 C 866.523438 312.441406 857.832031 308.066406 849.03125 303.902344 C 840.234375 299.742188 831.339844 295.800781 822.34375 292.074219 C 813.351562 288.347656 804.273438 284.847656 795.109375 281.566406 C 785.945312 278.289062 776.707031 275.238281 767.390625 272.410156 C 758.078125 269.585938 748.699219 266.992188 739.257812 264.625 C 729.816406 262.261719 720.320312 260.128906 710.773438 258.230469 C 701.230469 256.332031 691.640625 254.667969 682.011719 253.238281 C 672.386719 251.8125 662.726562 250.621094 653.042969 249.664062 C 643.355469 248.710938 633.652344 247.996094 623.929688 247.519531 C 614.207031 247.039062 604.480469 246.800781 594.746094 246.800781 Z M 946.1875 1057.820312 C 946.183594 1060.03125 946.128906 1062.242188 946.019531 1064.449219 C 945.90625 1066.660156 945.742188 1068.863281 945.523438 1071.0625 C 945.304688 1073.265625 945.035156 1075.460938 944.707031 1077.648438 C 944.382812 1079.835938 944.003906 1082.011719 943.570312 1084.179688 C 943.136719 1086.351562 942.652344 1088.507812 942.113281 1090.652344 C 941.574219 1092.796875 940.980469 1094.925781 940.339844 1097.042969 C 939.695312 1099.160156 939 1101.257812 938.253906 1103.339844 C 937.507812 1105.421875 936.710938 1107.484375 935.863281 1109.527344 C 935.015625 1111.570312 934.121094 1113.589844 933.175781 1115.589844 C 932.226562 1117.589844 931.234375 1119.5625 930.191406 1121.511719 C 929.144531 1123.464844 928.054688 1125.386719 926.917969 1127.28125 C 925.78125 1129.179688 924.597656 1131.046875 923.367188 1132.886719 C 922.140625 1134.722656 920.867188 1136.53125 919.546875 1138.308594 C 918.230469 1140.085938 916.871094 1141.828125 915.46875 1143.535156 C 914.0625 1145.246094 912.621094 1146.917969 911.132812 1148.558594 C 909.648438 1150.195312 908.125 1151.796875 906.558594 1153.363281 C 904.996094 1154.925781 903.394531 1156.449219 901.757812 1157.9375 C 900.117188 1159.421875 898.445312 1160.867188 896.734375 1162.269531 C 895.027344 1163.671875 893.28125 1165.03125 891.507812 1166.351562 C 889.730469 1167.667969 887.921875 1168.941406 886.085938 1170.171875 C 884.246094 1171.398438 882.378906 1172.582031 880.480469 1173.71875 C 878.585938 1174.859375 876.660156 1175.949219 874.710938 1176.992188 C 872.761719 1178.035156 870.785156 1179.03125 868.789062 1179.976562 C 866.789062 1180.921875 864.769531 1181.820312 862.726562 1182.667969 C 860.683594 1183.515625 858.621094 1184.308594 856.539062 1185.054688 C 854.457031 1185.800781 852.355469 1186.496094 850.242188 1187.140625 C 848.125 1187.785156 845.996094 1188.375 843.851562 1188.914062 C 841.703125 1189.453125 839.546875 1189.9375 837.378906 1190.371094 C 835.210938 1190.804688 833.03125 1191.183594 830.84375 1191.507812 C 828.65625 1191.835938 826.464844 1192.109375 824.261719 1192.328125 C 822.0625 1192.546875 819.855469 1192.710938 817.648438 1192.820312 C 815.4375 1192.929688 813.230469 1192.988281 811.015625 1192.988281 L 378.476562 1192.988281 C 376.261719 1192.988281 374.054688 1192.929688 371.84375 1192.820312 C 369.636719 1192.710938 367.429688 1192.546875 365.230469 1192.328125 C 363.027344 1192.109375 360.835938 1191.835938 358.648438 1191.507812 C 356.460938 1191.183594 354.28125 1190.804688 352.113281 1190.371094 C 349.945312 1189.9375 347.789062 1189.453125 345.640625 1188.914062 C 343.496094 1188.375 341.367188 1187.785156 339.25 1187.140625 C 337.136719 1186.496094 335.035156 1185.800781 332.953125 1185.054688 C 330.871094 1184.308594 328.808594 1183.515625 326.765625 1182.667969 C 324.722656 1181.820312 322.703125 1180.921875 320.703125 1179.976562 C 318.707031 1179.03125 316.730469 1178.035156 314.78125 1176.992188 C 312.832031 1175.949219 310.90625 1174.859375 309.011719 1173.71875 C 307.113281 1172.582031 305.246094 1171.398438 303.40625 1170.171875 C 301.570312 1168.941406 299.761719 1167.667969 297.984375 1166.351562 C 296.210938 1165.03125 294.46875 1163.671875 292.757812 1162.269531 C 291.046875 1160.867188 289.375 1159.421875 287.734375 1157.9375 C 286.097656 1156.449219 284.496094 1154.925781 282.933594 1153.363281 C 281.367188 1151.796875 279.84375 1150.195312 278.359375 1148.558594 C 276.871094 1146.917969 275.429688 1145.246094 274.023438 1143.535156 C 272.621094 1141.828125 271.261719 1140.085938 269.945312 1138.308594 C 268.625 1136.53125 267.351562 1134.722656 266.125 1132.886719 C 264.894531 1131.046875 263.710938 1129.179688 262.574219 1127.285156 C 261.4375 1125.386719 260.347656 1123.464844 259.300781 1121.511719 C 258.257812 1119.5625 257.265625 1117.589844 256.316406 1115.589844 C 255.371094 1113.589844 254.476562 1111.570312 253.628906 1109.527344 C 252.78125 1107.484375 251.984375 1105.421875 251.238281 1103.339844 C 250.492188 1101.257812 249.796875 1099.160156 249.152344 1097.042969 C 248.511719 1094.925781 247.917969 1092.796875 247.378906 1090.652344 C 246.84375 1088.507812 246.355469 1086.351562 245.921875 1084.179688 C 245.488281 1082.011719 245.109375 1079.835938 244.785156 1077.648438 C 244.457031 1075.460938 244.1875 1073.265625 243.96875 1071.0625 C 243.75 1068.863281 243.585938 1066.660156 243.472656 1064.449219 C 243.363281 1062.242188 243.308594 1060.03125 243.304688 1057.820312 L 243.304688 625.277344 C 243.308594 623.066406 243.363281 620.855469 243.472656 618.644531 C 243.585938 616.4375 243.75 614.230469 243.96875 612.03125 C 244.1875 609.832031 244.457031 607.636719 244.785156 605.449219 C 245.109375 603.261719 245.488281 601.082031 245.921875 598.914062 C 246.355469 596.746094 246.84375 594.589844 247.378906 592.445312 C 247.917969 590.300781 248.511719 588.167969 249.152344 586.050781 C 249.796875 583.9375 250.492188 581.835938 251.238281 579.753906 C 251.984375 577.675781 252.78125 575.613281 253.628906 573.570312 C 254.476562 571.527344 255.371094 569.503906 256.316406 567.507812 C 257.265625 565.507812 258.257812 563.53125 259.300781 561.582031 C 260.347656 559.632812 261.4375 557.710938 262.574219 555.8125 C 263.710938 553.914062 264.894531 552.046875 266.125 550.210938 C 267.351562 548.371094 268.625 546.5625 269.945312 544.789062 C 271.261719 543.011719 272.621094 541.269531 274.023438 539.558594 C 275.429688 537.851562 276.871094 536.175781 278.359375 534.539062 C 279.84375 532.898438 281.367188 531.296875 282.933594 529.734375 C 284.496094 528.167969 286.097656 526.644531 287.734375 525.160156 C 289.375 523.675781 291.046875 522.230469 292.757812 520.828125 C 294.46875 519.425781 296.210938 518.0625 297.984375 516.746094 C 299.761719 515.429688 301.570312 514.15625 303.40625 512.925781 C 305.246094 511.695312 307.113281 510.511719 309.011719 509.375 C 310.90625 508.238281 312.832031 507.148438 314.78125 506.105469 C 316.730469 505.0625 318.707031 504.066406 320.703125 503.121094 C 322.703125 502.171875 324.722656 501.277344 326.765625 500.429688 C 328.808594 499.582031 330.871094 498.785156 332.953125 498.039062 C 335.035156 497.292969 337.136719 496.597656 339.25 495.957031 C 341.367188 495.3125 343.496094 494.722656 345.640625 494.183594 C 347.789062 493.644531 349.945312 493.15625 352.113281 492.726562 C 354.28125 492.292969 356.460938 491.914062 358.648438 491.585938 C 360.835938 491.261719 363.027344 490.988281 365.230469 490.769531 C 367.429688 490.550781 369.636719 490.386719 371.84375 490.277344 C 374.054688 490.164062 376.261719 490.109375 378.476562 490.105469 L 811.015625 490.105469 C 813.230469 490.109375 815.4375 490.164062 817.648438 490.277344 C 819.855469 490.386719 822.0625 490.550781 824.261719 490.769531 C 826.464844 490.988281 828.65625 491.261719 830.84375 491.585938 C 833.03125 491.914062 835.210938 492.292969 837.378906 492.726562 C 839.546875 493.15625 841.703125 493.644531 843.851562 494.183594 C 845.996094 494.722656 848.125 495.3125 850.242188 495.957031 C 852.355469 496.597656 854.457031 497.292969 856.539062 498.039062 C 858.621094 498.785156 860.683594 499.582031 862.726562 500.429688 C 864.769531 501.277344 866.789062 502.171875 868.789062 503.121094 C 870.785156 504.066406 872.761719 505.0625 874.710938 506.105469 C 876.660156 507.148438 878.585938 508.238281 880.480469 509.375 C 882.378906 510.511719 884.246094 511.695312 886.085938 512.925781 C 887.921875 514.15625 889.730469 515.429688 891.507812 516.746094 C 893.28125 518.0625 895.027344 519.425781 896.734375 520.828125 C 898.445312 522.230469 900.117188 523.675781 901.757812 525.160156 C 903.394531 526.644531 904.996094 528.167969 906.558594 529.734375 C 908.125 531.296875 909.648438 532.898438 911.132812 534.539062 C 912.621094 536.175781 914.0625 537.851562 915.46875 539.558594 C 916.871094 541.269531 918.230469 543.011719 919.546875 544.789062 C 920.867188 546.5625 922.140625 548.371094 923.367188 550.210938 C 924.597656 552.046875 925.78125 553.914062 926.917969 555.8125 C 928.054688 557.710938 929.148438 559.632812 930.191406 561.582031 C 931.234375 563.53125 932.226562 565.507812 933.175781 567.507812 C 934.121094 569.503906 935.015625 571.527344 935.863281 573.570312 C 936.710938 575.613281 937.507812 577.675781 938.253906 579.753906 C 939 581.835938 939.695312 583.9375 940.339844 586.050781 C 940.980469 588.167969 941.574219 590.300781 942.113281 592.445312 C 942.652344 594.589844 943.136719 596.746094 943.570312 598.914062 C 944.003906 601.082031 944.382812 603.261719 944.707031 605.449219 C 945.035156 607.636719 945.304688 609.832031 945.523438 612.03125 C 945.742188 614.230469 945.90625 616.4375 946.019531 618.644531 C 946.128906 620.855469 946.183594 623.066406 946.1875 625.277344 Z M 946.1875 1057.820312 " fill-opacity="1" fill-rule="nonzero"/></g><path fill="#0339e8" d="M 811.015625 544.175781 L 378.476562 544.175781 C 377.148438 544.175781 375.820312 544.210938 374.496094 544.277344 C 373.171875 544.34375 371.847656 544.441406 370.527344 544.574219 C 369.207031 544.703125 367.890625 544.867188 366.578125 545.066406 C 365.265625 545.261719 363.960938 545.488281 362.660156 545.75 C 361.359375 546.007812 360.0625 546.300781 358.777344 546.625 C 357.488281 546.945312 356.210938 547.300781 354.941406 547.6875 C 353.671875 548.074219 352.414062 548.492188 351.164062 548.9375 C 349.914062 549.386719 348.679688 549.863281 347.453125 550.371094 C 346.226562 550.882812 345.015625 551.417969 343.816406 551.988281 C 342.617188 552.554688 341.433594 553.152344 340.261719 553.777344 C 339.09375 554.402344 337.9375 555.058594 336.800781 555.742188 C 335.664062 556.421875 334.542969 557.132812 333.4375 557.871094 C 332.335938 558.609375 331.25 559.371094 330.1875 560.164062 C 329.121094 560.953125 328.074219 561.769531 327.050781 562.613281 C 326.023438 563.453125 325.019531 564.320312 324.035156 565.210938 C 323.054688 566.101562 322.09375 567.019531 321.152344 567.957031 C 320.214844 568.894531 319.300781 569.855469 318.410156 570.835938 C 317.519531 571.820312 316.652344 572.824219 315.808594 573.851562 C 314.96875 574.875 314.152344 575.921875 313.363281 576.988281 C 312.570312 578.054688 311.808594 579.136719 311.070312 580.242188 C 310.332031 581.34375 309.621094 582.464844 308.9375 583.601562 C 308.257812 584.738281 307.601562 585.894531 306.976562 587.0625 C 306.351562 588.234375 305.753906 589.417969 305.1875 590.617188 C 304.617188 591.816406 304.078125 593.027344 303.570312 594.253906 C 303.0625 595.480469 302.585938 596.71875 302.136719 597.964844 C 301.6875 599.214844 301.273438 600.476562 300.886719 601.746094 C 300.5 603.011719 300.144531 604.292969 299.820312 605.578125 C 299.5 606.867188 299.207031 608.160156 298.945312 609.460938 C 298.6875 610.761719 298.457031 612.070312 298.261719 613.382812 C 298.066406 614.691406 297.902344 616.007812 297.773438 617.328125 C 297.640625 618.648438 297.542969 619.972656 297.476562 621.296875 C 297.410156 622.625 297.375 623.949219 297.375 625.277344 L 297.375 1057.820312 C 297.375 1059.144531 297.410156 1060.472656 297.476562 1061.796875 C 297.542969 1063.121094 297.640625 1064.445312 297.773438 1065.765625 C 297.902344 1067.085938 298.066406 1068.402344 298.261719 1069.714844 C 298.457031 1071.027344 298.6875 1072.332031 298.945312 1073.636719 C 299.207031 1074.9375 299.5 1076.230469 299.820312 1077.515625 C 300.144531 1078.804688 300.5 1080.082031 300.886719 1081.351562 C 301.273438 1082.621094 301.6875 1083.878906 302.136719 1085.128906 C 302.585938 1086.378906 303.0625 1087.617188 303.570312 1088.839844 C 304.078125 1090.066406 304.617188 1091.277344 305.1875 1092.476562 C 305.753906 1093.675781 306.351562 1094.863281 306.976562 1096.03125 C 307.601562 1097.203125 308.257812 1098.355469 308.9375 1099.492188 C 309.621094 1100.632812 310.332031 1101.753906 311.070312 1102.855469 C 311.808594 1103.957031 312.570312 1105.042969 313.363281 1106.109375 C 314.152344 1107.171875 314.96875 1108.21875 315.808594 1109.246094 C 316.652344 1110.269531 317.519531 1111.273438 318.410156 1112.257812 C 319.300781 1113.242188 320.214844 1114.203125 321.152344 1115.140625 C 322.09375 1116.078125 323.054688 1116.992188 324.035156 1117.882812 C 325.019531 1118.773438 326.023438 1119.640625 327.050781 1120.484375 C 328.074219 1121.324219 329.121094 1122.140625 330.1875 1122.933594 C 331.25 1123.722656 332.335938 1124.488281 333.4375 1125.222656 C 334.542969 1125.960938 335.664062 1126.671875 336.800781 1127.355469 C 337.9375 1128.039062 339.09375 1128.691406 340.261719 1129.316406 C 341.433594 1129.945312 342.617188 1130.539062 343.816406 1131.109375 C 345.015625 1131.675781 346.226562 1132.214844 347.453125 1132.722656 C 348.679688 1133.230469 349.914062 1133.710938 351.164062 1134.15625 C 352.414062 1134.605469 353.671875 1135.023438 354.941406 1135.40625 C 356.210938 1135.792969 357.488281 1136.148438 358.777344 1136.472656 C 360.0625 1136.796875 361.359375 1137.085938 362.660156 1137.347656 C 363.960938 1137.605469 365.265625 1137.835938 366.578125 1138.03125 C 367.890625 1138.226562 369.207031 1138.390625 370.527344 1138.523438 C 371.847656 1138.652344 373.171875 1138.753906 374.496094 1138.820312 C 375.820312 1138.886719 377.148438 1138.917969 378.476562 1138.921875 L 811.015625 1138.921875 C 812.34375 1138.917969 813.671875 1138.886719 814.996094 1138.820312 C 816.320312 1138.753906 817.644531 1138.652344 818.964844 1138.523438 C 820.285156 1138.390625 821.601562 1138.226562 822.914062 1138.03125 C 824.226562 1137.835938 825.53125 1137.605469 826.832031 1137.347656 C 828.132812 1137.085938 829.429688 1136.796875 830.714844 1136.472656 C 832.003906 1136.148438 833.28125 1135.792969 834.550781 1135.40625 C 835.820312 1135.023438 837.078125 1134.605469 838.328125 1134.15625 C 839.578125 1133.710938 840.8125 1133.230469 842.039062 1132.722656 C 843.265625 1132.214844 844.476562 1131.675781 845.675781 1131.109375 C 846.875 1130.539062 848.058594 1129.945312 849.230469 1129.316406 C 850.398438 1128.691406 851.554688 1128.039062 852.691406 1127.355469 C 853.828125 1126.671875 854.949219 1125.960938 856.054688 1125.222656 C 857.15625 1124.488281 858.242188 1123.722656 859.304688 1122.933594 C 860.371094 1122.140625 861.417969 1121.324219 862.441406 1120.484375 C 863.46875 1119.640625 864.472656 1118.773438 865.457031 1117.882812 C 866.4375 1116.992188 867.398438 1116.078125 868.339844 1115.140625 C 869.277344 1114.203125 870.191406 1113.242188 871.082031 1112.257812 C 871.972656 1111.273438 872.839844 1110.269531 873.683594 1109.246094 C 874.523438 1108.21875 875.339844 1107.171875 876.128906 1106.109375 C 876.921875 1105.042969 877.683594 1103.957031 878.421875 1102.855469 C 879.160156 1101.753906 879.871094 1100.632812 880.554688 1099.492188 C 881.234375 1098.355469 881.890625 1097.203125 882.515625 1096.03125 C 883.140625 1094.863281 883.738281 1093.675781 884.308594 1092.476562 C 884.875 1091.277344 885.414062 1090.066406 885.921875 1088.839844 C 886.429688 1087.617188 886.90625 1086.378906 887.355469 1085.128906 C 887.804688 1083.878906 888.21875 1082.621094 888.605469 1081.351562 C 888.992188 1080.082031 889.347656 1078.804688 889.671875 1077.515625 C 889.992188 1076.230469 890.285156 1074.9375 890.546875 1073.636719 C 890.804688 1072.332031 891.035156 1071.027344 891.230469 1069.714844 C 891.425781 1068.402344 891.589844 1067.085938 891.71875 1065.765625 C 891.851562 1064.445312 891.949219 1063.121094 892.015625 1061.796875 C 892.082031 1060.472656 892.117188 1059.144531 892.121094 1057.820312 L 892.121094 625.277344 C 892.117188 623.949219 892.082031 622.625 892.015625 621.296875 C 891.949219 619.972656 891.851562 618.648438 891.71875 617.328125 C 891.589844 616.007812 891.425781 614.691406 891.230469 613.382812 C 891.035156 612.070312 890.804688 610.761719 890.546875 609.460938 C 890.285156 608.160156 889.992188 606.867188 889.671875 605.578125 C 889.347656 604.292969 888.992188 603.011719 888.605469 601.746094 C 888.21875 600.476562 887.804688 599.214844 887.355469 597.964844 C 886.90625 596.71875 886.429688 595.480469 885.921875 594.253906 C 885.414062 593.027344 884.875 591.816406 884.308594 590.617188 C 883.738281 589.417969 883.140625 588.234375 882.515625 587.0625 C 881.890625 585.894531 881.234375 584.738281 880.554688 583.601562 C 879.871094 582.464844 879.160156 581.34375 878.421875 580.242188 C 877.683594 579.136719 876.921875 578.054688 876.128906 576.988281 C 875.339844 575.921875 874.523438 574.875 873.683594 573.851562 C 872.839844 572.824219 871.972656 571.820312 871.082031 570.835938 C 870.191406 569.855469 869.277344 568.894531 868.339844 567.957031 C 867.398438 567.015625 866.4375 566.101562 865.457031 565.210938 C 864.472656 564.320312 863.46875 563.453125 862.441406 562.613281 C 861.417969 561.769531 860.371094 560.953125 859.304688 560.164062 C 858.242188 559.371094 857.15625 558.609375 856.054688 557.871094 C 854.949219 557.132812 853.828125 556.421875 852.691406 555.742188 C 851.554688 555.058594 850.398438 554.402344 849.230469 553.777344 C 848.058594 553.152344 846.875 552.554688 845.675781 551.988281 C 844.476562 551.417969 843.265625 550.882812 842.039062 550.371094 C 840.8125 549.863281 839.578125 549.386719 838.328125 548.9375 C 837.078125 548.492188 835.820312 548.074219 834.550781 547.6875 C 833.28125 547.300781 832.003906 546.945312 830.714844 546.625 C 829.429688 546.300781 828.132812 546.007812 826.832031 545.75 C 825.53125 545.488281 824.226562 545.261719 822.914062 545.066406 C 821.601562 544.867188 820.285156 544.703125 818.964844 544.574219 C 817.644531 544.441406 816.320312 544.34375 814.996094 544.277344 C 813.671875 544.210938 812.34375 544.175781 811.015625 544.175781 Z M 594.746094 1030.785156 C 591.648438 1030.785156 588.554688 1030.710938 585.460938 1030.558594 C 582.367188 1030.40625 579.28125 1030.175781 576.199219 1029.875 C 573.117188 1029.570312 570.042969 1029.191406 566.980469 1028.738281 C 563.914062 1028.28125 560.863281 1027.753906 557.828125 1027.148438 C 554.789062 1026.542969 551.769531 1025.867188 548.765625 1025.113281 C 545.761719 1024.363281 542.777344 1023.535156 539.8125 1022.636719 C 536.851562 1021.738281 533.910156 1020.765625 530.992188 1019.722656 C 528.078125 1018.679688 525.1875 1017.566406 522.328125 1016.378906 C 519.464844 1015.195312 516.636719 1013.941406 513.835938 1012.617188 C 511.035156 1011.292969 508.273438 1009.898438 505.539062 1008.441406 C 502.808594 1006.980469 500.113281 1005.453125 497.457031 1003.863281 C 494.800781 1002.269531 492.1875 1000.613281 489.613281 998.894531 C 487.035156 997.171875 484.503906 995.390625 482.015625 993.542969 C 479.53125 991.699219 477.089844 989.796875 474.695312 987.832031 C 472.300781 985.867188 469.957031 983.84375 467.664062 981.761719 C 465.367188 979.683594 463.125 977.546875 460.933594 975.359375 C 458.746094 973.167969 456.609375 970.925781 454.53125 968.632812 C 452.449219 966.335938 450.429688 963.992188 448.464844 961.597656 C 446.5 959.203125 444.59375 956.765625 442.75 954.277344 C 440.90625 951.789062 439.121094 949.257812 437.402344 946.683594 C 435.679688 944.105469 434.023438 941.492188 432.433594 938.835938 C 430.839844 936.179688 429.3125 933.484375 427.855469 930.753906 C 426.394531 928.023438 425 925.257812 423.675781 922.457031 C 422.351562 919.65625 421.097656 916.828125 419.914062 913.964844 C 418.726562 911.105469 417.613281 908.214844 416.570312 905.300781 C 415.527344 902.382812 414.554688 899.445312 413.65625 896.480469 C 412.757812 893.515625 411.933594 890.53125 411.179688 887.527344 C 410.425781 884.523438 409.75 881.503906 409.144531 878.464844 C 408.539062 875.429688 408.011719 872.378906 407.558594 869.316406 C 407.101562 866.25 406.722656 863.179688 406.421875 860.097656 C 406.117188 857.015625 405.890625 853.925781 405.738281 850.832031 C 405.585938 847.738281 405.507812 844.644531 405.507812 841.546875 C 405.507812 838.449219 405.585938 835.355469 405.738281 832.261719 C 405.890625 829.167969 406.117188 826.082031 406.421875 823 C 406.722656 819.917969 407.101562 816.84375 407.558594 813.78125 C 408.011719 810.71875 408.539062 807.667969 409.144531 804.628906 C 409.75 801.59375 410.425781 798.570312 411.179688 795.566406 C 411.933594 792.5625 412.757812 789.578125 413.65625 786.613281 C 414.554688 783.652344 415.527344 780.710938 416.570312 777.796875 C 417.613281 774.878906 418.726562 771.992188 419.914062 769.128906 C 421.097656 766.269531 422.351562 763.4375 423.675781 760.636719 C 425 757.839844 426.394531 755.074219 427.855469 752.34375 C 429.3125 749.609375 430.839844 746.917969 432.433594 744.261719 C 434.023438 741.605469 435.679688 738.988281 437.402344 736.414062 C 439.121094 733.839844 440.90625 731.308594 442.75 728.820312 C 444.59375 726.332031 446.5 723.890625 448.464844 721.496094 C 450.429688 719.101562 452.449219 716.757812 454.53125 714.464844 C 456.609375 712.167969 458.746094 709.925781 460.933594 707.738281 C 463.125 705.546875 465.367188 703.410156 467.664062 701.332031 C 469.957031 699.253906 472.300781 697.230469 474.695312 695.265625 C 477.089844 693.300781 479.53125 691.394531 482.015625 689.550781 C 484.503906 687.707031 487.035156 685.921875 489.613281 684.203125 C 492.1875 682.480469 494.800781 680.824219 497.457031 679.234375 C 500.113281 677.640625 502.808594 676.117188 505.539062 674.65625 C 508.273438 673.195312 511.035156 671.804688 513.835938 670.480469 C 516.636719 669.15625 519.46875 667.902344 522.328125 666.714844 C 525.1875 665.53125 528.078125 664.414062 530.992188 663.371094 C 533.910156 662.328125 536.851562 661.359375 539.8125 660.460938 C 542.777344 659.558594 545.761719 658.734375 548.765625 657.980469 C 551.769531 657.230469 554.789062 656.550781 557.828125 655.945312 C 560.867188 655.34375 563.914062 654.8125 566.980469 654.359375 C 570.042969 653.902344 573.117188 653.523438 576.199219 653.222656 C 579.28125 652.917969 582.367188 652.691406 585.460938 652.539062 C 588.554688 652.386719 591.648438 652.308594 594.746094 652.308594 C 597.84375 652.308594 600.9375 652.386719 604.03125 652.539062 C 607.125 652.691406 610.210938 652.917969 613.292969 653.222656 C 616.375 653.523438 619.449219 653.90625 622.511719 654.359375 C 625.578125 654.8125 628.628906 655.34375 631.664062 655.945312 C 634.703125 656.550781 637.722656 657.230469 640.726562 657.980469 C 643.730469 658.734375 646.714844 659.558594 649.679688 660.460938 C 652.640625 661.359375 655.582031 662.328125 658.5 663.371094 C 661.414062 664.414062 664.304688 665.53125 667.164062 666.714844 C 670.023438 667.902344 672.855469 669.15625 675.65625 670.480469 C 678.457031 671.804688 681.21875 673.195312 683.953125 674.65625 C 686.683594 676.117188 689.378906 677.640625 692.035156 679.234375 C 694.691406 680.824219 697.304688 682.480469 699.878906 684.203125 C 702.457031 685.921875 704.988281 687.707031 707.476562 689.550781 C 709.960938 691.394531 712.402344 693.300781 714.796875 695.265625 C 717.191406 697.230469 719.535156 699.253906 721.832031 701.332031 C 724.125 703.410156 726.367188 705.546875 728.558594 707.738281 C 730.746094 709.925781 732.882812 712.167969 734.960938 714.464844 C 737.042969 716.757812 739.0625 719.101562 741.027344 721.496094 C 742.992188 723.890625 744.898438 726.332031 746.742188 728.820312 C 748.589844 731.308594 750.371094 733.839844 752.089844 736.414062 C 753.8125 738.988281 755.46875 741.605469 757.058594 744.261719 C 758.652344 746.917969 760.179688 749.609375 761.636719 752.34375 C 763.097656 755.074219 764.492188 757.839844 765.816406 760.636719 C 767.140625 763.4375 768.394531 766.269531 769.578125 769.128906 C 770.765625 771.992188 771.878906 774.878906 772.921875 777.796875 C 773.964844 780.710938 774.9375 783.652344 775.835938 786.613281 C 776.734375 789.578125 777.558594 792.5625 778.3125 795.566406 C 779.066406 798.570312 779.742188 801.59375 780.347656 804.628906 C 780.953125 807.667969 781.480469 810.71875 781.933594 813.78125 C 782.390625 816.84375 782.769531 819.917969 783.074219 823 C 783.375 826.082031 783.605469 829.167969 783.753906 832.261719 C 783.90625 835.355469 783.984375 838.449219 783.984375 841.546875 C 783.980469 844.644531 783.898438 847.738281 783.746094 850.828125 C 783.589844 853.921875 783.359375 857.007812 783.050781 860.089844 C 782.746094 863.171875 782.363281 866.242188 781.90625 869.304688 C 781.449219 872.367188 780.917969 875.414062 780.308594 878.449219 C 779.703125 881.488281 779.023438 884.503906 778.269531 887.507812 C 777.511719 890.511719 776.683594 893.492188 775.785156 896.457031 C 774.882812 899.417969 773.910156 902.355469 772.867188 905.269531 C 771.820312 908.183594 770.703125 911.070312 769.519531 913.929688 C 768.332031 916.789062 767.074219 919.617188 765.75 922.417969 C 764.425781 925.214844 763.03125 927.980469 761.570312 930.707031 C 760.109375 933.4375 758.585938 936.132812 756.992188 938.785156 C 755.398438 941.441406 753.742188 944.054688 752.023438 946.628906 C 750.300781 949.203125 748.519531 951.734375 746.671875 954.21875 C 744.828125 956.707031 742.921875 959.144531 740.960938 961.539062 C 738.996094 963.929688 736.972656 966.273438 734.894531 968.566406 C 732.8125 970.863281 730.679688 973.101562 728.492188 975.292969 C 726.300781 977.480469 724.058594 979.617188 721.765625 981.695312 C 719.472656 983.773438 717.128906 985.796875 714.734375 987.761719 C 712.34375 989.726562 709.902344 991.628906 707.417969 993.476562 C 704.929688 995.320312 702.402344 997.101562 699.828125 998.824219 C 697.253906 1000.542969 694.640625 1002.199219 691.984375 1003.792969 C 689.328125 1005.386719 686.636719 1006.914062 683.90625 1008.375 C 681.175781 1009.835938 678.414062 1011.226562 675.617188 1012.550781 C 672.816406 1013.878906 669.988281 1015.132812 667.128906 1016.320312 C 664.269531 1017.507812 661.382812 1018.621094 658.46875 1019.667969 C 655.554688 1020.710938 652.617188 1021.683594 649.652344 1022.585938 C 646.691406 1023.488281 643.710938 1024.316406 640.707031 1025.070312 C 637.703125 1025.824219 634.683594 1026.503906 631.648438 1027.113281 C 628.613281 1027.71875 625.5625 1028.25 622.5 1028.707031 C 619.441406 1029.164062 616.367188 1029.546875 613.289062 1029.851562 C 610.207031 1030.160156 607.121094 1030.390625 604.027344 1030.546875 C 600.9375 1030.703125 597.84375 1030.78125 594.746094 1030.785156 Z M 594.746094 1030.785156 " fill-opacity="1" fill-rule="nonzero"/><path fill="#0339e8" d="M 729.914062 841.546875 C 729.914062 843.761719 729.863281 845.972656 729.753906 848.179688 C 729.644531 850.390625 729.480469 852.59375 729.265625 854.796875 C 729.046875 857 728.777344 859.191406 728.453125 861.382812 C 728.128906 863.570312 727.75 865.75 727.320312 867.917969 C 726.886719 870.085938 726.402344 872.246094 725.863281 874.390625 C 725.328125 876.539062 724.738281 878.667969 724.09375 880.785156 C 723.453125 882.902344 722.757812 885.003906 722.015625 887.085938 C 721.269531 889.167969 720.472656 891.230469 719.625 893.273438 C 718.78125 895.320312 717.882812 897.339844 716.9375 899.339844 C 715.992188 901.339844 714.996094 903.316406 713.953125 905.265625 C 712.914062 907.21875 711.820312 909.140625 710.683594 911.039062 C 709.546875 912.9375 708.363281 914.804688 707.136719 916.644531 C 705.90625 918.484375 704.632812 920.292969 703.316406 922.066406 C 701.996094 923.84375 700.636719 925.589844 699.234375 927.296875 C 697.832031 929.007812 696.386719 930.683594 694.898438 932.320312 C 693.414062 933.960938 691.890625 935.5625 690.324219 937.128906 C 688.761719 938.691406 687.160156 940.214844 685.519531 941.703125 C 683.882812 943.1875 682.207031 944.632812 680.496094 946.035156 C 678.785156 947.4375 677.042969 948.800781 675.265625 950.117188 C 673.488281 951.433594 671.679688 952.707031 669.84375 953.9375 C 668.003906 955.167969 666.132812 956.347656 664.238281 957.488281 C 662.339844 958.625 660.414062 959.714844 658.464844 960.757812 C 656.515625 961.800781 654.539062 962.792969 652.539062 963.738281 C 650.539062 964.683594 648.515625 965.582031 646.472656 966.429688 C 644.429688 967.273438 642.367188 968.070312 640.285156 968.816406 C 638.199219 969.5625 636.101562 970.253906 633.984375 970.898438 C 631.867188 971.539062 629.734375 972.128906 627.589844 972.667969 C 625.445312 973.203125 623.285156 973.6875 621.117188 974.121094 C 618.945312 974.550781 616.769531 974.929688 614.578125 975.253906 C 612.390625 975.578125 610.195312 975.851562 607.996094 976.066406 C 605.792969 976.285156 603.589844 976.445312 601.378906 976.554688 C 599.167969 976.664062 596.957031 976.71875 594.746094 976.71875 C 592.535156 976.71875 590.324219 976.664062 588.113281 976.554688 C 585.902344 976.445312 583.699219 976.285156 581.496094 976.066406 C 579.296875 975.851562 577.101562 975.578125 574.914062 975.253906 C 572.722656 974.929688 570.546875 974.550781 568.375 974.121094 C 566.207031 973.6875 564.046875 973.203125 561.902344 972.667969 C 559.757812 972.128906 557.625 971.539062 555.507812 970.898438 C 553.390625 970.253906 551.292969 969.5625 549.207031 968.816406 C 547.125 968.070312 545.0625 967.273438 543.019531 966.429688 C 540.976562 965.582031 538.953125 964.683594 536.953125 963.738281 C 534.953125 962.792969 532.976562 961.800781 531.027344 960.757812 C 529.078125 959.714844 527.152344 958.625 525.253906 957.488281 C 523.359375 956.347656 521.488281 955.167969 519.648438 953.9375 C 517.808594 952.707031 516.003906 951.433594 514.226562 950.117188 C 512.449219 948.800781 510.707031 947.4375 508.996094 946.035156 C 507.285156 944.632812 505.609375 943.1875 503.972656 941.703125 C 502.332031 940.214844 500.730469 938.691406 499.167969 937.128906 C 497.601562 935.5625 496.078125 933.960938 494.59375 932.320312 C 493.105469 930.683594 491.660156 929.007812 490.257812 927.296875 C 488.855469 925.589844 487.496094 923.84375 486.175781 922.066406 C 484.859375 920.292969 483.585938 918.484375 482.355469 916.644531 C 481.128906 914.804688 479.945312 912.9375 478.808594 911.039062 C 477.671875 909.140625 476.578125 907.21875 475.539062 905.265625 C 474.496094 903.316406 473.5 901.339844 472.554688 899.339844 C 471.609375 897.339844 470.710938 895.320312 469.867188 893.273438 C 469.019531 891.230469 468.222656 889.167969 467.476562 887.085938 C 466.734375 885.003906 466.039062 882.902344 465.398438 880.785156 C 464.753906 878.667969 464.164062 876.539062 463.628906 874.390625 C 463.089844 872.246094 462.605469 870.085938 462.171875 867.917969 C 461.742188 865.75 461.363281 863.570312 461.039062 861.382812 C 460.714844 859.191406 460.445312 857 460.226562 854.796875 C 460.011719 852.59375 459.847656 850.390625 459.738281 848.179688 C 459.628906 845.972656 459.578125 843.761719 459.578125 841.546875 C 459.578125 839.335938 459.628906 837.125 459.738281 834.914062 C 459.847656 832.707031 460.011719 830.5 460.226562 828.300781 C 460.445312 826.097656 460.714844 823.902344 461.039062 821.714844 C 461.363281 819.527344 461.742188 817.347656 462.171875 815.175781 C 462.605469 813.007812 463.089844 810.851562 463.628906 808.703125 C 464.164062 806.558594 464.753906 804.425781 465.398438 802.308594 C 466.039062 800.191406 466.734375 798.09375 467.476562 796.011719 C 468.222656 793.925781 469.019531 791.863281 469.867188 789.820312 C 470.710938 787.777344 471.609375 785.753906 472.554688 783.753906 C 473.5 781.753906 474.496094 779.78125 475.539062 777.828125 C 476.578125 775.878906 477.671875 773.953125 478.808594 772.058594 C 479.945312 770.160156 481.128906 768.289062 482.355469 766.453125 C 483.585938 764.613281 484.859375 762.804688 486.175781 761.027344 C 487.496094 759.25 488.855469 757.507812 490.257812 755.796875 C 491.660156 754.085938 493.105469 752.414062 494.59375 750.773438 C 496.078125 749.132812 497.601562 747.53125 499.167969 745.96875 C 500.730469 744.402344 502.332031 742.878906 503.972656 741.394531 C 505.609375 739.90625 507.285156 738.464844 508.996094 737.058594 C 510.707031 735.65625 512.449219 734.296875 514.226562 732.980469 C 516.003906 731.660156 517.808594 730.386719 519.648438 729.160156 C 521.488281 727.929688 523.359375 726.746094 525.253906 725.609375 C 527.152344 724.472656 529.078125 723.382812 531.027344 722.339844 C 532.980469 721.296875 534.953125 720.300781 536.953125 719.355469 C 538.953125 718.410156 540.976562 717.515625 543.019531 716.667969 C 545.0625 715.820312 547.125 715.023438 549.207031 714.28125 C 551.292969 713.535156 553.390625 712.839844 555.507812 712.199219 C 557.625 711.554688 559.757812 710.964844 561.902344 710.429688 C 564.046875 709.890625 566.207031 709.40625 568.375 708.976562 C 570.546875 708.542969 572.722656 708.164062 574.914062 707.839844 C 577.101562 707.515625 579.296875 707.246094 581.496094 707.027344 C 583.699219 706.8125 585.902344 706.648438 588.113281 706.542969 C 590.324219 706.433594 592.535156 706.378906 594.746094 706.378906 C 596.957031 706.378906 599.167969 706.433594 601.378906 706.542969 C 603.589844 706.648438 605.792969 706.8125 607.996094 707.027344 C 610.195312 707.246094 612.390625 707.515625 614.578125 707.839844 C 616.769531 708.164062 618.945312 708.542969 621.117188 708.976562 C 623.285156 709.40625 625.445312 709.890625 627.589844 710.429688 C 629.734375 710.964844 631.867188 711.554688 633.984375 712.199219 C 636.101562 712.839844 638.199219 713.535156 640.285156 714.28125 C 642.367188 715.023438 644.429688 715.820312 646.472656 716.667969 C 648.515625 717.515625 650.539062 718.410156 652.539062 719.355469 C 654.539062 720.300781 656.515625 721.296875 658.464844 722.339844 C 660.414062 723.382812 662.339844 724.472656 664.238281 725.609375 C 666.132812 726.746094 668.003906 727.929688 669.84375 729.160156 C 671.679688 730.386719 673.488281 731.660156 675.265625 732.980469 C 677.042969 734.296875 678.785156 735.65625 680.496094 737.058594 C 682.207031 738.464844 683.882812 739.90625 685.519531 741.394531 C 687.160156 742.878906 688.761719 744.402344 690.324219 745.96875 C 691.890625 747.53125 693.414062 749.132812 694.898438 750.773438 C 696.386719 752.414062 697.832031 754.085938 699.234375 755.796875 C 700.636719 757.507812 701.996094 759.25 703.316406 761.027344 C 704.632812 762.804688 705.90625 764.613281 707.136719 766.453125 C 708.363281 768.289062 709.546875 770.160156 710.683594 772.058594 C 711.820312 773.953125 712.914062 775.878906 713.953125 777.828125 C 714.996094 779.78125 715.992188 781.753906 716.9375 783.753906 C 717.882812 785.753906 718.78125 787.777344 719.625 789.820312 C 720.472656 791.863281 721.269531 793.925781 722.015625 796.011719 C 722.757812 798.09375 723.453125 800.191406 724.09375 802.308594 C 724.738281 804.425781 725.328125 806.558594 725.863281 808.703125 C 726.402344 810.851562 726.886719 813.007812 727.320312 815.175781 C 727.75 817.347656 728.128906 819.527344 728.453125 821.714844 C 728.777344 823.902344 729.046875 826.097656 729.265625 828.300781 C 729.480469 830.5 729.644531 832.707031 729.753906 834.914062 C 729.863281 837.125 729.914062 839.335938 729.914062 841.546875 Z M 729.914062 841.546875 " fill-opacity="1" fill-rule="nonzero"/></g></g></g></svg>