<svg xmlns="http://www.w3.org/2000/svg" xmlns:xlink="http://www.w3.org/1999/xlink" width="1587" zoomAndPan="magnify" viewBox="0 0 1190.25 1683.749949" height="2245" preserveAspectRatio="xMidYMid meet" version="1.0"><defs><clipPath id="055bb389a5"><path d="M 0 0.40625 L 1189.5 0.40625 L 1189.5 1683.09375 L 0 1683.09375 Z M 0 0.40625 " clip-rule="nonzero"/></clipPath><clipPath id="bbe47d7119"><path d="M 0 0.40625 L 1189.199219 0.40625 L 1189.199219 1682.667969 L 0 1682.667969 Z M 0 0.40625 " clip-rule="nonzero"/></clipPath><clipPath id="9b12f32cd5"><path d="M 904 981 L 1038.265625 981 L 1038.265625 1137 L 904 1137 Z M 904 981 " clip-rule="nonzero"/></clipPath><clipPath id="43f8c0d33a"><path d="M 340 582 L 752 582 L 752 1302.585938 L 340 1302.585938 Z M 340 582 " clip-rule="nonzero"/></clipPath><clipPath id="68d0589892"><path d="M 151.046875 574 L 388 574 L 388 1108 L 151.046875 1108 Z M 151.046875 574 " clip-rule="nonzero"/></clipPath><clipPath id="3b3fa83b39"><path d="M 0 0.40625 L 290 0.40625 L 290 68 L 0 68 Z M 0 0.40625 " clip-rule="nonzero"/></clipPath><clipPath id="1261e1f33b"><rect x="0" width="1190" y="0" height="1684"/></clipPath></defs><g clip-path="url(#055bb389a5)"><path fill="#ffffff" d="M 0 0.40625 L 1189.5 0.40625 L 1189.5 1683.09375 L 0 1683.09375 Z M 0 0.40625 " fill-opacity="1" fill-rule="nonzero"/><g transform="matrix(1, 0, 0, 1, 0, 0.000000000000081102)"><g clip-path="url(#1261e1f33b)"><g clip-path="url(#bbe47d7119)"><path fill="#ffffff" d="M 0 0.40625 L 1189.199219 0.40625 L 1189.199219 1682.667969 L 0 1682.667969 Z M 0 0.40625 " fill-opacity="1" fill-rule="nonzero"/></g><path fill="#0339e8" d="M 628.308594 1239.453125 C 582.671875 1239.453125 543.488281 1233.140625 507.8125 1220.253906 C 505.355469 1219.363281 503.332031 1217.5625 502.164062 1215.226562 L 485.492188 1181.886719 C 484.914062 1180.734375 484.074219 1179.390625 483.183594 1177.96875 C 482.085938 1176.203125 480.945312 1174.386719 479.933594 1172.363281 C 479.90625 1172.308594 479.878906 1172.253906 479.851562 1172.199219 C 474.167969 1160.308594 468.945312 1148.710938 463.410156 1136.429688 C 460.5 1129.964844 457.492188 1123.277344 454.421875 1116.589844 C 453.417969 1114.488281 453.144531 1112.628906 453.078125 1111.367188 C 431.144531 1061.289062 414.191406 1009.816406 399.75 949.484375 C 389.507812 907.855469 378.449219 858.089844 374.101562 805.046875 C 374.089844 804.882812 374.082031 804.726562 374.074219 804.566406 C 374 804.21875 373.804688 803.519531 373.667969 803.042969 C 373.183594 801.351562 372.59375 799.277344 372.492188 796.933594 C 365.585938 729.960938 365.078125 662.476562 370.925781 590.632812 C 371.324219 585.714844 375.1875 581.789062 380.097656 581.320312 C 515.191406 568.296875 650.886719 559.5 777.398438 551.921875 C 782.84375 551.589844 787.546875 555.59375 788.132812 561 C 794.019531 615.660156 808.109375 667.808594 821.113281 711.617188 C 821.125 711.664062 821.140625 711.703125 821.152344 711.75 C 838.363281 772.863281 854.980469 824.699219 873.441406 874.890625 C 875.382812 880.164062 872.683594 886.027344 867.398438 887.96875 C 862.117188 889.910156 856.261719 887.199219 854.320312 881.925781 C 835.683594 831.242188 818.917969 778.945312 801.5625 717.347656 C 789.0625 675.242188 775.585938 625.519531 768.996094 572.839844 C 648.101562 580.113281 519.097656 588.574219 390.554688 600.796875 C 385.507812 668.351562 386.25 732.046875 392.78125 795.242188 C 392.808594 795.472656 392.820312 795.710938 392.828125 795.941406 C 392.902344 796.289062 393.101562 796.988281 393.238281 797.460938 C 393.730469 799.1875 394.335938 801.304688 394.410156 803.710938 C 398.660156 855.207031 409.492188 903.871094 419.527344 944.699219 C 433.78125 1004.214844 450.476562 1054.824219 472.082031 1104.027344 C 473.039062 1106.058594 473.304688 1107.863281 473.378906 1109.105469 C 476.320312 1115.527344 479.191406 1121.90625 481.96875 1128.089844 C 487.433594 1140.230469 492.59375 1151.699219 498.164062 1163.34375 C 498.742188 1164.484375 499.5625 1165.800781 500.429688 1167.195312 C 501.53125 1168.960938 502.671875 1170.78125 503.683594 1172.804688 L 518.511719 1202.460938 C 565.820312 1218.75 620.335938 1222.941406 689.589844 1215.65625 C 689.765625 1215.636719 689.949219 1215.621094 690.125 1215.613281 C 690.363281 1215.546875 690.722656 1215.425781 691.007812 1215.328125 C 692.46875 1214.839844 694.625 1214.121094 697.199219 1214.027344 C 752.613281 1208.84375 804.511719 1197.824219 859.441406 1186.152344 C 870.828125 1183.734375 882.59375 1181.238281 894.4375 1178.777344 C 895.570312 1178.058594 897.226562 1177.148438 899.386719 1176.824219 C 938.117188 1168.722656 973.019531 1157.144531 1005.453125 1145.984375 C 1010.777344 1144.148438 1016.570312 1146.980469 1018.402344 1152.296875 C 1020.238281 1157.613281 1017.40625 1163.414062 1012.089844 1165.246094 C 979.285156 1176.539062 943.976562 1188.25 904.445312 1196.582031 C 903.3125 1197.300781 901.648438 1198.21875 899.476562 1198.542969 C 887.375 1201.050781 875.328125 1203.609375 863.671875 1206.082031 C 808.027344 1217.902344 755.464844 1229.066406 698.734375 1234.339844 C 698.597656 1234.355469 698.457031 1234.363281 698.320312 1234.367188 C 698.082031 1234.4375 697.722656 1234.558594 697.4375 1234.652344 C 695.992188 1235.136719 693.867188 1235.84375 691.320312 1235.957031 C 668.945312 1238.300781 648.007812 1239.480469 628.273438 1239.480469 Z M 697.839844 1234.355469 L 697.824219 1234.355469 Z M 698.523438 1234.292969 Z M 689.980469 1215.636719 Z M 690.679688 1215.574219 L 690.667969 1215.574219 Z M 901.085938 1197.042969 L 901.058594 1197.042969 Z M 901.105469 1197.042969 L 901.089844 1197.042969 Z M 897.839844 1178.261719 L 897.824219 1178.261719 Z M 897.878906 1178.261719 L 897.851562 1178.261719 Z M 453.722656 1112.804688 C 453.722656 1112.804688 453.722656 1112.8125 453.730469 1112.820312 C 453.730469 1112.820312 453.730469 1112.8125 453.722656 1112.804688 Z M 472.742188 1107.679688 C 472.742188 1107.679688 472.742188 1107.6875 472.746094 1107.695312 C 472.746094 1107.695312 472.746094 1107.6875 472.742188 1107.679688 Z M 374.0625 804.21875 L 374.0625 804.230469 Z M 392.84375 796.261719 L 392.84375 796.273438 Z M 392.84375 796.261719 " fill-opacity="1" fill-rule="nonzero"/><g clip-path="url(#9b12f32cd5)"><path fill="#0339e8" d="M 1028.277344 1136.238281 C 1026.179688 1136.238281 1024.058594 1135.59375 1022.238281 1134.257812 C 978.578125 1102.085938 940.574219 1057.074219 906.070312 996.640625 C 903.277344 991.761719 904.976562 985.535156 909.863281 982.75 C 914.746094 979.957031 920.972656 981.65625 923.757812 986.546875 C 956.824219 1044.457031 992.996094 1087.410156 1034.320312 1117.859375 C 1038.847656 1121.191406 1039.8125 1127.566406 1036.476562 1132.097656 C 1034.480469 1134.804688 1031.398438 1136.238281 1028.269531 1136.238281 Z M 1028.277344 1136.238281 " fill-opacity="1" fill-rule="nonzero"/></g><g clip-path="url(#43f8c0d33a)"><path fill="#0339e8" d="M 469.164062 1302.738281 C 465.191406 1302.738281 461.578125 1300.429688 459.914062 1296.816406 C 433.480469 1239.433594 411.210938 1182.628906 393.726562 1127.976562 C 374.597656 1068.183594 360.488281 1008.796875 351.804688 951.476562 C 342.472656 889.910156 339.125 828.773438 341.855469 769.765625 C 344.75 707.304688 354.472656 646.894531 370.773438 590.195312 C 372.328125 584.792969 377.972656 581.667969 383.378906 583.222656 C 388.78125 584.777344 391.90625 590.421875 390.351562 595.824219 C 359.128906 704.398438 352.9375 823.035156 371.941406 948.417969 C 388.191406 1055.621094 422.128906 1164.878906 475.640625 1282.230469 C 573.089844 1280.050781 661.476562 1269.257812 738.457031 1250.109375 C 743.914062 1248.75 749.441406 1252.078125 750.800781 1257.535156 C 752.160156 1262.996094 748.832031 1268.523438 743.371094 1269.878906 C 663.160156 1289.828125 570.964844 1300.882812 469.351562 1302.738281 C 469.292969 1302.738281 469.230469 1302.738281 469.164062 1302.738281 Z M 469.164062 1302.738281 " fill-opacity="1" fill-rule="nonzero"/></g><path fill="#0339e8" d="M 417.898438 1190.253906 C 417.078125 1190.253906 416.234375 1190.152344 415.398438 1189.941406 L 414.707031 1189.765625 C 407.515625 1187.953125 400.074219 1186.078125 392.769531 1184.347656 C 369.410156 1178.820312 341.828125 1173.433594 314.34375 1175.402344 C 314.042969 1175.425781 313.738281 1175.4375 313.441406 1175.429688 C 313.441406 1175.429688 313.417969 1175.429688 313.414062 1175.429688 C 313.398438 1175.4375 313.390625 1175.429688 313.386719 1175.429688 C 313.378906 1175.429688 313.363281 1175.429688 313.359375 1175.429688 C 313.351562 1175.429688 313.335938 1175.429688 313.332031 1175.429688 C 313.316406 1175.429688 313.3125 1175.429688 313.304688 1175.429688 C 313.289062 1175.429688 313.285156 1175.429688 313.277344 1175.429688 C 313.261719 1175.429688 313.257812 1175.429688 313.25 1175.429688 C 313.242188 1175.429688 313.230469 1175.429688 313.222656 1175.429688 C 313.214844 1175.429688 313.203125 1175.429688 313.195312 1175.429688 C 313.183594 1175.429688 313.175781 1175.429688 313.167969 1175.429688 C 313.15625 1175.429688 313.148438 1175.429688 313.140625 1175.429688 C 313.132812 1175.429688 313.121094 1175.429688 313.113281 1175.429688 C 313.101562 1175.429688 313.09375 1175.429688 313.085938 1175.429688 C 313.078125 1175.429688 313.066406 1175.429688 313.058594 1175.429688 C 313.050781 1175.429688 313.039062 1175.429688 313.03125 1175.429688 C 313.027344 1175.429688 313.011719 1175.429688 313.003906 1175.429688 C 313 1175.429688 312.984375 1175.429688 312.976562 1175.429688 C 312.972656 1175.429688 312.957031 1175.429688 312.949219 1175.429688 C 312.945312 1175.429688 312.929688 1175.429688 312.921875 1175.429688 C 312.917969 1175.429688 312.902344 1175.429688 312.894531 1175.429688 C 312.882812 1175.429688 312.875 1175.429688 312.871094 1175.429688 C 312.863281 1175.429688 312.847656 1175.429688 312.84375 1175.429688 C 312.835938 1175.429688 312.820312 1175.429688 312.816406 1175.429688 C 312.808594 1175.429688 312.792969 1175.429688 312.789062 1175.429688 C 312.773438 1175.429688 312.765625 1175.429688 312.761719 1175.429688 C 312.746094 1175.429688 312.738281 1175.429688 312.734375 1175.429688 C 312.71875 1175.429688 312.714844 1175.429688 312.707031 1175.429688 C 312.691406 1175.429688 312.6875 1175.429688 312.679688 1175.429688 C 312.671875 1175.429688 312.660156 1175.429688 312.652344 1175.429688 C 312.636719 1175.429688 312.632812 1175.429688 312.625 1175.429688 C 312.609375 1175.429688 312.605469 1175.429688 312.597656 1175.429688 C 312.589844 1175.429688 312.578125 1175.429688 312.570312 1175.429688 C 312.5625 1175.429688 312.550781 1175.429688 312.542969 1175.429688 C 312.535156 1175.429688 312.523438 1175.429688 312.515625 1175.429688 C 312.503906 1175.429688 312.496094 1175.429688 312.488281 1175.429688 C 312.480469 1175.429688 312.46875 1175.429688 312.460938 1175.429688 C 312.453125 1175.429688 312.441406 1175.429688 312.433594 1175.429688 C 312.421875 1175.429688 312.414062 1175.429688 312.40625 1175.429688 C 312.394531 1175.429688 312.386719 1175.429688 312.378906 1175.429688 C 312.367188 1175.429688 312.359375 1175.429688 312.351562 1175.429688 C 312.347656 1175.429688 312.339844 1175.429688 312.332031 1175.429688 C 312.332031 1175.429688 312.332031 1175.429688 312.324219 1175.429688 C 312.320312 1175.429688 312.3125 1175.429688 312.304688 1175.429688 C 312.296875 1175.429688 312.292969 1175.429688 312.285156 1175.429688 C 312.285156 1175.429688 312.285156 1175.429688 312.277344 1175.429688 C 312.273438 1175.429688 312.265625 1175.429688 312.257812 1175.429688 C 312.25 1175.429688 312.246094 1175.429688 312.230469 1175.429688 C 312.230469 1175.429688 312.21875 1175.429688 312.203125 1175.429688 C 312.195312 1175.429688 312.183594 1175.429688 312.175781 1175.429688 C 312.167969 1175.429688 312.15625 1175.429688 312.148438 1175.429688 C 310.195312 1175.125 308.359375 1174.257812 306.875 1172.90625 C 304.808594 1171.03125 303.609375 1168.390625 303.546875 1165.605469 C 303.546875 1165.59375 303.546875 1165.570312 303.546875 1165.558594 C 303.546875 1165.503906 303.546875 1165.449219 303.546875 1165.386719 C 303.519531 1148.839844 302.703125 1131.664062 301.183594 1115.710938 C 301.175781 1115.605469 301.164062 1115.496094 301.15625 1115.394531 C 300.097656 1098.65625 298.875 1081.390625 297.6875 1064.683594 C 291.949219 983.707031 286.015625 899.964844 293.75 818.960938 C 302.574219 726.511719 328.464844 651.070312 372.90625 588.308594 C 376.160156 583.71875 382.515625 582.632812 387.105469 585.882812 C 391.695312 589.136719 392.78125 595.492188 389.527344 600.082031 C 294.679688 734.035156 306.539062 901.398438 318.007812 1063.246094 C 319.191406 1079.929688 320.414062 1097.175781 321.480469 1113.941406 C 322.652344 1126.351562 323.425781 1139.457031 323.746094 1152.46875 C 324.425781 1152.507812 325.078125 1152.574219 325.683594 1152.65625 C 328.25 1153.011719 330.175781 1153.8125 331.636719 1154.816406 C 355.238281 1155.425781 377.863281 1159.992188 397.574219 1164.65625 C 405.023438 1166.421875 412.539062 1168.316406 419.804688 1170.140625 L 420.492188 1170.316406 C 425.945312 1171.695312 429.25 1177.230469 427.878906 1182.683594 C 426.710938 1187.300781 422.5625 1190.382812 418.011719 1190.382812 Z M 417.898438 1190.253906 " fill-opacity="1" fill-rule="nonzero"/><g clip-path="url(#68d0589892)"><path fill="#0339e8" d="M 308.328125 1107.46875 L 308.3125 1107.46875 C 261.671875 1107.402344 212.015625 1093.203125 156.515625 1064.082031 C 153.914062 1062.714844 152.035156 1060.300781 151.347656 1057.441406 C 150.660156 1054.582031 151.238281 1051.574219 152.9375 1049.175781 C 195.84375 988.519531 216.421875 914 236.332031 841.925781 C 239.300781 831.1875 242.363281 820.09375 245.449219 809.230469 C 255.617188 773.464844 270.003906 726.867188 291.195312 683.605469 C 313.195312 638.703125 339.199219 603.789062 370.695312 576.859375 C 374.972656 573.207031 381.402344 573.710938 385.054688 577.980469 C 388.707031 582.257812 388.203125 588.6875 383.933594 592.34375 C 319.3125 647.59375 288.609375 731.910156 265.046875 814.796875 C 261.976562 825.585938 258.921875 836.648438 255.96875 847.347656 C 236.625 917.394531 216.648438 989.710938 176.179688 1051.246094 C 224.558594 1075.292969 267.890625 1087.03125 308.347656 1087.09375 C 313.96875 1087.097656 318.527344 1091.667969 318.519531 1097.289062 C 318.511719 1102.914062 313.949219 1107.460938 308.332031 1107.460938 Z M 308.328125 1107.46875 " fill-opacity="1" fill-rule="nonzero"/></g><path fill="#0339e8" d="M 441.152344 633.089844 C 436.828125 633.089844 432.824219 630.320312 431.445312 625.972656 C 429.746094 620.609375 432.714844 614.886719 438.078125 613.1875 C 443.433594 611.488281 447.78125 604.972656 448.195312 598.019531 C 448.726562 589.125 444.132812 580.648438 440.191406 575.101562 C 437.15625 570.839844 434.457031 568.230469 431.695312 566.898438 C 429.542969 565.859375 426.984375 565.738281 425.742188 566.621094 C 421.148438 569.867188 414.792969 568.78125 411.542969 564.183594 C 408.296875 559.59375 409.382812 553.238281 413.980469 549.984375 C 421.367188 544.765625 431.539062 544.214844 440.535156 548.546875 C 446.519531 551.433594 451.683594 556.117188 456.792969 563.292969 C 465.164062 575.066406 469.222656 587.492188 468.53125 599.21875 C 467.613281 614.632812 457.621094 628.355469 444.230469 632.601562 C 443.203125 632.925781 442.171875 633.074219 441.152344 633.074219 Z M 441.152344 633.089844 " fill-opacity="1" fill-rule="nonzero"/><path fill="#0339e8" d="M 517.480469 628.316406 C 513.15625 628.316406 509.148438 625.546875 507.769531 621.199219 C 506.074219 615.835938 509.046875 610.113281 514.40625 608.414062 C 519.761719 606.714844 524.109375 600.199219 524.523438 593.246094 C 525.050781 584.351562 520.460938 575.875 516.515625 570.328125 C 513.480469 566.066406 510.785156 563.457031 508.023438 562.125 C 505.871094 561.085938 503.308594 560.964844 502.066406 561.847656 C 497.476562 565.09375 491.121094 564.007812 487.871094 559.410156 C 484.625 554.820312 485.710938 548.464844 490.308594 545.210938 C 497.6875 539.992188 507.867188 539.441406 516.863281 543.773438 C 522.84375 546.660156 528.011719 551.34375 533.117188 558.519531 C 541.496094 570.300781 545.550781 582.71875 544.859375 594.445312 C 543.941406 609.859375 533.945312 623.582031 520.558594 627.828125 C 519.53125 628.152344 518.5 628.300781 517.480469 628.300781 Z M 517.480469 628.316406 " fill-opacity="1" fill-rule="nonzero"/><path fill="#0339e8" d="M 593.808594 623.542969 C 589.484375 623.542969 585.476562 620.773438 584.097656 616.425781 C 582.402344 611.0625 585.367188 605.339844 590.730469 603.640625 C 596.089844 601.941406 600.433594 595.425781 600.847656 588.472656 C 601.378906 579.578125 596.789062 571.101562 592.84375 565.5625 C 589.808594 561.296875 587.113281 558.691406 584.347656 557.359375 C 582.195312 556.320312 579.636719 556.199219 578.394531 557.082031 C 573.804688 560.328125 567.449219 559.242188 564.195312 554.644531 C 560.949219 550.054688 562.039062 543.699219 566.632812 540.445312 C 574.023438 535.222656 584.191406 534.675781 593.191406 539.007812 C 599.171875 541.890625 604.339844 546.578125 609.445312 553.753906 C 617.824219 565.527344 621.878906 577.953125 621.183594 589.679688 C 620.269531 605.09375 610.273438 618.816406 596.882812 623.058594 C 595.859375 623.386719 594.828125 623.535156 593.808594 623.535156 Z M 593.808594 623.542969 " fill-opacity="1" fill-rule="nonzero"/><path fill="#0339e8" d="M 670.132812 618.769531 C 665.808594 618.769531 661.804688 616 660.425781 611.652344 C 658.726562 606.289062 661.703125 600.566406 667.058594 598.867188 C 672.417969 597.167969 676.761719 590.652344 677.175781 583.699219 C 677.707031 574.804688 673.117188 566.328125 669.171875 560.78125 C 666.136719 556.519531 663.441406 553.910156 660.675781 552.578125 C 658.523438 551.539062 655.964844 551.417969 654.722656 552.300781 C 650.132812 555.546875 643.777344 554.460938 640.523438 549.863281 C 637.277344 545.273438 638.363281 538.917969 642.960938 535.664062 C 650.347656 530.445312 660.519531 529.894531 669.515625 534.226562 C 675.5 537.105469 680.667969 541.796875 685.773438 548.972656 C 694.144531 560.746094 698.203125 573.171875 697.511719 584.898438 C 696.59375 600.3125 686.601562 614.042969 673.210938 618.28125 C 672.183594 618.605469 671.152344 618.753906 670.132812 618.753906 Z M 670.132812 618.769531 " fill-opacity="1" fill-rule="nonzero"/><path fill="#0339e8" d="M 746.460938 613.996094 C 742.136719 613.996094 738.128906 611.226562 736.75 606.878906 C 735.054688 601.515625 738.027344 595.792969 743.386719 594.09375 C 748.742188 592.394531 753.089844 585.878906 753.503906 578.925781 C 754.03125 570.03125 749.441406 561.554688 745.496094 556.007812 C 742.460938 551.746094 739.765625 549.136719 737.003906 547.804688 C 734.851562 546.765625 732.289062 546.644531 731.046875 547.527344 C 726.457031 550.773438 720.101562 549.6875 716.851562 545.089844 C 713.605469 540.5 714.691406 534.144531 719.289062 530.890625 C 726.675781 525.671875 736.847656 525.121094 745.84375 529.453125 C 751.824219 532.339844 756.992188 537.023438 762.097656 544.199219 C 770.472656 555.972656 774.53125 568.398438 773.839844 580.125 C 772.921875 595.539062 762.925781 609.269531 749.539062 613.507812 C 748.511719 613.832031 747.480469 613.980469 746.460938 613.980469 Z M 746.460938 613.996094 " fill-opacity="1" fill-rule="nonzero"/><path fill="#0339e8" d="M 470.308594 768.386719 C 465.847656 768.386719 461.230469 767.347656 456.898438 765.242188 C 449.417969 761.609375 443.871094 755.664062 439.414062 750.882812 C 435.578125 746.769531 435.808594 740.324219 439.925781 736.488281 C 444.039062 732.652344 450.484375 732.882812 454.320312 736.996094 C 457.960938 740.910156 461.726562 744.949219 465.796875 746.925781 C 468.503906 748.242188 471.75 748.410156 473.183594 747.3125 C 474.097656 746.613281 475.265625 744.867188 476.292969 743.332031 L 524.09375 672.035156 C 527.222656 667.367188 533.554688 666.117188 538.222656 669.246094 C 542.894531 672.375 544.144531 678.703125 541.015625 683.375 L 493.214844 754.671875 C 491.40625 757.367188 489.152344 760.726562 485.589844 763.464844 C 481.335938 766.730469 475.945312 768.386719 470.308594 768.386719 Z M 470.308594 768.386719 " fill-opacity="1" fill-rule="nonzero"/><path fill="#0339e8" d="M 461.734375 817.296875 C 446.4375 817.296875 432.753906 812.726562 422.601562 804.101562 C 408.066406 791.757812 400.753906 771.265625 401.445312 744.847656 C 401.878906 728.257812 405.039062 715.796875 411.386719 705.632812 C 419.921875 691.957031 434.585938 682.777344 450.617188 681.082031 C 466.652344 679.382812 482.914062 685.285156 494.121094 696.867188 C 498.035156 700.90625 497.925781 707.359375 493.886719 711.269531 C 489.84375 715.179688 483.394531 715.070312 479.484375 711.03125 C 472.699219 704.023438 462.46875 700.3125 452.765625 701.335938 C 443.070312 702.359375 433.835938 708.140625 428.667969 716.417969 C 424.328125 723.371094 422.148438 732.578125 421.808594 745.382812 C 421.441406 759.355469 423.566406 778.199219 435.789062 788.574219 C 443.3125 794.964844 454.945312 797.898438 467.695312 796.621094 C 480.351562 795.351562 491.515625 790.449219 499.121094 782.816406 C 507.050781 774.867188 510.914062 763.425781 508.972656 753.679688 C 507.871094 748.167969 511.453125 742.800781 516.964844 741.695312 C 522.476562 740.597656 527.84375 744.175781 528.949219 749.6875 C 532.234375 766.160156 526.335938 784.363281 513.550781 797.191406 C 502.625 808.15625 487.0625 815.152344 469.726562 816.882812 C 467.023438 817.152344 464.347656 817.289062 461.734375 817.289062 Z M 461.734375 817.296875 " fill-opacity="1" fill-rule="nonzero"/><path fill="#0339e8" d="M 551.878906 751.433594 C 547.34375 751.433594 543.203125 748.378906 542.019531 743.78125 C 540.621094 738.335938 543.902344 732.78125 549.347656 731.382812 C 613.582031 714.875 679.585938 702.90625 745.519531 695.808594 C 751.105469 695.203125 756.128906 699.25 756.734375 704.847656 C 757.339844 710.441406 753.292969 715.460938 747.699219 716.0625 C 682.730469 723.058594 617.703125 734.851562 554.410156 751.113281 C 553.5625 751.332031 552.707031 751.441406 551.871094 751.441406 Z M 551.878906 751.433594 " fill-opacity="1" fill-rule="nonzero"/><path fill="#0339e8" d="M 517.140625 946.566406 C 512.679688 946.566406 508.0625 945.527344 503.730469 943.421875 C 496.242188 939.789062 490.699219 933.835938 486.246094 929.054688 C 482.410156 924.9375 482.640625 918.496094 486.753906 914.660156 C 490.871094 910.824219 497.3125 911.054688 501.152344 915.167969 C 504.789062 919.078125 508.558594 923.121094 512.625 925.09375 C 515.335938 926.414062 518.582031 926.582031 520.011719 925.480469 C 520.921875 924.78125 522.097656 923.039062 523.125 921.503906 L 570.925781 850.207031 C 574.054688 845.535156 580.382812 844.285156 585.054688 847.417969 C 589.726562 850.546875 590.976562 856.875 587.847656 861.546875 L 540.042969 932.84375 C 538.230469 935.546875 535.984375 938.898438 532.417969 941.636719 C 528.167969 944.902344 522.777344 946.558594 517.140625 946.558594 Z M 517.140625 946.566406 " fill-opacity="1" fill-rule="nonzero"/><path fill="#0339e8" d="M 508.566406 995.472656 C 493.265625 995.472656 479.585938 990.90625 469.433594 982.28125 C 454.898438 969.9375 447.585938 949.445312 448.277344 923.023438 C 448.710938 906.4375 451.867188 893.976562 458.21875 883.8125 C 466.753906 870.136719 481.417969 860.957031 497.449219 859.257812 C 513.480469 857.5625 529.742188 863.460938 540.953125 875.046875 C 544.863281 879.085938 544.757812 885.535156 540.714844 889.449219 C 536.675781 893.359375 530.226562 893.25 526.316406 889.210938 C 519.53125 882.203125 509.292969 878.488281 499.597656 879.515625 C 489.898438 880.539062 480.664062 886.316406 475.496094 894.59375 C 471.160156 901.546875 468.980469 910.753906 468.640625 923.5625 C 468.273438 937.535156 470.398438 956.371094 482.621094 966.753906 C 490.144531 973.140625 501.777344 976.074219 514.527344 974.796875 C 527.183594 973.527344 538.347656 968.625 545.953125 960.996094 C 553.882812 953.042969 557.746094 941.601562 555.796875 931.859375 C 554.695312 926.34375 558.277344 920.980469 563.789062 919.875 C 569.300781 918.773438 574.667969 922.351562 575.773438 927.867188 C 579.058594 944.339844 573.160156 962.542969 560.375 975.367188 C 549.449219 986.335938 533.886719 993.328125 516.550781 995.058594 C 513.847656 995.332031 511.171875 995.46875 508.558594 995.46875 Z M 508.566406 995.472656 " fill-opacity="1" fill-rule="nonzero"/><path fill="#0339e8" d="M 598.71875 929.609375 C 594.179688 929.609375 590.039062 926.554688 588.859375 921.957031 C 587.460938 916.511719 590.738281 910.957031 596.183594 909.558594 C 660.417969 893.054688 726.417969 881.082031 792.355469 873.988281 C 797.945312 873.382812 802.96875 877.429688 803.574219 883.023438 C 804.175781 888.617188 800.128906 893.636719 794.535156 894.242188 C 729.566406 901.234375 664.539062 913.03125 601.25 929.292969 C 600.402344 929.507812 599.546875 929.617188 598.710938 929.617188 Z M 598.71875 929.609375 " fill-opacity="1" fill-rule="nonzero"/><path fill="#0339e8" d="M 570.035156 1172.179688 C 554.738281 1172.179688 541.054688 1167.609375 530.90625 1158.984375 C 516.367188 1146.640625 509.054688 1126.148438 509.746094 1099.730469 C 510.179688 1083.140625 513.339844 1070.679688 519.6875 1060.515625 C 528.222656 1046.839844 542.890625 1037.660156 558.921875 1035.964844 C 574.945312 1034.265625 591.214844 1040.167969 602.425781 1051.75 C 606.335938 1055.789062 606.226562 1062.242188 602.1875 1066.152344 C 598.148438 1070.0625 591.695312 1069.953125 587.785156 1065.914062 C 581 1058.90625 570.769531 1055.191406 561.066406 1056.21875 C 551.371094 1057.242188 542.136719 1063.023438 536.96875 1071.296875 C 532.628906 1078.25 530.449219 1087.460938 530.109375 1100.265625 C 529.742188 1114.238281 531.867188 1133.082031 544.089844 1143.457031 C 551.613281 1149.847656 563.246094 1152.777344 575.996094 1151.503906 C 588.652344 1150.234375 599.816406 1145.332031 607.421875 1137.699219 C 615.351562 1129.746094 619.214844 1118.304688 617.265625 1108.5625 C 616.167969 1103.050781 619.746094 1097.683594 625.257812 1096.578125 C 630.773438 1095.476562 636.136719 1099.054688 637.242188 1104.570312 C 640.53125 1121.042969 634.628906 1139.246094 621.851562 1152.074219 C 610.925781 1163.039062 595.363281 1170.03125 578.027344 1171.765625 C 575.324219 1172.035156 572.648438 1172.171875 570.035156 1172.171875 Z M 570.035156 1172.179688 " fill-opacity="1" fill-rule="nonzero"/><path fill="#0339e8" d="M 660.1875 1106.320312 C 655.652344 1106.320312 651.507812 1103.265625 650.328125 1098.667969 C 648.929688 1093.222656 652.210938 1087.667969 657.65625 1086.269531 C 721.886719 1069.765625 787.886719 1057.792969 853.824219 1050.699219 C 859.421875 1050.09375 864.4375 1054.140625 865.042969 1059.734375 C 865.648438 1065.332031 861.601562 1070.347656 856.003906 1070.953125 C 791.039062 1077.945312 726.011719 1089.742188 662.71875 1106.003906 C 661.871094 1106.21875 661.015625 1106.328125 660.179688 1106.328125 Z M 660.1875 1106.320312 " fill-opacity="1" fill-rule="nonzero"/><path fill="#0339e8" d="M 559.925781 780.859375 C 555.457031 780.859375 551.355469 777.894531 550.113281 773.378906 C 548.621094 767.953125 551.804688 762.351562 557.230469 760.859375 C 599.804688 749.136719 643.714844 741.527344 687.75 738.234375 C 693.355469 737.8125 698.246094 742.023438 698.667969 747.628906 C 699.085938 753.238281 694.878906 758.128906 689.269531 758.550781 C 646.546875 761.742188 603.945312 769.128906 562.640625 780.5 C 561.738281 780.753906 560.828125 780.867188 559.933594 780.867188 Z M 559.925781 780.859375 " fill-opacity="1" fill-rule="nonzero"/><path fill="#0339e8" d="M 613.996094 963.5625 C 609.546875 963.5625 605.460938 960.621094 604.195312 956.125 C 602.675781 950.707031 605.832031 945.085938 611.25 943.5625 C 649.328125 932.871094 688.453125 924.394531 727.539062 918.375 C 733.09375 917.519531 738.300781 921.328125 739.15625 926.886719 C 740.011719 932.449219 736.203125 937.648438 730.640625 938.503906 C 692.367188 944.40625 654.050781 952.703125 616.765625 963.179688 C 615.839844 963.4375 614.917969 963.5625 614.007812 963.5625 Z M 613.996094 963.5625 " fill-opacity="1" fill-rule="nonzero"/><path fill="#0339e8" d="M 679.402344 1137.671875 C 674.738281 1137.671875 670.535156 1134.453125 669.476562 1129.707031 C 668.246094 1124.21875 671.703125 1118.773438 677.191406 1117.539062 L 789.246094 1092.441406 C 794.738281 1091.214844 800.183594 1094.671875 801.414062 1100.15625 C 802.644531 1105.644531 799.1875 1111.089844 793.699219 1112.324219 L 681.644531 1137.421875 C 680.898438 1137.589844 680.144531 1137.671875 679.410156 1137.671875 Z M 679.402344 1137.671875 " fill-opacity="1" fill-rule="nonzero"/><path fill="#0339e8" d="M 849.460938 1065.746094 C 848.453125 1065.746094 847.441406 1065.59375 846.457031 1065.289062 C 843.199219 1064.285156 840.660156 1061.71875 839.6875 1058.445312 C 835.410156 1043.976562 829.964844 1030.960938 820.902344 1013.507812 C 819.625 1011.050781 819.402344 1008.183594 820.28125 1005.5625 C 855.164062 901.925781 888.765625 796.269531 920.171875 691.523438 C 921.789062 686.132812 927.464844 683.078125 932.855469 684.695312 C 938.246094 686.308594 941.300781 691.984375 939.6875 697.378906 C 908.628906 800.964844 875.425781 905.4375 840.964844 1007.988281 C 846.878906 1019.625 851.28125 1029.53125 854.863281 1039.414062 C 863.609375 1034.15625 874.167969 1029.273438 886.445312 1024.828125 C 908.480469 923.195312 944.03125 817.378906 992.160156 710.203125 C 994.460938 705.070312 1000.492188 702.78125 1005.625 705.085938 C 1010.757812 707.386719 1013.046875 713.414062 1010.742188 718.546875 C 962.316406 826.382812 926.796875 932.742188 905.171875 1034.667969 C 904.425781 1038.183594 901.878906 1041.050781 898.46875 1042.203125 C 879.960938 1048.464844 865.238281 1055.808594 855.902344 1063.449219 C 854.0625 1064.957031 851.777344 1065.75 849.453125 1065.75 Z M 849.460938 1065.746094 " fill-opacity="1" fill-rule="nonzero"/><path fill="#0339e8" d="M 1010.628906 699.175781 C 1009.378906 699.175781 1008.101562 698.945312 1006.867188 698.457031 C 1001.679688 696.394531 999.125 690.539062 1001.121094 685.339844 C 1001.46875 684.074219 1001.570312 680.144531 1001.625 677.78125 C 1001.699219 674.710938 1001.773438 671.746094 1002.140625 668.996094 C 995.398438 659.578125 983.09375 651.808594 971.511719 649.957031 C 966.167969 649.101562 958.636719 649.148438 953.117188 654.199219 C 947.292969 659.53125 943.632812 667.105469 943.074219 674.984375 C 942.675781 680.59375 937.8125 684.816406 932.195312 684.421875 C 926.589844 684.019531 922.359375 679.152344 922.757812 673.542969 C 923.683594 660.519531 929.738281 647.992188 939.367188 639.171875 C 948.351562 630.945312 960.910156 627.628906 974.730469 629.835938 C 993.78125 632.886719 1012.726562 645.839844 1021.867188 662.089844 C 1023.351562 664.738281 1023.585938 667.910156 1022.496094 670.738281 C 1022.152344 672.003906 1022.050781 675.933594 1021.996094 678.296875 C 1021.859375 683.613281 1021.738281 688.636719 1020.101562 692.761719 C 1018.511719 696.753906 1014.683594 699.183594 1010.636719 699.183594 Z M 1001.164062 685.230469 C 1001.164062 685.230469 1001.15625 685.257812 1001.148438 685.265625 C 1001.148438 685.25 1001.15625 685.238281 1001.164062 685.230469 Z M 1022.464844 670.820312 C 1022.464844 670.820312 1022.457031 670.84375 1022.449219 670.855469 C 1022.449219 670.84375 1022.457031 670.835938 1022.464844 670.820312 Z M 1022.464844 670.820312 " fill-opacity="1" fill-rule="nonzero"/><path fill="#0339e8" d="M 973.066406 699.558594 C 968.796875 699.558594 964.464844 698.449219 960.464844 696.277344 C 953.679688 692.582031 948.953125 686.390625 947.507812 679.289062 C 946.386719 673.773438 949.945312 668.398438 955.460938 667.277344 C 960.972656 666.15625 966.351562 669.714844 967.472656 675.226562 C 967.707031 676.390625 968.753906 677.597656 970.199219 678.390625 C 971.648438 679.179688 973.234375 679.402344 974.335938 678.96875 C 979.570312 676.917969 985.484375 679.507812 987.535156 684.742188 C 989.585938 689.976562 987 695.890625 981.765625 697.941406 C 978.988281 699.027344 976.039062 699.5625 973.066406 699.5625 Z M 973.066406 699.558594 " fill-opacity="1" fill-rule="nonzero"/><path fill="#0339e8" d="M 986.339844 913.152344 C 986.097656 913.152344 985.851562 913.144531 985.601562 913.125 C 979.992188 912.722656 975.769531 907.847656 976.167969 902.234375 C 979.285156 858.839844 988.390625 796.261719 1013.800781 738.484375 C 1007.375 735.550781 1001.414062 731.632812 996.179688 726.875 C 992.015625 723.085938 991.710938 716.648438 995.5 712.484375 C 999.289062 708.324219 1005.726562 708.023438 1009.886719 711.804688 C 1015.648438 717.046875 1022.679688 720.835938 1030.226562 722.777344 C 1033.179688 723.539062 1035.636719 725.578125 1036.917969 728.339844 C 1038.210938 731.105469 1038.191406 734.292969 1036.871094 737.042969 C 1009.242188 794.679688 999.664062 859.484375 996.484375 903.699219 C 996.097656 909.0625 991.628906 913.160156 986.332031 913.160156 Z M 986.339844 913.152344 " fill-opacity="1" fill-rule="nonzero"/><path fill="#0339e8" d="M 872.53125 1021.765625 C 869.675781 1021.765625 866.835938 1020.570312 864.820312 1018.234375 C 859.386719 1011.945312 849.746094 1009.347656 841.882812 1012.046875 C 836.566406 1013.882812 830.765625 1011.050781 828.933594 1005.734375 C 827.101562 1000.417969 829.933594 994.617188 835.25 992.785156 C 850.90625 987.394531 869.402344 992.382812 880.234375 1004.917969 C 883.914062 1009.175781 883.4375 1015.605469 879.179688 1019.285156 C 877.257812 1020.949219 874.890625 1021.765625 872.527344 1021.765625 Z M 872.53125 1021.765625 " fill-opacity="1" fill-rule="nonzero"/><path fill="#0339e8" d="M 870.535156 1042.480469 C 869.082031 1042.480469 867.609375 1042.167969 866.210938 1041.511719 C 861.410156 1039.257812 855.902344 1038.613281 850.710938 1039.699219 C 845.203125 1040.851562 839.804688 1037.320312 838.648438 1031.820312 C 837.496094 1026.316406 841.027344 1020.917969 846.527344 1019.761719 C 856.027344 1017.773438 866.082031 1018.949219 874.867188 1023.070312 C 879.960938 1025.460938 882.148438 1031.53125 879.757812 1036.613281 C 878.027344 1040.308594 874.359375 1042.476562 870.53125 1042.476562 Z M 870.535156 1042.480469 " fill-opacity="1" fill-rule="nonzero"/><path fill="#0339e8" d="M 421.851562 1177.746094 C 391.214844 1102.636719 375.886719 1022.320312 360.738281 942.628906 C 355.339844 914.230469 349.9375 885.789062 347.234375 857.019531 C 340.914062 789.78125 342.453125 718.417969 365.355469 654.890625 C 336.675781 705.0625 325.832031 763.839844 325.316406 821.628906 C 324.792969 879.410156 334.089844 936.789062 343.355469 993.824219 C 352.210938 1048.292969 361.058594 1102.769531 369.914062 1157.242188 C 367.753906 1160.511719 370.902344 1164.59375 373.878906 1167.148438 C 376.851562 1169.699219 380.832031 1170.671875 384.648438 1171.5625 C 396.203125 1174.25 410.285156 1175.050781 421.851562 1177.738281 Z M 421.851562 1177.746094 " fill-opacity="1" fill-rule="nonzero"/><path fill="#0339e8" d="M 311.179688 1100.367188 C 299.757812 993.199219 288.390625 884.183594 308.410156 778.28125 C 315.734375 739.496094 324.492188 695.890625 340.652344 659.882812 C 306.988281 697.613281 292.796875 748.769531 285.113281 798.746094 C 277.425781 848.726562 275.101562 899.851562 260.46875 948.25 C 247.996094 989.484375 226.941406 1027.515625 206.042969 1065.195312 C 204.039062 1068.800781 208.121094 1075.542969 211.378906 1078.074219 C 214.636719 1080.609375 218.8125 1081.558594 222.847656 1082.441406 C 250.402344 1088.464844 283.625 1094.351562 311.179688 1100.375 Z M 311.179688 1100.367188 " fill-opacity="1" fill-rule="nonzero"/><path fill="#0339e8" d="M 325.761719 538.871094 C 323.714844 538.871094 321.648438 538.253906 319.847656 536.96875 L 299.464844 522.40625 C 294.890625 519.132812 293.828125 512.769531 297.101562 508.191406 C 300.375 503.617188 306.730469 502.558594 311.3125 505.828125 L 331.699219 520.394531 C 336.273438 523.667969 337.332031 530.03125 334.0625 534.605469 C 332.070312 537.390625 328.941406 538.871094 325.761719 538.871094 Z M 325.761719 538.871094 " fill-opacity="1" fill-rule="nonzero"/><path fill="#0339e8" d="M 365.125 505.339844 C 361.121094 505.339844 357.324219 502.964844 355.699219 499.03125 L 345.507812 474.277344 C 343.371094 469.074219 345.847656 463.121094 351.050781 460.980469 C 356.25 458.835938 362.207031 461.320312 364.34375 466.523438 L 374.535156 491.277344 C 376.675781 496.480469 374.195312 502.433594 368.996094 504.574219 C 367.726562 505.097656 366.414062 505.339844 365.117188 505.339844 Z M 365.125 505.339844 " fill-opacity="1" fill-rule="nonzero"/><path fill="#0339e8" d="M 417.6875 499.597656 C 416.117188 499.597656 414.53125 499.238281 413.042969 498.46875 C 408.039062 495.902344 406.070312 489.757812 408.636719 484.753906 C 412.511719 477.203125 414.558594 468.722656 414.535156 460.226562 C 414.523438 454.605469 419.074219 450.03125 424.695312 450.015625 L 424.722656 450.015625 C 430.335938 450.015625 434.894531 454.558594 434.90625 460.171875 C 434.933594 471.90625 432.117188 483.621094 426.757812 494.054688 C 424.953125 497.574219 421.386719 499.589844 417.6875 499.589844 Z M 417.6875 499.597656 " fill-opacity="1" fill-rule="nonzero"/><path fill="#0339e8" d="M 989.859375 975.714844 C 985.90625 975.714844 982.144531 973.398438 980.496094 969.535156 C 978.28125 964.367188 980.671875 958.378906 985.84375 956.160156 L 1016.425781 943.054688 C 1021.59375 940.839844 1027.582031 943.230469 1029.804688 948.40625 C 1032.015625 953.574219 1029.628906 959.5625 1024.453125 961.78125 L 993.871094 974.886719 C 992.558594 975.449219 991.203125 975.714844 989.863281 975.714844 Z M 989.859375 975.714844 " fill-opacity="1" fill-rule="nonzero"/><path fill="#0339e8" d="M 1020.433594 1000.472656 L 997.136719 1000.472656 C 991.515625 1000.472656 986.953125 995.910156 986.953125 990.285156 C 986.953125 984.664062 991.515625 980.101562 997.136719 980.101562 L 1020.433594 980.101562 C 1026.054688 980.101562 1030.617188 984.664062 1030.617188 990.285156 C 1030.617188 995.910156 1026.054688 1000.472656 1020.433594 1000.472656 Z M 1020.433594 1000.472656 " fill-opacity="1" fill-rule="nonzero"/><path fill="#0339e8" d="M 990.257812 732.304688 C 984.066406 721.109375 965.949219 716.796875 953.335938 718.902344 C 925.238281 803.867188 897.085938 889.3125 868.988281 974.277344 C 883.953125 981.34375 894.398438 997.117188 895.070312 1013.652344 C 923.246094 918.707031 955.847656 825.171875 990.265625 732.304688 Z M 990.257812 732.304688 " fill-opacity="1" fill-rule="nonzero"/><g clip-path="url(#3b3fa83b39)"><path fill="#333333" d="M -295.753906 61.480469 C -290.039062 52.070312 -284.332031 43.257812 -278.628906 35.039062 C -278.339844 34.625 -277.984375 34.28125 -277.5625 34.011719 C -277.136719 33.738281 -276.679688 33.554688 -276.183594 33.46875 C -275.6875 33.378906 -275.191406 33.386719 -274.699219 33.492188 C -274.207031 33.601562 -273.753906 33.796875 -273.339844 34.085938 C -272.925781 34.371094 -272.582031 34.726562 -272.3125 35.152344 C -272.039062 35.574219 -271.855469 36.035156 -271.765625 36.53125 C -271.679688 37.027344 -271.6875 37.523438 -271.792969 38.015625 C -271.902344 38.507812 -272.097656 38.960938 -272.386719 39.375 C -278 47.464844 -283.625 56.148438 -289.257812 65.425781 C -289.519531 65.855469 -289.855469 66.21875 -290.261719 66.519531 C -290.667969 66.816406 -291.117188 67.023438 -291.605469 67.144531 C -292.09375 67.265625 -292.589844 67.285156 -293.085938 67.207031 C -293.585938 67.132812 -294.050781 66.960938 -294.480469 66.699219 C -294.910156 66.4375 -295.273438 66.105469 -295.574219 65.699219 C -295.871094 65.292969 -296.078125 64.84375 -296.199219 64.355469 C -296.316406 63.863281 -296.339844 63.371094 -296.261719 62.871094 C -296.1875 62.375 -296.015625 61.910156 -295.753906 61.480469 Z M -249.378906 -1.941406 C -241.6875 -10.304688 -234.003906 -17.574219 -226.332031 -23.753906 C -225.9375 -24.066406 -225.5 -24.296875 -225.015625 -24.4375 C -224.535156 -24.582031 -224.039062 -24.625 -223.539062 -24.570312 C -223.039062 -24.515625 -222.566406 -24.367188 -222.125 -24.125 C -221.683594 -23.882812 -221.304688 -23.566406 -220.988281 -23.175781 C -220.671875 -22.78125 -220.441406 -22.34375 -220.300781 -21.859375 C -220.160156 -21.375 -220.117188 -20.882812 -220.171875 -20.382812 C -220.222656 -19.882812 -220.371094 -19.410156 -220.613281 -18.96875 C -220.855469 -18.527344 -221.171875 -18.148438 -221.566406 -17.832031 C -228.941406 -11.890625 -236.347656 -4.878906 -243.785156 3.203125 C -244.128906 3.574219 -244.527344 3.867188 -244.984375 4.078125 C -245.441406 4.289062 -245.921875 4.40625 -246.425781 4.425781 C -246.929688 4.449219 -247.417969 4.371094 -247.890625 4.199219 C -248.363281 4.027344 -248.785156 3.769531 -249.15625 3.425781 C -249.527344 3.085938 -249.816406 2.6875 -250.03125 2.230469 C -250.242188 1.773438 -250.359375 1.292969 -250.378906 0.789062 C -250.402344 0.285156 -250.324219 -0.203125 -250.152344 -0.675781 C -249.976562 -1.148438 -249.71875 -1.574219 -249.378906 -1.941406 Z M -184.15625 -46.742188 C -176.261719 -48.984375 -168.367188 -50.074219 -160.46875 -50.003906 C -157.597656 -49.976562 -154.761719 -49.796875 -151.960938 -49.464844 C -151.460938 -49.40625 -150.992188 -49.253906 -150.550781 -49.007812 C -150.113281 -48.761719 -149.734375 -48.441406 -149.425781 -48.042969 C -149.113281 -47.648438 -148.886719 -47.207031 -148.75 -46.722656 C -148.613281 -46.238281 -148.574219 -45.746094 -148.636719 -45.242188 C -148.695312 -44.742188 -148.847656 -44.273438 -149.09375 -43.832031 C -149.339844 -43.394531 -149.660156 -43.019531 -150.058594 -42.707031 C -150.453125 -42.394531 -150.894531 -42.171875 -151.378906 -42.035156 C -151.863281 -41.898438 -152.355469 -41.859375 -152.855469 -41.917969 C -155.378906 -42.214844 -157.941406 -42.378906 -160.535156 -42.402344 C -167.703125 -42.464844 -174.882812 -41.476562 -182.078125 -39.429688 C -182.5625 -39.292969 -183.054688 -39.25 -183.554688 -39.308594 C -184.054688 -39.367188 -184.527344 -39.519531 -184.96875 -39.765625 C -185.40625 -40.011719 -185.785156 -40.332031 -186.097656 -40.726562 C -186.410156 -41.121094 -186.632812 -41.5625 -186.773438 -42.046875 C -186.910156 -42.53125 -186.949219 -43.023438 -186.890625 -43.523438 C -186.832031 -44.023438 -186.683594 -44.496094 -186.4375 -44.933594 C -186.191406 -45.375 -185.871094 -45.75 -185.476562 -46.066406 C -185.082031 -46.378906 -184.640625 -46.601562 -184.15625 -46.742188 Z M -107.589844 -31.273438 C -106.265625 -30.433594 -104.285156 -29.160156 -101.648438 -27.453125 C -92.847656 -21.757812 -86.074219 -17.652344 -81.328125 -15.136719 C -80.882812 -14.898438 -80.5 -14.585938 -80.179688 -14.199219 C -79.859375 -13.808594 -79.625 -13.375 -79.476562 -12.894531 C -79.328125 -12.410156 -79.277344 -11.917969 -79.328125 -11.417969 C -79.375 -10.917969 -79.515625 -10.441406 -79.753906 -9.996094 C -79.988281 -9.550781 -80.300781 -9.167969 -80.6875 -8.847656 C -81.078125 -8.527344 -81.511719 -8.292969 -81.996094 -8.144531 C -82.476562 -7.996094 -82.96875 -7.945312 -83.46875 -7.996094 C -83.972656 -8.042969 -84.445312 -8.183594 -84.890625 -8.421875 C -89.828125 -11.042969 -96.792969 -15.257812 -105.773438 -21.070312 C -108.394531 -22.765625 -110.359375 -24.027344 -111.664062 -24.859375 C -112.089844 -25.128906 -112.449219 -25.46875 -112.738281 -25.882812 C -113.027344 -26.296875 -113.226562 -26.746094 -113.335938 -27.238281 C -113.445312 -27.730469 -113.457031 -28.226562 -113.371094 -28.722656 C -113.285156 -29.21875 -113.105469 -29.679688 -112.835938 -30.105469 C -112.566406 -30.53125 -112.222656 -30.886719 -111.8125 -31.175781 C -111.398438 -31.46875 -110.945312 -31.667969 -110.453125 -31.777344 C -109.960938 -31.886719 -109.46875 -31.898438 -108.972656 -31.808594 C -108.476562 -31.722656 -108.015625 -31.542969 -107.589844 -31.273438 Z M -38.363281 -2.984375 C -35.839844 -2.871094 -33.277344 -2.855469 -30.671875 -2.925781 C -23.3125 -3.132812 -15.855469 -4.058594 -8.296875 -5.703125 C -7.804688 -5.8125 -7.3125 -5.820312 -6.816406 -5.730469 C -6.320312 -5.640625 -5.859375 -5.460938 -5.433594 -5.1875 C -5.011719 -4.914062 -4.65625 -4.574219 -4.367188 -4.160156 C -4.082031 -3.746094 -3.882812 -3.292969 -3.777344 -2.800781 C -3.667969 -2.304688 -3.660156 -1.8125 -3.75 -1.316406 C -3.839844 -0.820312 -4.019531 -0.359375 -4.292969 0.0625 C -4.566406 0.488281 -4.910156 0.84375 -5.320312 1.132812 C -5.734375 1.417969 -6.1875 1.617188 -6.683594 1.722656 C -14.699219 3.46875 -22.625 4.453125 -30.460938 4.671875 C -33.246094 4.75 -35.992188 4.730469 -38.695312 4.609375 C -39.199219 4.589844 -39.679688 4.472656 -40.136719 4.257812 C -40.59375 4.046875 -40.992188 3.753906 -41.332031 3.382812 C -41.671875 3.011719 -41.929688 2.585938 -42.101562 2.113281 C -42.273438 1.640625 -42.347656 1.152344 -42.328125 0.648438 C -42.304688 0.144531 -42.1875 -0.335938 -41.972656 -0.792969 C -41.761719 -1.25 -41.46875 -1.648438 -41.097656 -1.988281 C -40.726562 -2.328125 -40.304688 -2.585938 -39.828125 -2.757812 C -39.355469 -2.929688 -38.867188 -3.003906 -38.363281 -2.984375 Z M 33.957031 -22.324219 C 42.746094 -27.40625 51.027344 -33.273438 58.796875 -39.929688 C 59.179688 -40.257812 59.613281 -40.5 60.089844 -40.65625 C 60.570312 -40.8125 61.0625 -40.871094 61.5625 -40.835938 C 62.066406 -40.796875 62.542969 -40.660156 62.992188 -40.433594 C 63.441406 -40.207031 63.828125 -39.898438 64.15625 -39.515625 C 64.484375 -39.132812 64.726562 -38.703125 64.882812 -38.222656 C 65.039062 -37.746094 65.097656 -37.253906 65.058594 -36.753906 C 65.019531 -36.25 64.886719 -35.773438 64.660156 -35.324219 C 64.429688 -34.875 64.125 -34.484375 63.742188 -34.15625 C 55.617188 -27.195312 46.957031 -21.058594 37.761719 -15.742188 C 37.324219 -15.492188 36.855469 -15.332031 36.355469 -15.265625 C 35.855469 -15.199219 35.363281 -15.234375 34.875 -15.363281 C 34.390625 -15.492188 33.945312 -15.710938 33.546875 -16.019531 C 33.144531 -16.324219 32.820312 -16.695312 32.570312 -17.132812 C 32.316406 -17.570312 32.15625 -18.039062 32.089844 -18.539062 C 32.027344 -19.039062 32.058594 -19.53125 32.1875 -20.015625 C 32.316406 -20.503906 32.535156 -20.949219 32.84375 -21.347656 C 33.148438 -21.746094 33.523438 -22.074219 33.957031 -22.324219 Z M 88.769531 -74.136719 C 92.628906 -80.1875 95.914062 -86.347656 98.617188 -92.625 C 99.867188 -95.527344 100.980469 -98.421875 101.953125 -101.300781 C 102.113281 -101.78125 102.359375 -102.207031 102.691406 -102.585938 C 103.023438 -102.96875 103.414062 -103.269531 103.863281 -103.492188 C 104.316406 -103.71875 104.792969 -103.847656 105.296875 -103.878906 C 105.800781 -103.914062 106.289062 -103.851562 106.765625 -103.6875 C 107.246094 -103.527344 107.671875 -103.28125 108.050781 -102.949219 C 108.433594 -102.617188 108.734375 -102.226562 108.957031 -101.777344 C 109.179688 -101.324219 109.308594 -100.847656 109.34375 -100.34375 C 109.378906 -99.839844 109.316406 -99.351562 109.152344 -98.875 C 108.117188 -95.796875 106.929688 -92.710938 105.597656 -89.613281 C 102.730469 -82.964844 99.253906 -76.441406 95.171875 -70.046875 C 94.902344 -69.621094 94.558594 -69.265625 94.148438 -68.976562 C 93.734375 -68.6875 93.28125 -68.488281 92.789062 -68.378906 C 92.296875 -68.273438 91.804688 -68.261719 91.308594 -68.351562 C 90.8125 -68.4375 90.351562 -68.617188 89.925781 -68.886719 C 89.5 -69.160156 89.144531 -69.503906 88.855469 -69.914062 C 88.566406 -70.328125 88.367188 -70.78125 88.261719 -71.273438 C 88.152344 -71.765625 88.140625 -72.257812 88.230469 -72.753906 C 88.316406 -73.253906 88.496094 -73.710938 88.769531 -74.136719 Z M 106.632812 -145.933594 C 106.324219 -149.375 105.71875 -154.421875 104.820312 -161.074219 C 103.871094 -168.105469 103.253906 -173.371094 102.972656 -176.863281 C 102.933594 -177.367188 102.992188 -177.859375 103.144531 -178.335938 C 103.300781 -178.816406 103.542969 -179.25 103.867188 -179.632812 C 104.195312 -180.015625 104.582031 -180.324219 105.03125 -180.550781 C 105.480469 -180.78125 105.957031 -180.917969 106.457031 -180.957031 C 106.960938 -180.996094 107.453125 -180.941406 107.929688 -180.785156 C 108.410156 -180.628906 108.84375 -180.390625 109.226562 -180.0625 C 109.609375 -179.734375 109.917969 -179.347656 110.144531 -178.898438 C 110.375 -178.449219 110.511719 -177.972656 110.550781 -177.472656 C 110.820312 -174.113281 111.421875 -168.988281 112.351562 -162.09375 C 113.265625 -155.328125 113.882812 -150.167969 114.203125 -146.613281 C 114.246094 -146.113281 114.195312 -145.621094 114.042969 -145.140625 C 113.894531 -144.65625 113.65625 -144.222656 113.335938 -143.835938 C 113.011719 -143.449219 112.628906 -143.140625 112.179688 -142.90625 C 111.734375 -142.671875 111.261719 -142.53125 110.757812 -142.488281 C 110.257812 -142.441406 109.765625 -142.496094 109.285156 -142.644531 C 108.804688 -142.796875 108.367188 -143.03125 107.980469 -143.355469 C 107.59375 -143.679688 107.285156 -144.0625 107.050781 -144.511719 C 106.816406 -144.957031 106.679688 -145.429688 106.632812 -145.933594 Z M 113.027344 -223.886719 C 118.421875 -232.714844 125.8125 -240.652344 135.210938 -247.699219 C 135.613281 -248 136.058594 -248.214844 136.546875 -248.339844 C 137.035156 -248.464844 137.527344 -248.492188 138.027344 -248.421875 C 138.527344 -248.351562 138.992188 -248.1875 139.425781 -247.929688 C 139.859375 -247.671875 140.226562 -247.34375 140.53125 -246.9375 C 140.832031 -246.535156 141.046875 -246.089844 141.171875 -245.601562 C 141.296875 -245.113281 141.324219 -244.621094 141.25 -244.121094 C 141.179688 -243.621094 141.015625 -243.15625 140.757812 -242.722656 C 140.503906 -242.289062 140.171875 -241.921875 139.769531 -241.617188 C 131.152344 -235.152344 124.398438 -227.921875 119.515625 -219.925781 C 119.253906 -219.496094 118.917969 -219.132812 118.511719 -218.835938 C 118.101562 -218.539062 117.652344 -218.332031 117.164062 -218.210938 C 116.675781 -218.09375 116.179688 -218.074219 115.683594 -218.152344 C 115.183594 -218.230469 114.722656 -218.402344 114.289062 -218.664062 C 113.859375 -218.925781 113.496094 -219.261719 113.199219 -219.667969 C 112.902344 -220.074219 112.695312 -220.523438 112.578125 -221.015625 C 112.460938 -221.503906 112.441406 -222 112.519531 -222.496094 C 112.597656 -222.996094 112.765625 -223.457031 113.027344 -223.886719 Z M 177.730469 -269.265625 C 186.988281 -272.480469 197.105469 -275.320312 208.082031 -277.796875 C 208.574219 -277.90625 209.066406 -277.917969 209.5625 -277.832031 C 210.058594 -277.746094 210.519531 -277.570312 210.945312 -277.300781 C 211.371094 -277.03125 211.730469 -276.691406 212.023438 -276.277344 C 212.3125 -275.867188 212.511719 -275.414062 212.625 -274.921875 C 212.734375 -274.433594 212.746094 -273.9375 212.660156 -273.441406 C 212.574219 -272.945312 212.398438 -272.484375 212.128906 -272.058594 C 211.859375 -271.628906 211.519531 -271.273438 211.105469 -270.980469 C 210.695312 -270.691406 210.242188 -270.492188 209.75 -270.378906 C 199.054688 -267.96875 189.210938 -265.203125 180.21875 -262.085938 C 179.742188 -261.917969 179.253906 -261.851562 178.75 -261.882812 C 178.246094 -261.910156 177.769531 -262.035156 177.316406 -262.253906 C 176.863281 -262.476562 176.46875 -262.773438 176.132812 -263.152344 C 175.800781 -263.527344 175.550781 -263.953125 175.382812 -264.429688 C 175.21875 -264.90625 175.152344 -265.394531 175.179688 -265.898438 C 175.210938 -266.402344 175.335938 -266.878906 175.554688 -267.332031 C 175.773438 -267.789062 176.074219 -268.179688 176.449219 -268.515625 C 176.828125 -268.851562 177.253906 -269.101562 177.730469 -269.265625 Z M 254.464844 -285.480469 C 264.425781 -286.636719 274.875 -287.582031 285.8125 -288.3125 C 286.316406 -288.347656 286.804688 -288.285156 287.285156 -288.121094 C 287.761719 -287.960938 288.1875 -287.714844 288.570312 -287.382812 C 288.949219 -287.050781 289.25 -286.660156 289.472656 -286.207031 C 289.695312 -285.753906 289.824219 -285.277344 289.859375 -284.777344 C 289.894531 -284.273438 289.828125 -283.78125 289.667969 -283.304688 C 289.507812 -282.828125 289.257812 -282.398438 288.929688 -282.019531 C 288.597656 -281.640625 288.203125 -281.339844 287.753906 -281.113281 C 287.300781 -280.890625 286.824219 -280.761719 286.320312 -280.730469 C 275.503906 -280.003906 265.175781 -279.070312 255.339844 -277.929688 C 254.839844 -277.871094 254.347656 -277.914062 253.863281 -278.050781 C 253.378906 -278.1875 252.9375 -278.414062 252.542969 -278.726562 C 252.148438 -279.039062 251.828125 -279.417969 251.582031 -279.855469 C 251.335938 -280.296875 251.1875 -280.765625 251.128906 -281.269531 C 251.070312 -281.769531 251.109375 -282.261719 251.246094 -282.746094 C 251.386719 -283.230469 251.609375 -283.671875 251.925781 -284.066406 C 252.238281 -284.460938 252.613281 -284.78125 253.054688 -285.027344 C 253.492188 -285.273438 253.964844 -285.421875 254.464844 -285.480469 Z M 254.464844 -285.480469 " fill-opacity="1" fill-rule="nonzero"/></g></g></g></g></svg>