<svg xmlns="http://www.w3.org/2000/svg" xmlns:xlink="http://www.w3.org/1999/xlink" width="1000" zoomAndPan="magnify" viewBox="0 0 750 599.999999" height="800" preserveAspectRatio="xMidYMid meet" version="1.0"><defs><clipPath id="bdb639aa4a"><path d="M 39 558 L 55 558 L 55 574.1875 L 39 574.1875 Z M 39 558 " clip-rule="nonzero"/></clipPath></defs><path fill="#0339e8" d="M 687.5625 213.277344 L 691.359375 170.789062 L 704.105469 164.839844 C 704.273438 164.761719 704.402344 164.636719 704.488281 164.472656 C 704.574219 164.308594 704.601562 164.132812 704.570312 163.949219 C 704.179688 161.722656 703.507812 159.585938 702.554688 157.539062 C 701.597656 155.492188 700.390625 153.605469 698.933594 151.878906 C 698.8125 151.738281 698.660156 151.648438 698.480469 151.605469 C 698.296875 151.566406 698.125 151.585938 697.953125 151.664062 L 692.859375 154.042969 L 696.609375 112.269531 C 709.46875 106.390625 719.847656 101.28125 725.878906 97.9375 C 742.996094 88.425781 747.941406 78.792969 749.367188 73.789062 C 749.515625 73.269531 749.570312 72.738281 749.527344 72.199219 C 749.484375 71.660156 749.347656 71.148438 749.117188 70.65625 C 748.890625 70.167969 748.582031 69.734375 748.195312 69.355469 C 747.8125 68.976562 747.371094 68.675781 746.875 68.457031 C 742.125 66.332031 731.566406 63.941406 713.28125 70.960938 C 706.84375 73.433594 696.25 78.105469 683.515625 84.1875 L 649.101562 60.230469 L 654.199219 57.851562 C 654.367188 57.773438 654.496094 57.652344 654.582031 57.488281 C 654.667969 57.320312 654.695312 57.148438 654.660156 56.964844 C 654.273438 54.738281 653.601562 52.601562 652.648438 50.554688 C 651.691406 48.503906 650.484375 46.617188 649.023438 44.894531 C 648.90625 44.75 648.753906 44.660156 648.574219 44.621094 C 648.390625 44.582031 648.214844 44.597656 648.046875 44.675781 L 635.304688 50.628906 L 600.289062 26.257812 C 599.882812 25.972656 599.453125 25.9375 599.003906 26.144531 L 593.425781 28.75 C 593.25 28.832031 593.101562 28.945312 592.980469 29.09375 C 592.855469 29.242188 592.769531 29.410156 592.71875 29.59375 C 592.671875 29.78125 592.664062 29.96875 592.699219 30.160156 C 592.734375 30.347656 592.808594 30.519531 592.921875 30.675781 L 645.125 103.578125 C 627.925781 112.734375 610.277344 122.808594 595.191406 132.605469 L 562.855469 108.265625 C 562.664062 108.121094 562.449219 108.039062 562.210938 108.011719 C 561.972656 107.988281 561.746094 108.027344 561.527344 108.128906 L 554.210938 111.535156 C 554.027344 111.617188 553.875 111.738281 553.75 111.898438 C 553.621094 112.054688 553.539062 112.230469 553.492188 112.429688 C 553.449219 112.625 553.453125 112.824219 553.503906 113.019531 C 553.550781 113.214844 553.640625 113.390625 553.769531 113.542969 L 579.207031 143.601562 C 574.667969 146.90625 570.320312 150.449219 566.164062 154.222656 C 565.886719 154.480469 565.710938 154.796875 565.636719 155.167969 C 565.5625 155.542969 565.609375 155.898438 565.769531 156.246094 C 565.929688 156.589844 566.175781 156.851562 566.507812 157.035156 C 566.839844 157.21875 567.195312 157.285156 567.574219 157.238281 C 573.140625 156.480469 578.652344 155.429688 584.109375 154.078125 L 590.816406 192.878906 C 590.851562 193.078125 590.929688 193.261719 591.046875 193.425781 C 591.167969 193.589844 591.320312 193.71875 591.5 193.8125 C 591.679688 193.90625 591.871094 193.953125 592.074219 193.957031 C 592.277344 193.960938 592.472656 193.917969 592.65625 193.832031 L 599.9375 190.433594 C 600.398438 190.210938 600.644531 189.84375 600.671875 189.328125 L 602.773438 148.910156 C 619.964844 143.628906 639.015625 136.566406 657.078125 129.261719 L 679.449219 216.089844 C 679.496094 216.277344 679.582031 216.445312 679.703125 216.59375 C 679.828125 216.742188 679.976562 216.859375 680.148438 216.941406 C 680.324219 217.023438 680.507812 217.066406 680.699219 217.066406 C 680.890625 217.066406 681.074219 217.023438 681.25 216.945312 L 686.828125 214.339844 C 687.273438 214.125 687.519531 213.769531 687.5625 213.277344 Z M 687.5625 213.277344 " fill-opacity="1" fill-rule="nonzero"/><path fill="#0339e8" d="M 64.5625 459.082031 C 63.222656 458.316406 61.839844 457.640625 60.414062 457.054688 C 58.988281 456.472656 57.53125 455.980469 56.039062 455.585938 C 54.550781 455.191406 53.042969 454.890625 51.511719 454.691406 C 49.984375 454.492188 48.449219 454.394531 46.910156 454.394531 C 45.367188 454.394531 43.832031 454.492188 42.304688 454.691406 C 40.773438 454.890625 39.265625 455.191406 37.777344 455.585938 C 36.285156 455.980469 34.828125 456.472656 33.402344 457.054688 C 31.976562 457.640625 30.59375 458.316406 29.257812 459.082031 C 13.675781 468.011719 -0.00390625 491.589844 46.894531 553.574219 C 93.820312 491.589844 80.136719 468.011719 64.5625 459.082031 Z M 46.921875 505.664062 C 46.300781 505.664062 45.679688 505.632812 45.0625 505.570312 C 44.441406 505.511719 43.828125 505.417969 43.21875 505.296875 C 42.609375 505.175781 42.003906 505.027344 41.410156 504.84375 C 40.8125 504.664062 40.230469 504.457031 39.65625 504.21875 C 39.078125 503.980469 38.519531 503.714844 37.96875 503.421875 C 37.421875 503.125 36.886719 502.808594 36.371094 502.460938 C 35.855469 502.117188 35.355469 501.746094 34.875 501.351562 C 34.394531 500.957031 33.933594 500.539062 33.492188 500.101562 C 33.054688 499.660156 32.636719 499.199219 32.242188 498.71875 C 31.847656 498.238281 31.476562 497.738281 31.128906 497.222656 C 30.785156 496.703125 30.464844 496.171875 30.171875 495.621094 C 29.878906 495.074219 29.613281 494.511719 29.375 493.9375 C 29.136719 493.363281 28.929688 492.777344 28.746094 492.183594 C 28.566406 491.585938 28.417969 490.984375 28.292969 490.375 C 28.171875 489.765625 28.082031 489.148438 28.019531 488.53125 C 27.960938 487.914062 27.929688 487.292969 27.929688 486.667969 C 27.929688 486.046875 27.960938 485.425781 28.019531 484.808594 C 28.082031 484.1875 28.171875 483.574219 28.292969 482.964844 C 28.417969 482.355469 28.566406 481.75 28.746094 481.15625 C 28.929688 480.5625 29.136719 479.976562 29.375 479.402344 C 29.613281 478.828125 29.878906 478.265625 30.171875 477.714844 C 30.464844 477.167969 30.785156 476.632812 31.128906 476.117188 C 31.476562 475.601562 31.847656 475.101562 32.242188 474.621094 C 32.636719 474.140625 33.054688 473.679688 33.492188 473.238281 C 33.933594 472.800781 34.394531 472.382812 34.875 471.988281 C 35.355469 471.59375 35.855469 471.222656 36.371094 470.878906 C 36.886719 470.53125 37.421875 470.210938 37.96875 469.917969 C 38.519531 469.625 39.078125 469.359375 39.65625 469.121094 C 40.230469 468.882812 40.8125 468.675781 41.410156 468.492188 C 42.003906 468.3125 42.609375 468.164062 43.21875 468.039062 C 43.828125 467.917969 44.441406 467.828125 45.0625 467.765625 C 45.679688 467.707031 46.300781 467.675781 46.921875 467.675781 C 47.546875 467.675781 48.164062 467.707031 48.785156 467.765625 C 49.402344 467.828125 50.019531 467.917969 50.628906 468.039062 C 51.238281 468.164062 51.839844 468.3125 52.4375 468.492188 C 53.03125 468.675781 53.617188 468.882812 54.191406 469.121094 C 54.765625 469.359375 55.328125 469.625 55.875 469.917969 C 56.425781 470.210938 56.957031 470.53125 57.476562 470.878906 C 57.992188 471.222656 58.492188 471.59375 58.972656 471.988281 C 59.453125 472.382812 59.914062 472.800781 60.355469 473.238281 C 60.792969 473.679688 61.210938 474.140625 61.605469 474.621094 C 62 475.101562 62.371094 475.601562 62.714844 476.117188 C 63.0625 476.632812 63.378906 477.167969 63.675781 477.714844 C 63.96875 478.265625 64.234375 478.828125 64.472656 479.402344 C 64.707031 479.976562 64.917969 480.5625 65.097656 481.15625 C 65.28125 481.75 65.429688 482.355469 65.550781 482.964844 C 65.671875 483.574219 65.765625 484.1875 65.824219 484.808594 C 65.886719 485.425781 65.917969 486.046875 65.917969 486.667969 C 65.917969 487.292969 65.886719 487.914062 65.824219 488.53125 C 65.761719 489.152344 65.671875 489.765625 65.550781 490.375 C 65.429688 490.988281 65.277344 491.589844 65.097656 492.183594 C 64.917969 492.78125 64.707031 493.367188 64.46875 493.941406 C 64.230469 494.515625 63.964844 495.078125 63.671875 495.625 C 63.378906 496.175781 63.058594 496.707031 62.710938 497.226562 C 62.367188 497.742188 61.996094 498.242188 61.601562 498.722656 C 61.207031 499.203125 60.789062 499.664062 60.347656 500.105469 C 59.90625 500.542969 59.445312 500.960938 58.964844 501.355469 C 58.484375 501.75 57.984375 502.121094 57.46875 502.464844 C 56.949219 502.8125 56.414062 503.128906 55.867188 503.425781 C 55.316406 503.71875 54.757812 503.984375 54.179688 504.21875 C 53.605469 504.457031 53.019531 504.667969 52.425781 504.847656 C 51.828125 505.027344 51.226562 505.179688 50.617188 505.300781 C 50.003906 505.421875 49.390625 505.511719 48.769531 505.574219 C 48.152344 505.632812 47.53125 505.664062 46.910156 505.664062 Z M 46.921875 505.664062 " fill-opacity="1" fill-rule="nonzero"/><g clip-path="url(#bdb639aa4a)"><path fill="#0339e8" d="M 54.796875 566.148438 C 54.796875 566.667969 54.746094 567.179688 54.644531 567.6875 C 54.546875 568.195312 54.394531 568.6875 54.195312 569.167969 C 54 569.644531 53.757812 570.101562 53.46875 570.53125 C 53.179688 570.960938 52.851562 571.359375 52.488281 571.726562 C 52.121094 572.09375 51.722656 572.421875 51.292969 572.707031 C 50.859375 572.996094 50.40625 573.238281 49.925781 573.4375 C 49.449219 573.636719 48.957031 573.785156 48.449219 573.886719 C 47.941406 573.988281 47.425781 574.039062 46.910156 574.039062 C 46.390625 574.039062 45.878906 573.988281 45.371094 573.886719 C 44.863281 573.785156 44.367188 573.636719 43.890625 573.4375 C 43.410156 573.238281 42.957031 572.996094 42.527344 572.707031 C 42.09375 572.421875 41.695312 572.09375 41.328125 571.726562 C 40.964844 571.359375 40.636719 570.960938 40.347656 570.53125 C 40.0625 570.101562 39.816406 569.644531 39.621094 569.167969 C 39.421875 568.6875 39.273438 568.195312 39.171875 567.6875 C 39.070312 567.179688 39.019531 566.667969 39.019531 566.148438 C 39.019531 565.628906 39.070312 565.117188 39.171875 564.609375 C 39.273438 564.101562 39.421875 563.609375 39.621094 563.128906 C 39.816406 562.652344 40.0625 562.195312 40.347656 561.765625 C 40.636719 561.335938 40.964844 560.9375 41.328125 560.570312 C 41.695312 560.203125 42.09375 559.875 42.527344 559.589844 C 42.957031 559.300781 43.410156 559.058594 43.890625 558.859375 C 44.367188 558.660156 44.863281 558.511719 45.371094 558.410156 C 45.878906 558.308594 46.390625 558.257812 46.910156 558.257812 C 47.425781 558.257812 47.941406 558.308594 48.449219 558.410156 C 48.957031 558.511719 49.449219 558.660156 49.925781 558.859375 C 50.40625 559.058594 50.859375 559.300781 51.292969 559.589844 C 51.722656 559.875 52.121094 560.203125 52.488281 560.570312 C 52.851562 560.9375 53.179688 561.335938 53.46875 561.765625 C 53.757812 562.195312 54 562.652344 54.195312 563.128906 C 54.394531 563.609375 54.546875 564.101562 54.644531 564.609375 C 54.746094 565.117188 54.796875 565.628906 54.796875 566.148438 Z M 54.796875 566.148438 " fill-opacity="1" fill-rule="nonzero"/></g><path fill="#0339e8" d="M 64.382812 568.144531 L 63.496094 564.152344 C 68.933594 562.945312 74.410156 561.472656 79.777344 559.777344 L 81.007812 563.679688 C 75.53125 565.410156 69.941406 566.910156 64.382812 568.144531 Z M 97.1875 557.808594 L 95.632812 554.023438 C 100.777344 551.902344 105.941406 549.523438 110.953125 546.964844 L 112.8125 550.605469 C 107.703125 553.207031 102.445312 555.644531 97.1875 557.808594 Z M 127.796875 542.183594 L 125.648438 538.699219 C 130.402344 535.761719 135.113281 532.597656 139.648438 529.277344 L 142.066406 532.585938 C 137.449219 535.9375 132.644531 539.175781 127.796875 542.183594 Z M 155.539062 521.894531 L 152.875 518.789062 C 157.125 515.140625 161.292969 511.277344 165.253906 507.308594 L 168.148438 510.195312 C 164.113281 514.222656 159.875 518.15625 155.542969 521.875 Z M 179.820312 497.5625 L 176.707031 494.90625 C 180.355469 490.636719 183.875 486.179688 187.167969 481.679688 L 190.472656 484.085938 C 187.125 488.65625 183.535156 493.199219 179.820312 497.546875 Z M 200.027344 469.773438 L 196.542969 467.636719 C 199.480469 462.859375 202.253906 457.882812 204.777344 452.910156 L 208.425781 454.746094 C 205.871094 459.8125 203.046875 464.863281 200.046875 469.753906 Z M 215.566406 439.105469 L 211.777344 437.5625 C 212.316406 436.242188 212.839844 434.910156 213.351562 433.574219 C 212.066406 433.613281 210.78125 433.632812 209.511719 433.632812 L 209.324219 433.632812 L 209.324219 429.523438 L 209.511719 429.523438 C 211.289062 429.523438 213.082031 429.484375 214.882812 429.410156 C 215.804688 426.835938 216.664062 424.265625 217.457031 421.671875 L 221.363281 422.886719 C 220.714844 424.972656 220.027344 427.0625 219.304688 429.132812 C 220.738281 429.023438 222.175781 428.890625 223.605469 428.734375 C 224.414062 428.640625 225.238281 428.546875 226.046875 428.441406 L 226.574219 432.480469 C 225.738281 432.589844 224.890625 432.691406 224.050781 432.78125 C 221.96875 433.015625 219.886719 433.195312 217.804688 433.328125 C 217.097656 435.265625 216.359375 437.1875 215.585938 439.089844 Z M 192.050781 432.402344 C 186.308594 431.578125 180.664062 430.300781 175.125 428.570312 L 176.351562 424.667969 C 181.683594 426.332031 187.109375 427.558594 192.640625 428.34375 Z M 243.5625 429.207031 L 242.519531 425.25 C 247.933594 423.828125 253.222656 422.042969 258.394531 419.898438 L 259.964844 423.675781 C 254.628906 425.882812 249.164062 427.722656 243.574219 429.1875 Z M 159.074219 421.859375 C 156.53125 420.5 154.039062 419.011719 151.675781 417.425781 C 149.21875 415.785156 146.867188 414.007812 144.617188 412.09375 L 147.265625 408.976562 C 149.398438 410.789062 151.625 412.472656 153.949219 414.027344 C 156.199219 415.535156 158.574219 416.96875 160.996094 418.25 Z M 275.4375 415.847656 L 273.320312 412.34375 C 278.101562 409.464844 282.613281 406.214844 286.855469 402.589844 L 289.515625 405.695312 C 285.105469 409.464844 280.414062 412.84375 275.445312 415.839844 Z M 225.769531 406.226562 L 221.765625 405.367188 C 222.960938 399.882812 223.847656 394.351562 224.433594 388.769531 L 228.503906 389.183594 C 227.902344 394.914062 226.988281 400.597656 225.769531 406.226562 Z M 132.648438 399.382812 C 129.113281 394.703125 126.160156 389.679688 123.789062 384.316406 L 127.535156 382.671875 C 129.777344 387.746094 132.570312 392.496094 135.914062 396.921875 Z M 301.675781 393.230469 L 298.5 390.660156 C 302.007812 386.3125 305.125 381.703125 307.847656 376.832031 L 311.414062 378.835938 C 308.570312 383.910156 305.320312 388.707031 301.664062 393.230469 Z M 225.007812 372.054688 C 224.804688 366.488281 224.101562 360.980469 222.898438 355.542969 L 226.890625 354.640625 C 228.144531 360.332031 228.878906 366.089844 229.09375 371.910156 Z M 118.816406 367.515625 C 118.324219 364.378906 118.082031 361.226562 118.078125 358.050781 C 118.078125 356.308594 118.160156 354.554688 118.3125 352.828125 C 118.394531 351.867188 118.511719 350.894531 118.652344 349.929688 L 122.695312 350.519531 C 122.566406 351.40625 122.460938 352.304688 122.382812 353.191406 C 122.238281 354.792969 122.167969 356.429688 122.167969 358.050781 C 122.171875 361.015625 122.402344 363.960938 122.859375 366.886719 Z M 318.707031 363.167969 L 314.890625 361.695312 C 316.894531 356.457031 318.589844 351.117188 319.972656 345.679688 L 323.9375 346.695312 C 322.519531 352.28125 320.78125 357.769531 318.726562 363.160156 Z M 217.53125 339.886719 C 215.121094 334.902344 212.113281 330.308594 208.507812 326.105469 L 211.617188 323.449219 C 215.453125 327.921875 218.648438 332.808594 221.210938 338.113281 Z M 127.628906 334.941406 L 123.957031 333.105469 C 126.597656 327.804688 129.960938 323.007812 134.046875 318.714844 L 137.011719 321.535156 C 133.210938 325.535156 130.085938 330.003906 127.628906 334.941406 Z M 327.410156 329.824219 L 323.371094 329.171875 C 324.222656 323.898438 324.921875 318.253906 325.449219 312.398438 L 329.519531 312.765625 C 328.988281 318.71875 328.277344 324.460938 327.410156 329.828125 Z M 196.285156 315.125 C 191.730469 312.023438 186.804688 309.71875 181.503906 308.210938 L 182.605469 304.269531 C 188.332031 305.894531 193.652344 308.386719 198.570312 311.734375 Z M 149.984375 311.625 L 148.070312 308.007812 C 153.367188 305.167969 159 303.414062 164.972656 302.746094 L 165.414062 306.808594 C 159.957031 307.425781 154.8125 309.03125 149.972656 311.628906 Z M 330.609375 295.664062 L 326.523438 295.496094 C 326.769531 289.359375 326.890625 283.191406 326.988281 278.507812 L 331.078125 278.578125 C 330.996094 283.289062 330.859375 289.484375 330.609375 295.664062 Z M 331.382812 261.542969 L 327.292969 261.453125 C 327.433594 254.726562 327.605469 249.292969 327.839844 244.363281 L 331.925781 244.554688 C 331.695312 249.457031 331.523438 254.839844 331.382812 261.542969 Z M 333.109375 227.664062 L 329.039062 227.28125 C 329.632812 221.207031 330.378906 215.632812 331.320312 210.238281 L 335.363281 210.941406 C 334.425781 216.21875 333.695312 221.695312 333.109375 227.664062 Z M 339.035156 194.523438 L 335.101562 193.417969 C 336.679688 187.855469 338.621094 182.417969 340.917969 177.109375 L 344.675781 178.734375 C 342.445312 183.875 340.566406 189.136719 339.035156 194.523438 Z M 352.371094 163.871094 L 348.886719 161.730469 C 351.910156 156.777344 355.3125 152.09375 359.089844 147.6875 L 362.191406 150.359375 C 358.554688 154.597656 355.28125 159.101562 352.371094 163.871094 Z M 550.292969 159.023438 C 544.785156 158.996094 539.308594 158.550781 533.871094 157.683594 L 534.5 153.644531 C 539.730469 154.476562 545 154.910156 550.300781 154.933594 L 551.144531 154.933594 L 551.1875 159.027344 Z M 568.53125 156.941406 L 567.558594 152.972656 C 572.925781 151.683594 577.984375 149.640625 582.742188 146.839844 L 584.828125 150.363281 C 579.722656 153.363281 574.289062 155.558594 568.53125 156.941406 Z M 516.992188 153.980469 C 511.734375 152.511719 506.230469 150.707031 500.632812 148.609375 L 502.070312 144.78125 C 507.558594 146.839844 512.949219 148.609375 518.09375 150.042969 Z M 484.773438 142.179688 L 484.484375 142.058594 C 479.4375 139.953125 474.195312 137.769531 469.050781 135.730469 L 470.550781 131.921875 C 475.773438 133.980469 481.011719 136.167969 486.078125 138.285156 L 486.367188 138.40625 Z M 374.167969 138.816406 L 371.636719 135.609375 C 376.226562 131.964844 381.164062 128.886719 386.453125 126.367188 L 388.199219 130.0625 C 383.1875 132.453125 378.511719 135.367188 374.164062 138.816406 Z M 453.140625 129.964844 C 447.8125 128.214844 442.398438 126.769531 436.90625 125.628906 L 437.722656 121.621094 C 443.367188 122.792969 448.921875 124.277344 454.398438 126.074219 Z M 403.863281 124.917969 L 403.078125 120.902344 C 407.976562 119.957031 412.917969 119.492188 417.90625 119.5 C 418.753906 119.5 419.621094 119.5 420.480469 119.539062 L 420.355469 123.628906 C 419.53125 123.605469 418.707031 123.59375 417.898438 123.59375 C 413.175781 123.582031 408.496094 124.023438 403.855469 124.917969 Z M 403.863281 124.917969 " fill-opacity="1" fill-rule="nonzero"/></svg>